<svg class="svg-icon" fill="none" height="58" style="width: auto; height: 14px;" viewBox="0 0 83 58" width="83" xmlns="http://www.w3.org/2000/svg">
<path d="M41.5188 43.0512C45.3806 43.0512 48.6694 41.687 51.3854 38.9585C54.1013 36.2301 55.4592 32.935 55.4592 29.0732C55.4592 25.2114 54.095 21.9226 51.3665 19.2066C48.6381 16.4907 45.343 15.1328 41.4812 15.1328C37.6194 15.1328 34.3306 16.497 31.6146 19.2255C28.8987 21.9539 27.5408 25.249 27.5408 29.1108C27.5408 32.9726 28.905 36.2614 31.6335 38.9774C34.3619 41.6933 37.657 43.0512 41.5188 43.0512ZM41.4731 39.0257C38.7058 39.0257 36.363 38.0573 34.4447 36.1205C32.5257 34.1836 31.5663 31.8318 31.5663 29.0651C31.5663 26.2978 32.5347 23.955 34.4715 22.0367C36.4084 20.1177 38.7602 19.1583 41.5269 19.1583C44.2942 19.1583 46.637 20.1267 48.5553 22.0636C50.4743 24.0004 51.4337 26.3522 51.4337 29.1189C51.4337 31.8862 50.4653 34.229 48.5284 36.1473C46.5916 38.0663 44.2398 39.0257 41.4731 39.0257ZM41.5045 54.184C33.2845 54.184 25.822 51.8827 19.117 47.2801C12.4121 42.6775 7.37308 36.6148 4 29.092C7.37308 21.5692 12.4106 15.5065 19.1126 10.9039C25.8139 6.30129 33.2749 4 41.4955 4C49.7155 4 57.178 6.30129 63.883 10.9039C70.5879 15.5065 75.6269 21.5692 79 29.092C75.6269 36.6148 70.5894 42.6775 63.8874 47.2801C57.1861 51.8827 49.7251 54.184 41.5045 54.184ZM41.4848 50.1164C48.6091 50.1164 55.1456 48.2118 61.0942 44.4026C67.0434 40.5928 71.5781 35.4893 74.6985 29.092C71.5781 22.6947 67.0484 17.5912 61.1094 13.7814C55.1704 9.9722 48.639 8.06759 41.5152 8.06759C34.3909 8.06759 27.8544 9.9722 21.9058 13.7814C15.9566 17.5912 11.4033 22.6947 8.24593 29.092C11.4033 35.4893 15.9516 40.5928 21.8906 44.4026C27.8296 48.2118 34.361 50.1164 41.4848 50.1164Z" fill="currentColor"></path>
</svg>