<svg class="svg-icon" fill="none" height="74" style="width: auto; height: 14px;" viewBox="0 0 83 74" width="83" xmlns="http://www.w3.org/2000/svg">
<path d="M54.0594 40.0088L50.9436 36.8938C52.2215 32.8588 51.3692 29.529 48.3869 26.9045C45.4039 24.2806 42.1867 23.541 38.7354 24.6857L35.6204 21.5698C36.4287 21.096 37.3338 20.7444 38.3357 20.515C39.3376 20.285 40.3924 20.17 41.5 20.17C45.397 20.17 48.6978 21.5223 51.4024 24.2268C54.1069 26.9314 55.4592 30.2322 55.4592 34.1292C55.4592 35.2368 55.335 36.3122 55.0864 37.3553C54.8385 38.3984 54.4962 39.2829 54.0594 40.0088ZM65.5166 51.3629L62.7251 48.6745C65.4685 46.6385 67.8789 44.3715 69.9561 41.8737C72.0334 39.3764 73.6142 36.7949 74.6985 34.1292C71.7114 27.6585 67.2767 22.5367 61.3944 18.7639C55.5121 14.9912 49.099 13.1048 42.1551 13.1048C39.8526 13.1048 37.519 13.3148 35.1544 13.7348C32.7904 14.1554 30.8386 14.6599 29.299 15.2484L26.176 12.0707C28.1749 11.2068 30.6071 10.4851 33.4723 9.90557C36.3382 9.32666 39.1291 9.03721 41.845 9.03721C49.8822 9.03721 57.2912 11.311 64.072 15.8587C70.8529 20.4057 75.8288 26.4959 79 34.1292C77.5387 37.562 75.681 40.718 73.4269 43.597C71.1728 46.476 68.536 49.0646 65.5166 51.3629ZM70.8863 70.7877L56.3831 56.4503C54.5449 57.2634 52.3227 57.9284 49.7167 58.4452C47.1113 58.9625 44.3724 59.2212 41.5 59.2212C33.283 59.2212 25.7921 56.9474 19.0274 52.3998C12.2627 47.8528 7.2536 41.7626 4 34.1292C5.28686 30.9999 7.05376 27.9793 9.30069 25.0674C11.5482 22.1561 14.1494 19.4943 17.1043 17.0819L6.12296 6.1355L8.99062 3.21228L73.5541 67.7758L70.8863 70.7877ZM19.8823 19.9495C17.6492 21.5166 15.41 23.6375 13.1649 26.3122C10.9197 28.9868 9.28007 31.5925 8.24592 34.1292C11.2701 40.6 15.775 45.7217 21.7607 49.4945C27.7463 53.2672 34.496 55.1536 42.0099 55.1536C44.2341 55.1536 46.4345 54.9825 48.6109 54.6401C50.7867 54.2978 52.3526 53.8763 53.3085 53.3757L46.953 47.0193C46.3186 47.3414 45.4717 47.6 44.4125 47.7954C43.3532 47.9908 42.3824 48.0884 41.5 48.0884C37.64 48.0884 34.3485 46.7454 31.6254 44.0594C28.9023 41.3733 27.5408 38.0633 27.5408 34.1292C27.5408 33.2331 27.6385 32.2796 27.8338 31.2687C28.0292 30.2573 28.2879 29.3931 28.6099 28.6762L19.8823 19.9495Z" fill="currentColor"></path>
</svg>