<svg class="svg-icon" height="21px" style="width: auto; height: 20px;" version="1.1" viewBox="0 0 21 21" width="21px" xmlns="http://www.w3.org/2000/svg" xmlns:xlink="http://www.w3.org/1999/xlink">
    <g fill="none" fill-rule="evenodd" stroke="none" stroke-width="1">
        <g fill="currentColor" fill-rule="nonzero" transform="translate(-1879.000000, -18.000000)">
            <g transform="translate(1879.000000, 18.000000)">
                <path d="M20.55,0.45 C19.95,-0.15 19.05,-0.15 18.45,0.45 L10.5,8.4 L2.55,0.45 C1.95,-0.15 1.05,-0.15 0.45,0.45 C-0.15,1.05 -0.15,1.95 0.45,2.55 L8.4,10.5 L0.45,18.45 C-0.15,19.05 -0.15,19.95 0.45,20.55 C0.75,20.85 1.05,21 1.5,21 C1.95,21 2.25,20.85 2.55,20.55 L10.5,12.6 L18.45,20.55 C18.75,20.85 19.2,21 19.5,21 C19.8,21 20.25,20.85 20.55,20.55 C21.15,19.95 21.15,19.05 20.55,18.45 L12.6,10.5 L20.55,2.55 C21.15,1.95 21.15,1.05 20.55,0.45 Z"></path>
            </g>
        </g>
    </g>
</svg>