<svg class="svg-icon ms-1" fill="none" height="63" style="width: auto; height: 14px;" viewBox="0 0 74 63" width="74" xmlns="http://www.w3.org/2000/svg">
<path clip-rule="evenodd" d="M69 31.5C69 48.897 54.897 63 37.5 63C20.103 63 6 48.897 6 31.5C6 14.103 20.103 0 37.5 0C54.897 0 69 14.103 69 31.5ZM65.4316 31.5C65.4316 46.9262 52.9262 59.4316 37.5 59.4316C22.0738 59.4316 9.56836 46.9262 9.56836 31.5C9.56836 16.0738 22.0738 3.56836 37.5 3.56836C52.9262 3.56836 65.4316 16.0738 65.4316 31.5Z" fill="currentColor" fill-rule="evenodd"></path>
<path d="M37.5357 20.2129C36.6792 20.232 35.8461 19.9325 35.1978 19.3725C34.5489 18.8114 34.2245 18.0182 34.2245 16.9928C34.2127 16.5605 34.2959 16.131 34.4684 15.7344C34.6408 15.3379 34.8982 14.9841 35.2224 14.6979C35.851 14.1114 36.6809 13.789 37.5406 13.7972C38.3674 13.789 39.1695 14.079 39.7997 14.6143C40.456 15.1581 40.7841 15.951 40.7841 16.9928C40.7841 18.0018 40.4638 18.7909 39.8231 19.3602C39.1962 19.9239 38.3786 20.2286 37.5357 20.2129ZM40.7804 26.9903V45.9519C40.7804 47.2644 40.4679 48.2578 39.8428 48.9321C39.5422 49.2614 39.1741 49.5221 38.7637 49.6964C38.3532 49.8707 37.9101 49.9546 37.4643 49.9423C36.5021 49.9423 35.7207 49.5977 35.1203 48.9087C34.5198 48.2196 34.2196 47.2352 34.2196 45.9555V27.1823C34.2196 25.8854 34.5198 24.9084 35.1203 24.2513C35.7207 23.5942 36.5021 23.2661 37.4643 23.2669C38.4249 23.2669 39.2177 23.5951 39.8428 24.2513C40.4679 24.9076 40.7804 25.8206 40.7804 26.9903Z" fill="currentColor"></path>
</svg>