<svg fill="none" height="40" style="height: 30px; width: 100%;" viewBox="0 0 339 40" width="339" xmlns="http://www.w3.org/2000/svg">
<path d="M84.0639 27.6662V11.0945C84.0639 8.61588 84.425 7.11295 86.3596 6.35969V6.28436H80.3998L70.9775 27.5873L60.871 6.28436H54.5083V6.35969C56.4391 7.11295 56.804 8.6123 56.804 11.0945V27.2107C56.804 30.0659 55.717 31.7589 53.7861 32.5086V32.5839H60.9508V32.5086C59.0199 31.7589 57.9291 30.0659 57.9291 27.2107V8.46523L69.5636 33H69.7232L80.5519 8.46523V27.6626C80.5519 30.1412 79.7879 31.7589 77.8533 32.5086V32.5839H86.7511V32.5086C84.8165 31.7589 84.0525 30.1412 84.0525 27.6626" fill="currentColor"></path>
<path d="M99.4271 22.9493L104.862 11.1985L110.579 22.9493H99.4271ZM117.143 28.4338L106.231 6.26999H106.109L96.0025 27.5837C94.8356 30.03 93.7866 31.7733 92.2168 32.5122V32.5875H98.5795V32.5122C97.4506 32.0674 96.6486 31.1419 96.6486 30.03C96.6486 29.1046 96.9717 28.2509 97.3328 27.4725L98.9823 23.9142H111.062L113.194 28.3262C113.639 29.2158 113.878 29.9583 113.878 30.5501C113.878 31.4397 113.194 32.071 112.027 32.5158V32.5911H120.4V32.5158C118.831 31.7733 118.348 30.8478 117.139 28.4374" fill="currentColor"></path>
<path d="M138.652 31.6083H132.13V11.0945C132.13 8.61588 132.495 7.11295 134.426 6.35969V6.28436H126.212V6.35969C128.143 7.11295 128.508 8.6123 128.508 11.0945V27.7738C128.508 30.2524 128.147 31.7553 126.212 32.5086V32.5839H146.702L147.991 25.2952H147.911C145.779 29.2768 143.16 31.6047 138.652 31.6047" fill="currentColor"></path>
<path d="M167.049 31.6083H160.526V11.0945C160.526 8.61588 160.891 7.11295 162.822 6.35969V6.28436H154.608V6.35969C156.539 7.11295 156.904 8.6123 156.904 11.0945V27.7738C156.904 30.2524 156.543 31.7553 154.608 32.5086V32.5839H175.099L176.387 25.2952H176.308C174.175 29.2768 171.556 31.6047 167.049 31.6047" fill="currentColor"></path>
<path d="M231.967 31.7446C225.818 31.7446 222.606 26.443 222.606 19.4269C222.606 12.4109 225.818 7.10934 231.967 7.10934C238.117 7.10934 241.329 12.4073 241.329 19.4269C241.329 26.4466 238.117 31.7446 231.967 31.7446ZM231.967 6.26999C224.681 6.26999 218.531 11.7544 218.531 19.4269C218.531 27.0994 224.681 32.5839 231.967 32.5839C239.254 32.5839 245.403 27.0994 245.403 19.4269C245.403 11.7544 239.254 6.26999 231.967 6.26999Z" fill="currentColor"></path>
<path d="M258.832 19.2476V7.26359H264.427C268.935 7.26359 271.474 9.21848 271.474 13.3865C271.474 17.82 268.577 19.2476 264.427 19.2476H258.832ZM274.412 27.8886L273.283 24.7321C272.317 22.0634 270.303 20.1874 266.198 19.8861C270.706 19.7354 275.457 18.0065 275.457 13.2C275.457 8.09217 270.748 6.28793 264.948 6.28793H252.91V6.36326C254.841 7.11652 255.206 8.61587 255.206 11.098V27.7774C255.206 30.256 254.845 31.7589 252.91 32.5122V32.5875H261.124V32.5122C259.193 31.7625 258.828 30.2596 258.828 27.7774V20.2268H263.701C267.201 20.2268 268.452 22.4795 269.459 25.1482L270.706 28.5307C271.39 30.3349 272.154 31.949 273.002 32.5875H279.163V32.5122C276.707 31.6872 275.461 30.8227 274.412 27.8922" fill="currentColor"></path>
<path d="M296.939 31.6083H290.417V11.0945C290.417 8.61588 290.778 7.11295 292.713 6.35969V6.28436H284.499V6.35969C286.43 7.11295 286.795 8.6123 286.795 11.0945V27.7738C286.795 30.2524 286.434 31.7553 284.499 32.5086V32.5839H304.99L306.278 25.2952H306.198C304.066 29.2768 301.447 31.6047 296.939 31.6047" fill="currentColor"></path>
<path d="M322.698 31.6083H318.593V7.26359H322.098C329.384 7.26359 335.021 11.2092 335.021 19.1364C335.021 28.2652 329.342 31.6083 322.702 31.6083M322.455 6.28793H312.671V6.36326C314.602 7.11652 314.967 8.61587 314.967 11.098V27.7774C314.967 30.256 314.606 31.7589 312.671 32.5122V32.5875H323.42C331.873 32.5875 339 28.2652 339 19.1364C339 10.6461 332.155 6.28793 322.455 6.28793Z" fill="currentColor"></path>
<path d="M211.755 3.12424L211.378 0L211.002 3.12424C210.819 4.63435 209.558 5.8288 207.954 6.00098L204.643 6.35609L207.954 6.7112C209.554 6.88337 210.819 8.07424 211.002 9.58794L211.378 12.7122L211.755 9.58794C211.937 8.07783 213.199 6.88337 214.803 6.7112L218.113 6.35609L214.803 6.00098C213.203 5.8288 211.937 4.63794 211.755 3.12424Z" fill="currentColor"></path>
<path d="M198.212 8.3325C198.212 7.44293 198.934 6.81521 199.903 6.37043V6.2951H192.096V6.37043C193.423 7.11293 194.027 8.03837 195.034 10.4416L196.281 13.6268L196.885 15.2195L203.605 32.5839H203.727L205.456 28.3621L198.778 10.5528C198.417 9.66326 198.216 8.92434 198.216 8.3325" fill="currentColor"></path>
<path d="M184.529 10.5564C184.168 9.66686 183.966 8.92795 183.966 8.3361C183.966 7.44653 184.692 6.81882 185.658 6.37403V6.29871H177.729V6.37403C179.056 7.11653 179.66 8.04197 180.667 10.4452L189.801 32.5875H189.922L191.595 28.4159L190.086 24.3232L184.529 10.5564Z" fill="currentColor"></path>
<path d="M24.6601 28.4051L13.8618 6.26999H13.744L3.74386 27.555C2.58839 29.9977 1.55076 31.7374 0 32.4799V32.5552H6.29425V32.4799C5.18059 32.0351 4.38241 31.1097 4.38241 29.9977C4.38241 29.0723 4.70168 28.2222 5.05896 27.4438L6.5185 24.2693L7.13424 22.9242L12.5125 11.1877L17.5334 21.6042L18.6433 23.8855H18.6471L18.8827 24.3769L20.7604 28.2903C21.1975 29.1799 21.4369 29.9188 21.4369 30.5106C21.4369 31.4002 20.7604 32.0279 19.6049 32.4727V32.548H27.8908V32.4727C26.3362 31.7302 25.8573 30.8048 24.6639 28.4015" fill="currentColor"></path>
<path d="M38.1911 17.5869C34.7817 16.7045 31.8094 15.5997 31.8094 12.2531C31.8094 8.90642 34.546 7.10218 37.4765 7.10218C41.7563 7.10218 44.5727 10.0829 46.3553 13.7237H46.4314L46.4504 13.7596L46.4162 13.6233C46.3287 13.1928 45.9639 11.4496 45.4583 9.93947C45.4583 9.93588 45.4583 9.93229 45.4583 9.92871L44.911 7.81957C44.892 7.75142 44.835 7.69762 44.7628 7.6761L40.274 6.55697C40.274 6.55697 38.5788 6.25208 37.4841 6.25208C32.8052 6.25208 28.8447 9.01044 28.8447 13.3542C28.8447 18.3939 33.1245 19.6458 37.2066 20.7506C41.0113 21.78 44.6602 22.7019 44.6602 26.3821C44.6602 30.0623 41.8475 31.9024 38.3583 31.9024C38.0314 31.9024 37.7502 31.9096 37.5107 31.9203L37.2295 32.5947C37.5753 32.609 37.9592 32.6198 38.2633 32.6198C43.0182 32.6198 47.8339 30.5429 47.8339 25.4638C47.8339 19.7964 42.6799 18.7311 38.2025 17.5904" fill="currentColor"></path>
</svg>