<svg class="svg-icon" fill="none" height="62" style="width: auto; height: 16px;" viewBox="0 0 66 62" width="66" xmlns="http://www.w3.org/2000/svg">
<path d="M11.3877 61.9988C6.21177 61.9988 2 57.7882 2 52.6111V9.38769C2 4.21055 6.21055 0 11.3877 0H54.6123C59.7882 0 64 4.21055 64 9.38769V52.6123C64 57.7882 59.7895 62 54.6123 62H11.3877V61.9988ZM11.3877 3.51855C8.15228 3.51855 5.51977 6.15106 5.51977 9.38647V52.6111C5.51977 55.8465 8.15228 58.479 11.3877 58.479H54.6123C57.8477 58.479 60.4802 55.8465 60.4802 52.6111V9.38769C60.4802 6.15228 57.8477 3.51977 54.6123 3.51977H11.3877V3.51855ZM24.0999 51.8288C23.1296 51.8288 22.34 51.0392 22.34 50.0689V31.4876H16.4721C15.7715 31.4876 15.1381 31.0726 14.8599 30.4307C14.5816 29.7899 14.7085 29.0455 15.1833 28.5316L31.7106 10.7326C32.0304 10.3872 32.5002 10.1895 32.9994 10.1895C33.4986 10.1895 33.9684 10.3872 34.2882 10.7326L50.8143 28.5304C51.2903 29.0406 51.4172 29.7875 51.1377 30.4294C50.857 31.0714 50.2248 31.4863 49.5255 31.4863H43.6576V50.0677C43.6576 51.0379 42.8679 51.8276 41.8977 51.8276H24.0999V51.8288ZM40.139 48.309V29.7277C40.139 28.7574 40.9286 27.9678 41.8989 27.9678H45.4931L32.9994 14.5148L20.5057 27.9678H24.0999C25.0701 27.9678 25.8598 28.7574 25.8598 29.7277V48.309H40.139Z" fill="currentColor"></path>
</svg>