<svg width="40" height="40" viewBox="0 0 40 40" fill="none" xmlns="http://www.w3.org/2000/svg">
<g filter="url(#filter0_i_1968_4261)">
<circle cx="20" cy="20" r="20" fill="white"/>
</g>
<path d="M28.3209 11H12.5362C11.3336 11.0014 10.1805 11.487 9.33012 12.3502C8.4797 13.2135 8.00135 14.384 8 15.6049V24.3951C8.00135 25.616 8.4797 26.7865 9.33012 27.6497C10.1805 28.513 11.3336 28.9986 12.5362 29H28.3209C29.5236 28.9986 30.6766 28.513 31.527 27.6497C32.3774 26.7865 32.8558 25.616 32.8571 24.3951V15.6049C32.8558 14.384 32.3774 13.2135 31.527 12.3503C30.6766 11.487 29.5236 11.0014 28.3209 11ZM24.3593 20.1638L18.6181 23.5286C18.5528 23.5778 18.473 23.6034 18.3916 23.6011C18.3476 23.5309 18.3289 23.4474 18.3387 23.3648V16.6352C18.3294 16.5531 18.3475 16.4702 18.3901 16.3998C18.3965 16.3978 18.4032 16.397 18.4099 16.3973C18.4843 16.4041 18.5559 16.4295 18.6182 16.4714L24.3593 19.8362C24.497 19.9169 24.5325 19.9866 24.5345 19.9991C24.5325 20.0134 24.4971 20.0831 24.3593 20.1638Z" fill="#0D2937"/>
<defs>
<filter id="filter0_i_1968_4261" x="0" y="0" width="40" height="45" filterUnits="userSpaceOnUse" color-interpolation-filters="sRGB">
<feFlood flood-opacity="0" result="BackgroundImageFix"/>
<feBlend mode="normal" in="SourceGraphic" in2="BackgroundImageFix" result="shape"/>
<feColorMatrix in="SourceAlpha" type="matrix" values="0 0 0 0 0 0 0 0 0 0 0 0 0 0 0 0 0 0 127 0" result="hardAlpha"/>
<feOffset dy="5"/>
<feGaussianBlur stdDeviation="5"/>
<feComposite in2="hardAlpha" operator="arithmetic" k2="-1" k3="1"/>
<feColorMatrix type="matrix" values="0 0 0 0 0 0 0 0 0 0 0 0 0 0 0 0 0 0 0.25 0"/>
<feBlend mode="normal" in2="shape" result="effect1_innerShadow_1968_4261"/>
</filter>
</defs>
</svg>
