<svg width="110" height="28" viewBox="0 0 110 28" fill="none" xmlns="http://www.w3.org/2000/svg">
<path d="M32.6412 0.185893C26.2907 0.231295 21.0962 7.28921 21.0962 13.4454C21.0962 19.9236 24.904 27.8261 32.6412 27.8005C40.3784 27.7748 44.3942 19.2671 44.3942 13.4454C44.3942 7.01472 38.9917 0.140492 32.6412 0.185893ZM32.6412 0.427357C37.9563 0.427357 39.3902 6.29735 39.3902 13.4454C39.3902 22.877 37.6605 27.5301 32.6412 27.5212C27.6218 27.5123 25.989 23.704 25.989 13.4454C25.989 7.01912 27.3261 0.427357 32.6412 0.427357Z" fill="#0D2937"/>
<path d="M46.4903 13.6194C46.4619 6.61464 52.0682 0.409813 56.8141 0.101963C58.5283 -0.0194832 60.7319 0.76552 62.0183 1.32473C62.9525 1.73079 64.8594 1.14303 65.1981 0.0646973H65.3827V9.60644H65.1981C65.1981 9.19967 63.4309 0.341858 56.8141 0.341858C51.9266 0.341858 51.4545 8.93557 51.4545 13.6194C51.4545 18.3031 51.5969 27.5754 57.3003 27.5754C60.0632 27.5754 62.1083 26.3667 62.6385 23.9213V16.4858H60.3194V16.1691H69.3086V16.4858H67.0914V27.3564H66.9109C66.9109 27.3564 66.5505 25.788 64.7214 25.7932C62.3837 25.7999 60.179 27.8308 57.4916 27.8061C50.3842 27.7407 46.5188 20.6241 46.4903 13.6194Z" fill="#0D2937"/>
<path d="M3.66128 1.1259H0.862305V0.811279H10.6673V1.1259H8.20744L15.2133 20.1513C17.4041 13.4067 19.1013 8.42115 21.3852 1.1259H18.9521V0.811279H24.1292V1.1259H21.7716L13.2566 27.67L3.66128 1.1259Z" fill="#0D2937"/>
<path d="M70.6822 21.1712L70.6378 1.09528H67.9736V0.794556H77.7891V1.09528H75.1265L75.1856 23.1075C75.775 25.628 76.823 27.5406 80.4034 27.5691C83.9838 27.5975 86.4178 25.4511 87.3224 22.5177V1.09528H84.2747L84.2746 0.803414H109.22L109.272 10.4407H109.032C108.569 4.21825 106.168 1.86663 101.969 1.18058C100.524 0.944502 99.0085 1.11951 97.0922 1.10461V13.4043C98.7609 13.5332 100.538 13.4277 101.736 12.3989C102.826 11.4634 103.133 9.30184 103.214 8.42371H103.424V19.1329H103.196C103.13 19.1329 103.043 16.4455 101.736 15.1705C100.421 13.8871 98.7469 13.5716 97.0922 13.8773V27.0161C99.4295 27.0161 101.293 27.214 102.911 26.7705C107.829 25.4221 109.56 21.2728 109.547 17.1112H109.821V27.3271H90.2543V27.0161H92.4667V1.09528H87.6867V22.5177C87.1449 24.5674 85.1648 27.9585 80.0902 27.9353C75.3719 27.9138 70.6923 25.7867 70.6822 21.1712Z" fill="#0D2937"/>
</svg>
