<svg width="49" height="54" viewBox="0 0 49 54" fill="none" xmlns="http://www.w3.org/2000/svg">
<path d="M10.8937 22.4447L10.8924 22.4448C10.892 22.4428 10.8924 22.442 10.8937 22.4447ZM48.5972 29.4532C48.8308 54.7203 12.8459 62.5714 2.39766 39.6409C-1.85211 31.5624 -0.139273 21.6986 5.07383 14.6837C5.21654 14.4917 6.4225 15.2233 6.5704 15.0356C8.64853 12.3988 11.5 10.5 14.018 8.73297C14.1375 8.65766 13.9492 8.1444 14.07 8.07182C17.0689 6.26983 20.4949 5.32039 24.4485 5.81722C24.1478 5.84474 23.8525 5.86366 23.631 5.90418C22.3413 8.69924 22.6878 11.8277 22.1566 14.7946C21.9893 16.8694 27.4521 14.1606 28.9014 18.6322C29.0705 19.1416 29.0993 19.7879 29.478 20.1774C30.3809 19.8673 30.2695 18.685 30.6184 17.8665C31.3449 16.1818 33.6548 15.5356 35.3379 15.3667C38.4327 15.0193 40.634 18.5625 38.7597 21.143C37.5787 22.7582 36.7528 24.6714 35.2062 26.009C33.8906 27.2348 31.5491 26.4653 30.8479 27.9463C29.9879 30.9868 27.3853 29.7972 26.2495 31.2205C26.1063 31.4265 26.0217 31.5898 26.0801 31.8198C26.1924 33.8417 22.4991 33.7556 21.9083 35.4224C22.7451 37.0417 24.9995 37.5557 25.6543 39.3824C26.4474 41.2171 27.6445 40.4083 29.12 40.8996C31.0557 41.8043 30.9288 44.3662 32.0283 45.8978C32.8586 47.1322 33.8564 48.2634 34.9271 49.3044C36.7764 48.3514 38.4983 47.149 40.0192 45.7262C39.708 44.8654 38.7848 43.2829 38.5184 42.442C38.0235 39.7735 41.4965 38.7642 42.2528 36.5838C43.0122 34.4642 42.0186 32.208 41.7476 30.0865C41.3016 29.5059 40.6142 29.4055 39.9503 29.1505C38.3136 28.7035 37.3798 27.0365 38.1515 25.4428C39.7607 21.7862 42.4297 22.0242 45.7978 21.1055C43.9844 16.0935 40.4055 12.0269 35.9523 9.3734C35.8861 9.33396 35.8187 9.29303 35.7502 9.25077C34.1447 8.40903 32.7206 7.71386 31.0669 7.17602C30.8622 7.10947 30.6034 7.00275 30.3969 6.94161C28.4751 6.37255 26.4754 6.03921 24.4485 5.96816C26.247 5.55824 28.2381 5.62899 30.2834 6.1027C30.3691 6.12256 30.311 6.97748 30.3969 6.99875C32.4218 7.5 33.9425 8.33933 35.7502 9.25077C35.8956 9.32961 36.7624 8.84814 36.9057 8.93771C43.6387 13.1484 49.2951 20.9736 48.5972 29.4532ZM29.4842 20.1826C29.5182 20.2072 29.5027 20.1881 29.4862 20.183L29.4842 20.1826ZM3.2307 21.0569C10.0408 16.6683 6.88399 21.921 10.8924 22.4448C10.9332 22.4217 10.9874 22.4029 11.0164 22.3715C11.0114 21.0578 11.8201 20.1045 13.1655 20.1318C13.4936 20.1067 13.6899 20.1195 13.8756 19.8695C14.5057 18.6998 14.9057 16.5601 14.5494 15.2757C11.9458 15.3413 7.01531 21.373 6.5704 15.0344C6.4345 15.213 6.3008 15.3936 6.16943 15.5761C4.95622 17.261 3.94212 19.1054 3.2307 21.0569ZM11.0141 22.3749C11.014 22.377 11.0149 22.3784 11.0141 22.3749ZM10.2112 44.3509C11.3464 38.7016 14.6087 42.7797 16.3513 40.9111C15.6744 39.0013 13.7691 37.7702 12.6437 36.1304C11.6829 34.8896 12.6869 33.3717 12.2048 32.0387C10.9752 28.5019 8.90813 26.4048 5.02031 27.7727L5.07523 27.7466C3.95808 28.3143 2.8291 28.8259 1.72554 29.3914C1.77013 35.8983 4.74236 42.3023 9.74511 46.4745C9.78227 45.7515 10.0702 45.0637 10.2112 44.3509ZM12.4366 42.718C12.4104 42.659 12.3728 42.5924 12.4375 42.7204L12.4366 42.718ZM33.5122 49.9724C32.3444 48.779 31.1769 47.5012 30.3666 46.0238C29.6525 44.9663 29.5513 42.393 28.1251 42.2693C26.6202 42.4912 24.9848 41.737 24.3224 40.3212C24.0962 39.7601 23.8349 39.3477 23.3654 38.9872C18.6285 35.6295 19.6712 34.0308 24.4396 31.8121C24.3606 30.6681 25.2354 29.6047 26.2282 29.1603C27.0691 28.788 28.0488 28.8557 28.7702 28.2876C29.3945 27.5726 29.4591 26.4218 30.4267 25.9215C31.6147 25.0771 33.1757 25.5126 34.2796 24.602C35.1844 23.7688 35.7547 22.5512 36.4683 21.5276C39.839 17.6121 35.756 15.7018 32.4 18.1058C31.6995 18.9978 31.9146 20.4783 30.8377 21.2219C29.6998 22.1981 28.2685 21.7522 27.8011 20.3923C27.3047 18.6613 27.1514 17.5085 25.0699 17.1557C19.8968 17.1516 20.9065 15.0663 21.6825 11.0804L21.6782 11.1342C21.8041 9.24051 22.2713 7.3319 23.5908 5.91161C20.339 6.23539 17.1102 7.14647 14.196 8.64077C14.1366 8.67126 14.0772 8.702 14.018 8.73297C11.5674 10.2785 8.50172 12.6249 6.60685 14.9895C6.52757 16.1231 7.42898 15.5956 7.58967 16.212L7.56436 16.1177C8.99892 18.9119 16.227 8.97104 16.2003 16.8346C16.1066 18.6964 15.7501 21.6211 13.3892 21.7554C13.1418 21.8014 12.8874 21.7262 12.7611 21.9465C12.6751 24.8096 9.81756 24.466 8.15137 23.0254C7.4875 22.4738 7.2164 21.5871 6.84614 20.8746C5.50585 21.1168 4.2264 21.8817 2.85406 22.1246C2.14293 24.257 1.79207 26.5195 1.73367 28.7639C4.64623 26.2036 8.66164 24.6183 11.6531 28.0121C16.1505 34.0367 12.0175 33.801 15.0348 36.4284C19.4745 40.4024 19.0778 44.003 12.4921 42.8313C12.5167 42.8811 12.5103 42.8682 12.4921 42.8313C12.4872 42.8319 12.4833 42.8333 12.4833 42.8333C12.4806 42.8337 12.4779 42.8339 12.4748 42.833L12.4745 42.8319C12.0377 43.0733 11.8573 43.6151 11.6567 44.0645C11.2432 45.0326 10.8029 46 10.2839 46.9175C16.697 52.156 25.9592 53.3272 33.5122 49.9724ZM16.3724 40.8778L16.3781 40.8695C16.3723 40.8754 16.3665 40.8824 16.3644 40.8905C16.3672 40.8863 16.3697 40.882 16.3724 40.8778ZM47.2456 29.1194C47.2308 26.4508 46.7798 23.7353 45.8438 21.2308C45.696 21.287 45.5473 21.3421 45.3951 21.3969C45.7679 21.3157 45.5307 21.3918 45.3825 21.5192C45.5097 21.5229 45.7422 21.4289 45.8961 21.4083C44.0883 22.3642 41.5081 22.2787 40.0592 23.929C39.2612 24.9088 38.0468 26.8847 39.5109 27.7855C40.5574 28.3784 42.0814 28.3988 42.7868 29.54C44.1968 34.2852 44.5942 37.4625 40.4276 40.7274C38.9959 41.9787 40.6359 43.3172 41.0627 44.6885C45.0217 40.5353 47.2728 34.8573 47.2456 29.1194Z" fill="#0D2937"/>
<path d="M29.2546 4.61593C29.1705 2.09475 31.5853 -0.776807 34.0404 0.19312C31.7249 0.62002 29.8556 2.78357 30.3699 5.37079C30.9314 7.5459 32.8046 9.02564 34.0198 10.7947C35.2807 8.97186 37.2728 7.55538 37.7836 5.25913C38.2499 2.7526 36.3076 0.547663 34.0404 0.293218C34.1268 0.257463 34.2277 0.263782 34.3211 0.25569C34.2247 0.22664 34.3029 0.22402 34.3374 0.181715C34.3104 0.152664 34.2499 0.159677 34.2141 0.14072C37.1333 -0.265451 39.3927 3.0982 38.4857 5.99319C37.7462 8.41327 35.6817 9.95866 34.4219 12.0394C34.0181 12.5512 33.631 12.0984 33.3984 11.6767C32.925 11.0218 32.4099 10.4099 31.8716 9.80593C30.6426 8.35825 29.2244 6.69934 29.2546 4.61593ZM32.9069 4.61878C32.9862 4.086 33.2431 3.58366 33.7354 3.39788C33.7722 3.30972 33.8634 3.32583 33.9119 3.25825C33.9266 3.2171 33.9595 3.23536 33.9796 3.21356C33.9931 3.17649 34.0164 3.16763 34.0404 3.15052C33.8102 2.73657 33.3098 2.83574 32.9321 2.9467C32.358 3.19645 31.9853 3.82817 31.8833 4.46166C31.4772 7.47771 35.6562 8.09093 36.0772 5.09616C36.159 4.23673 35.7174 3.20092 34.8499 3.0411C34.755 2.99733 33.9774 2.9709 34.1419 3.13218C34.1359 3.16069 34.1002 3.18736 34.1336 3.20693C34.1001 3.22288 34.0662 3.21487 34.0403 3.25062C34.1176 3.38724 34.2613 3.36189 34.3786 3.41475C34.3882 3.41899 34.3977 3.42308 34.4004 3.44242C34.4174 3.49613 34.4875 3.47208 34.5291 3.49258C35.2196 3.89444 35.5307 5.02118 34.8819 5.64334C34.0623 6.43319 32.7561 5.82535 32.9069 4.61878Z" fill="#0D2937"/>
<path d="M1.17242 8.03622C1.05472 4.73929 4.43549 0.984175 7.87259 2.25254C4.63082 2.8108 2.01391 5.64006 2.73394 9.02334C3.52003 11.8677 6.14242 13.8028 7.84377 16.1162C9.60895 13.7324 12.398 11.8801 13.1131 8.87733C13.7659 5.59955 11.0467 2.71617 7.87259 2.38344C7.99354 2.33668 8.13479 2.34495 8.26558 2.33436C8.13063 2.29637 8.24011 2.29295 8.28831 2.23763C8.25057 2.19964 8.16594 2.20881 8.11571 2.18402C12.2026 1.65287 15.3659 6.05149 14.096 9.83724C13.0607 13.002 10.1704 15.0229 8.40663 17.7438C7.84134 18.4131 7.29939 17.821 6.97377 17.2695C6.31107 16.4132 5.58982 15.613 4.8362 14.8231C3.11567 12.93 1.13011 10.7607 1.17242 8.03622ZM6.2857 8.03995C6.39671 7.34324 6.75642 6.68633 7.4456 6.44338C7.49705 6.3281 7.6248 6.34916 7.69268 6.26079C7.71328 6.20698 7.75935 6.23086 7.78746 6.20234C7.80633 6.15387 7.839 6.14228 7.87259 6.11991C7.55032 5.57859 6.84977 5.70828 6.32091 5.85338C5.51717 6.17997 4.99541 7.00607 4.85264 7.83448C4.2841 11.7785 10.1348 12.5804 10.7241 8.6642C10.8387 7.54034 10.2204 6.18582 9.00591 5.97682C8.87308 5.91959 7.78431 5.88502 8.01465 6.09593C8.00623 6.13321 7.9563 6.16808 8.00308 6.19368C7.9562 6.21453 7.90871 6.20406 7.87249 6.25081C7.98066 6.42947 8.18187 6.39632 8.34605 6.46545C8.35954 6.47099 8.37274 6.47633 8.37659 6.50162C8.40034 6.57186 8.49846 6.54042 8.5567 6.56722C9.52341 7.09273 9.95902 8.56616 9.05066 9.37976C7.90323 10.4126 6.07454 9.61777 6.2857 8.03995Z" fill="#0D2937"/>
<path d="M5.66339 34.9236C5.61294 33.3721 7.06185 31.605 8.53489 32.2019C7.14556 32.4646 6.02403 33.796 6.33261 35.3881C6.66951 36.7266 7.79339 37.6372 8.52254 38.7259C9.27904 37.6042 10.4743 36.7325 10.7808 35.3194C11.0606 33.7769 9.89521 32.42 8.53489 32.2634C8.58673 32.2414 8.64726 32.2453 8.70332 32.2404C8.64548 32.2225 8.6924 32.2209 8.71306 32.1948C8.69688 32.177 8.66061 32.1813 8.63909 32.1696C10.3906 31.9197 11.7463 33.9896 11.202 35.7711C10.7583 37.2604 9.51966 38.2114 8.76376 39.4919C8.5215 39.8068 8.28923 39.5282 8.14968 39.2686C7.86567 38.8657 7.55656 38.4891 7.23358 38.1174C6.49621 37.2265 5.64526 36.2057 5.66339 34.9236ZM7.85479 34.9253C7.90237 34.5975 8.05653 34.2883 8.3519 34.174C8.37394 34.1198 8.42869 34.1297 8.45779 34.0881C8.46662 34.0628 8.48636 34.074 8.4984 34.0606C8.50649 34.0378 8.5205 34.0323 8.53489 34.0218C8.39678 33.767 8.09654 33.8281 7.86988 33.8964C7.52542 34.0501 7.30181 34.4388 7.24063 34.8286C6.99697 36.6847 9.50439 37.062 9.75697 35.2191C9.80606 34.6902 9.5411 34.0528 9.0206 33.9545C8.96367 33.9275 8.49706 33.9113 8.59577 34.0105C8.59216 34.0281 8.57077 34.0445 8.59082 34.0565C8.57072 34.0663 8.55037 34.0614 8.53485 34.0834C8.5812 34.1675 8.66744 34.1519 8.7378 34.1844C8.74359 34.187 8.74924 34.1895 8.75089 34.2014C8.76107 34.2345 8.80312 34.2197 8.82808 34.2323C9.24238 34.4796 9.42907 35.173 9.03978 35.5558C8.54802 36.0419 7.7643 35.6678 7.85479 34.9253Z" fill="#0D2937"/>
</svg>
