<svg xmlns="http://www.w3.org/2000/svg" width="51" height="50" viewBox="0 0 51 50" fill="none">
<path d="M50.8046 42.0185C50.7067 34.4129 50.8375 26.785 50.6072 19.1846C50.2665 16.6033 47.9766 14.4414 45.3409 14.2473C45.0025 14.2007 34.7026 14.5035 37.5196 14.6194C37.3322 14.7001 37.019 14.6985 37.4657 14.7357C37.2112 14.7459 36.9651 14.7568 36.715 14.7661C39.207 7.72332 33.6483 -0.0907187 26.0152 0.331658C26.1169 0.360813 26.2859 0.359379 26.3638 0.40538C26.2547 0.476832 26.0456 0.458909 26.323 0.51901C26.0614 0.521519 25.7766 0.50957 25.5276 0.563219C31.5478 0.907573 36.6701 6.23167 35.8585 12.2831C35.4068 15.8034 32.9333 18.6123 31.1659 21.5901C29.3723 24.4938 27.2996 27.7699 25.5653 30.7056C25.427 30.8121 25.2597 30.2763 25.1714 30.2136C22.1619 24.7163 17.9323 19.4935 15.5684 13.7343C13.7121 7.28326 18.9684 0.953933 25.5276 0.407889C17.8627 -1.28795 11.5694 7.63215 13.9847 14.5116C7.93931 13.695 -0.265264 12.5793 0.123778 21.1042C0.0624968 27.9619 0.0355576 34.8718 0.0150498 41.7412C-0.0714712 43.5076 0.193795 45.3242 1.36869 46.7317C3.4339 49.3358 6.02444 49.2533 9.06736 49.1673C19.0163 49.0969 29.0297 49.0723 38.9756 49.0041C44.6813 49.1463 50.9199 49.6101 50.8046 42.0185ZM49.4066 22.0562C49.3973 28.4144 49.3543 34.7735 49.3432 41.1318C47.0382 38.4241 43.8912 36.5266 41.118 34.3155C38.5743 32.5819 36.3648 30.3254 33.5437 29.0225C38.8853 26.4078 44.3785 24.0266 49.4282 20.9257C49.3989 21.2868 49.3976 21.6655 49.4066 22.0562ZM28.4648 29.1275C30.9702 24.399 34.6042 19.8187 36.6802 14.8727C41.3131 15.4078 49.6164 13.262 49.468 20.2884C41.884 22.3677 35.0808 26.6012 27.9968 29.8945C28.15 29.6373 28.3197 29.3906 28.4648 29.1275ZM1.61927 19.8115C1.88611 13.4188 9.67325 15.3696 14.0588 14.7446C16.7 20.7206 20.905 26.0945 24.1763 31.7428C20.4201 33.6231 16.5777 35.3438 13.1027 37.7154C9.32267 34.6439 5.94653 31.0367 1.7735 28.4722C1.74025 25.5762 1.69924 22.7123 1.61927 19.8115ZM20.2079 47.4375C-0.829169 47.3097 1.88162 50.1615 1.77836 29.3777C8.27835 35.607 14.8461 41.9394 22.0041 47.4423C21.407 47.4484 20.8091 47.4519 20.2079 47.4375ZM49.3415 42.8091C49.3676 44.6536 48.1919 46.4201 46.4539 47.1168C39.0898 48.0291 30.7875 47.0895 23.2857 47.4314C20.641 43.7966 16.9022 41.0862 13.5598 38.1005C20.0129 35.3315 26.5034 32.4242 32.8474 29.3358C37.9762 33.9459 43.419 38.7407 49.3434 42.3658C49.3438 42.4654 49.3422 42.7063 49.3415 42.8091ZM21.9509 11.6534C21.9947 14.8184 25.7008 16.2608 28.0497 14.1824C30.5457 11.7729 28.5993 8.1954 25.5273 7.65497C25.6039 7.59917 25.6976 7.6153 25.785 7.59236C25.6955 7.56141 25.7802 7.52856 25.8028 7.4767C25.7787 7.43369 25.7219 7.45089 25.689 7.41947C30.9571 6.44161 32.3284 14.2437 27.8402 16.2258C23.932 18.3121 19.1546 14.6752 20.3957 10.4166C20.8223 8.39159 23.5255 6.12486 25.5272 7.49988C23.5679 8.18883 22.0115 9.43517 21.9509 11.6534Z" fill="#0D2937"/>
</svg>