<svg width="198" height="26" viewBox="0 0 198 26" fill="none" xmlns="http://www.w3.org/2000/svg">
<path d="M15.9499 2.68857C15.9499 0.610808 13.9011 -0.0479937 12.1675 0.00268336V0.205392C13.2182 0.306746 14.0062 0.712162 14.0062 1.37096C14.0062 1.82706 13.6384 2.43518 12.6403 2.43518C11.7998 2.43518 10.4864 1.97909 9.17311 1.57367C7.75471 1.11758 6.44138 0.661485 5.33818 0.661485C3.18431 0.661485 1.50325 2.23247 1.50325 4.1582C1.50325 5.72919 2.76405 6.23596 3.23685 6.43867L3.28938 6.33731C2.97418 6.1346 2.76405 5.88122 2.76405 5.22242C2.76405 4.66497 3.18431 3.90481 4.28751 3.90481C5.28565 3.90481 6.59898 4.36091 8.38511 4.817C9.90858 5.22242 11.5371 5.62783 12.4302 5.72919V9.12455L10.7491 10.4928L12.4302 11.9118V16.5741C11.5371 17.0808 10.539 17.2329 9.64591 17.2329C8.01738 17.2329 6.54645 16.7768 5.33818 15.5099L9.90858 13.3814V5.9319L4.34005 8.36439C4.91791 6.94544 6.02111 5.88122 7.22938 5.17174L7.17685 5.07039C3.86725 5.9319 0.820312 8.87116 0.820312 12.5199C0.820312 16.8781 4.44511 20.0708 8.59525 20.0708C13.1131 20.0708 15.7398 16.6754 15.6872 13.0774H15.5822C14.8992 14.4456 13.8486 15.7632 12.5878 16.4727V11.9118L14.3739 10.5435L12.5878 9.17523V5.77986C14.2688 5.72919 15.9499 4.66497 15.9499 2.68857ZM6.54645 14.6483L5.23311 15.3071C4.44511 14.2936 3.91978 12.9253 3.91978 11.101C3.91978 10.3408 4.02485 9.32726 4.28751 8.61778L6.59898 7.60424L6.54645 14.6483ZM27.5072 8.66846L26.6142 9.32726L23.9875 7.04679L20.888 9.32726V0.509454L16.6854 3.29669C17.1582 3.44872 17.736 3.70211 17.736 4.76632V17.0302L16.3176 18.0944L16.4752 18.2464L17.2107 17.7396L19.6798 19.9188L23.0419 17.7903L22.8843 17.5876L22.0438 18.1451L20.888 17.0302V9.63132L21.676 9.07387L23.5147 10.5942V17.0302C23.5147 21.0843 22.5691 21.9458 20.6779 22.6046V22.706C23.8299 22.858 26.6667 21.7938 26.6667 16.5741V9.58064L27.6123 8.82049L27.5072 8.66846ZM33.1283 19.8681L37.9614 16.118L37.8038 15.9153L35.2822 17.841L32.3403 15.6619V14.2936L37.3835 10.8476L34.8619 7.04679L29.2408 10.0367V17.0808L28.1376 17.8917L28.2952 18.0437L29.3459 17.2329L33.1283 19.8681ZM32.3403 13.9895V8.66846L34.7568 12.3679L32.3403 13.9895ZM58.0291 1.67503C58.0291 1.32029 57.924 1.0669 57.819 0.661485H57.7139C57.3462 1.57367 56.9784 2.02976 55.9278 2.02976C54.9822 2.02976 54.2467 1.47232 53.8264 1.0669C53.8264 1.11758 50.6219 4.61429 50.6219 4.61429L50.7795 4.76632L51.6726 3.75278C52.3555 4.25955 52.9859 4.86768 54.5094 4.86768V13.8375L48.0478 2.94195C47.5224 2.13112 46.6819 0.91487 45.1584 0.91487C43.4248 0.91487 42.059 2.3845 42.2691 4.817H42.3742C42.5318 4.20888 42.8995 3.44872 43.635 3.44872C44.2654 3.44872 44.7382 4.00617 45.0534 4.51294V8.00965C43.0571 8.00965 41.9014 8.92184 41.9014 10.4422C41.9014 11.101 42.3742 12.4692 43.74 12.6719V12.5706C43.5299 12.3679 43.3723 12.2158 43.3723 11.8611C43.3723 11.253 43.8451 10.9489 44.6331 10.9489C44.7907 10.9489 44.9483 10.9996 45.0534 10.9996V15.5605C42.6894 15.6112 40.8507 16.8275 40.8507 19.0066C40.8507 21.0337 42.6894 21.9965 44.5806 21.8952V21.7938C43.3723 21.6418 42.7944 21.0843 42.7944 20.2228C42.7944 19.3106 43.4774 18.8039 44.3704 18.8039C45.2635 18.8039 45.8939 19.3613 46.4718 19.9694L49.6763 16.5234L49.5187 16.3714L48.6782 17.2836C47.4699 16.2193 46.6819 15.7632 45.2635 15.5605V4.817L54.2467 19.9188H54.7195V4.86768C56.5056 4.76632 58.0291 3.55008 58.0291 1.67503ZM61.076 19.8681L65.9091 16.118L65.7515 15.9153L63.2299 17.841L60.288 15.6112V14.2429L65.3312 10.7969L62.8096 6.99611L57.1886 9.98606V17.0302L56.0854 17.841L56.243 17.993L57.2936 17.1822L61.076 19.8681ZM60.3406 13.9895V8.66846L62.7571 12.3679L60.3406 13.9895ZM83.14 8.26304L82.4046 8.82049L80.3032 7.09747L77.8342 9.2259L78.8323 10.1381V18.1451L76.3107 16.4727V9.98606L77.2038 9.37793L74.6296 7.04679L72.2131 9.17523L73.2113 10.0874V17.841L73.0536 17.9424L70.6896 16.27V9.93538C70.6896 8.46575 69.9016 8.00965 68.956 7.45221C68.1155 6.94544 67.6953 6.48934 67.6953 5.77986C67.6953 4.96903 68.4307 4.61429 68.6934 4.51294C67.8528 4.46226 65.4888 5.32377 65.4363 7.40153C65.3838 8.46575 65.9616 8.92184 66.487 9.42861C67.0648 9.93538 67.5902 10.4422 67.5902 11.3037V17.5369L66.4344 18.3984L66.592 18.5505L67.6953 17.7396L70.532 19.9694L73.2638 18.1451L76.2582 19.9694L82.0894 16.6247V9.37793L83.4027 8.41507L83.14 8.26304ZM102.682 2.1818L101.579 3.14466L99.1102 1.0669L95.748 3.70211V1.26961H95.5379V18.8545C95.1702 18.8039 94.3822 18.6012 93.5416 18.4491V3.75278C93.5416 2.68857 92.7536 1.21893 90.7574 1.21893C88.7086 1.21893 87.5003 2.8406 87.5003 4.25955H87.6054C87.7104 3.60075 88.1833 3.0433 88.8136 3.0433C89.4966 3.0433 90.0744 3.44872 90.0744 4.86768V9.07387C88.1832 9.17522 87.0275 10.2901 87.0275 11.5064C87.0275 12.2158 87.5003 13.4828 88.9187 13.5334V13.4321C88.4459 13.2294 88.3409 12.976 88.3409 12.7226C88.3409 12.1145 88.9712 11.9118 89.8118 11.9118H90.0219V18.6518C88.3934 19.2093 87.6579 20.2228 87.6579 21.5404C87.6579 23.3141 89.1289 24.7331 91.3353 24.7331C92.8587 24.7331 93.9619 24.4797 95.3803 24.1756C96.536 23.9222 97.7443 23.6689 98.4272 23.6689C99.2678 23.6689 99.6355 24.0236 99.6355 24.6317C99.6355 25.3919 99.3203 25.7466 98.9 25.8986V26C100.739 25.6453 101.789 24.6317 101.789 23.0607C101.789 21.4391 100.161 20.4255 98.3747 20.4255C97.4291 20.4255 95.7481 20.7296 94.3822 21.0337C92.8587 21.3884 91.4928 21.5404 91.02 21.5404C90.232 21.5404 89.2864 21.1857 89.2864 20.2228C89.2864 19.3106 90.0744 18.6012 91.9656 18.6012C93.0163 18.6012 94.0145 18.7532 95.2753 19.0572C96.6411 19.3613 97.5342 19.716 98.7424 19.716C100.371 19.716 101.684 19.1586 101.684 16.8781V3.39804L102.893 2.33383L102.682 2.1818ZM98.112 9.2259C97.7968 9.52996 97.4816 9.78335 96.9038 9.78335C96.2734 9.78335 95.9582 9.47929 95.6955 9.2259V3.95549L96.4835 3.34737L98.112 4.66497V9.2259ZM98.112 11.7598C97.8494 11.5064 97.4816 11.253 96.9038 11.253C96.3259 11.253 95.9057 11.557 95.6955 11.7598V9.52996C95.9582 9.73267 96.3259 10.0367 96.9038 10.0367C97.4816 10.0367 97.8494 9.78335 98.112 9.52996V11.7598ZM98.112 17.0302C98.112 17.8917 97.6393 18.8545 96.4835 18.8545C96.2734 18.8545 95.8531 18.8039 95.6955 18.8039V12.0131C95.9582 11.7598 96.3259 11.4557 96.9038 11.4557C97.4816 11.4557 97.7968 11.7091 98.112 12.0131V17.0302ZM107.568 19.8681L112.979 16.6247V9.52996L109.459 7.04679L104.048 10.0367V17.0808L102.998 17.8917L103.103 18.0437L103.996 17.3342L107.568 19.8681ZM107.2 16.2193V8.61778L109.932 10.5435V18.0944L107.2 16.2193ZM123.328 7.19882C122.908 7.50288 122.54 7.65491 122.12 7.65491C121.7 7.65491 121.174 7.40153 120.912 7.04679C120.912 7.09747 118.915 9.12455 118.915 9.12455L116.919 7.04679L113.609 9.2259L113.714 9.42861L114.608 8.87116L115.816 10.1381V17.0302L114.397 18.0944L114.555 18.2464L115.29 17.7396L117.97 19.9188L121.384 17.7396L121.279 17.5876L120.386 18.0944L119.02 16.8781V9.32726C119.598 9.93538 120.229 10.4422 120.964 10.4422C122.225 10.4422 123.17 8.87116 123.328 7.19882ZM136.146 17.3849L135.148 17.993L129.527 9.93538L129.842 9.52996C130.473 9.8847 130.998 10.3915 132.154 10.3915C133.309 10.3915 134.78 9.2259 134.938 7.04679C134.623 7.45221 134.045 7.9083 133.099 7.9083C132.416 7.9083 131.733 7.45221 131.313 7.04679L127.478 12.4692L132.521 19.9188L136.199 17.5876L136.146 17.3849ZM129.317 17.5876L128.476 18.1451L127.321 17.0302V0.509454L123.118 3.29669C123.591 3.44872 124.169 3.70211 124.169 4.76632V17.0302L122.75 18.0944L122.908 18.2464L123.643 17.7396L126.112 19.9188L129.474 17.7903L129.317 17.5876ZM153.955 2.68857C153.955 0.610808 151.906 -0.0479937 150.173 0.00268336V0.205392C151.223 0.306746 152.011 0.712162 152.011 1.37096C152.011 1.82706 151.644 2.43518 150.645 2.43518C149.805 2.43518 148.492 1.97909 147.178 1.57367C145.76 1.11758 144.446 0.661485 143.343 0.661485C141.189 0.661485 139.508 2.23247 139.508 4.1582C139.508 5.72919 140.769 6.23596 141.242 6.43867L141.294 6.33731C140.979 6.1346 140.769 5.88122 140.769 5.22242C140.769 4.66497 141.189 3.90481 142.293 3.90481C143.291 3.90481 144.604 4.36091 146.39 4.817C147.914 5.22242 149.542 5.62783 150.435 5.72919V9.12455L148.754 10.4928L150.435 11.9118V16.5741C149.542 17.0808 148.544 17.2329 147.651 17.2329C146.022 17.2329 144.552 16.7768 143.343 15.5099L147.914 13.3814V5.9319L142.293 8.31371C142.87 6.89476 143.974 5.83054 145.182 5.12106L145.129 5.01971C141.82 5.88122 138.773 8.82049 138.773 12.4692C138.773 16.8275 142.398 20.0201 146.548 20.0201C151.066 20.0201 153.692 16.6247 153.64 13.0267H153.535C152.852 14.395 151.801 15.7126 150.54 16.422V11.8611L152.326 10.4928L150.54 9.12455V5.72919C152.274 5.72919 153.955 4.66497 153.955 2.68857ZM144.499 14.6483L143.186 15.3071C142.398 14.2936 141.872 12.9253 141.872 11.101C141.872 10.3408 141.977 9.32726 142.24 8.61778L144.552 7.60424L144.499 14.6483ZM157.37 1.87773L155.058 3.75278L157.054 5.9319L159.366 4.05685L157.37 1.87773ZM160.942 17.5876L160.101 18.1451L158.946 17.0302V9.58064L159.944 8.82049L159.786 8.66846L158.946 9.27658L157.002 7.04679L153.797 9.17523L153.902 9.37793L154.69 8.87116L155.741 10.1381V17.0302L154.323 18.0944L154.48 18.2464L155.216 17.7396L157.685 19.9188L161.047 17.7903L160.942 17.5876ZM178.803 17.4863L178.015 17.993L176.754 16.8275V9.58064L177.753 8.82049L177.595 8.66846L176.702 9.32726L174.075 7.04679L171.081 9.27658L168.454 7.04679L165.512 9.27658L163.516 7.04679L160.312 9.17523L160.417 9.37793L161.205 8.87116L162.36 10.1381V16.9795L161.467 17.841L163.989 19.9188L166.458 17.7903L165.46 16.8781V9.52996L166.143 9.07387L167.981 10.5942V16.9795L167.141 17.841L169.715 19.9188L172.132 17.7903L171.133 16.8781V9.52996L171.764 9.02319L173.602 10.5942V16.8781L172.867 17.6383L175.441 19.9188L178.856 17.689L178.803 17.4863ZM188.102 15.9659L185.58 17.8917L182.638 15.6619V14.2936L187.681 10.8476L185.16 7.04679L179.539 10.0367V17.2329L183.374 19.9188L188.207 16.1687L188.102 15.9659ZM182.638 13.9895V8.66846L185.055 12.3679L182.638 13.9895ZM197.82 12.976L195.666 11.405C197.085 10.1888 197.61 8.66845 197.61 7.55356C197.61 7.40153 197.558 7.09747 197.558 6.84408H197.453C197.242 7.40153 196.665 7.9083 195.824 7.9083C194.984 7.9083 194.458 7.45221 193.933 6.89476L188.995 9.52996V13.3814L190.886 14.8004C188.995 16.422 188.627 17.4356 188.627 18.3478C188.627 19.3106 189.205 20.0708 190.15 20.4255L190.256 20.2735C189.993 20.0708 189.783 19.9188 189.783 19.4627C189.783 19.1079 190.15 18.5505 190.991 18.5505C192.094 18.5505 192.725 19.26 193.092 19.6654C193.092 19.6147 197.82 16.8781 197.82 16.8781V12.976ZM196.717 9.83403C195.982 11.101 194.353 12.3679 193.355 13.0774L192.147 12.1145V8.36439C192.62 9.37793 193.618 10.2394 194.878 10.2394C195.666 10.2394 196.139 10.0874 196.717 9.83403ZM194.668 18.2464C194.09 17.0302 192.935 16.1687 191.569 16.1687C191.254 16.1687 190.256 16.118 189.415 16.6754C189.94 15.8646 191.411 14.395 193.355 13.2801L194.668 14.3443V18.2464Z" fill="#0D2937"/>
</svg>
