<svg width="99" height="24" viewBox="0 0 99 24" fill="none" xmlns="http://www.w3.org/2000/svg">
<path d="M98.0183 11.7384L97.1214 11.9791C96.2694 9.09125 94.8388 7.85412 92.8208 7.85412C91.4037 7.85412 90.3992 8.78107 90.3992 10.2606C90.3992 11.6689 91.5652 12.4265 94.7348 13.6984C97.6524 14.7644 98.8623 16.0692 98.8623 18.3509C98.8623 21.8226 96.1178 24 91.61 24C89.4422 24 86.9865 23.5187 85.6026 22.9688L85.4295 18.1451L86.2816 17.973C87.5614 21.2735 89.1992 22.5222 91.3311 22.5222C93.176 22.5222 94.1446 21.2503 94.1446 19.9437C94.1446 18.6371 93.3948 17.8812 90.5122 16.8509C87.7677 15.9569 85.8887 14.7884 85.8887 11.889C85.8887 9.03688 88.4135 6.61789 92.7051 6.61789C94.7348 6.61789 96.5797 6.96193 97.7905 7.51187L98.0183 11.7384ZM79.4526 13.2509C79.5567 10.9826 79.0939 7.70528 77.2158 7.70528C75.2901 7.70528 74.2291 10.7651 74.195 13.3891L79.4526 13.2509ZM77.6768 6.60541C82.4034 6.60541 84.6869 10.0432 84.7219 14.5576H74.0811C74.0452 18.5568 76.1799 21.581 80.1692 21.581C81.9092 21.581 82.9137 21.0997 83.9739 20.3439L84.4698 20.8938C83.3039 22.475 80.8823 23.9866 77.6535 23.9866C72.4649 23.9866 68.8675 20.4464 68.8675 15.4498C68.8558 10.9353 71.8075 6.60363 77.6768 6.60363M62.3417 14.9685C62.2376 11.4033 60.9246 8.5636 58.398 8.5636C57.7971 8.5636 57.337 8.66699 56.6222 8.90764L56.8285 22.6461C57.0823 22.7495 57.6805 22.8181 58.1083 22.8181C60.564 22.8181 62.3399 19.3688 62.3399 14.9694M67.6091 14.702C67.6091 20.351 64.0216 23.9947 57.9352 23.9947C55.7674 23.9947 53.5189 23.6506 51.5709 23.2041C51.744 20.9357 51.744 6.88706 51.5709 4.23991C51.3978 2.86463 51.0058 2.21131 49.9332 2.07405L49.2183 2.00542V1.37527L56.7253 0C56.6895 1.15869 56.6213 4.23991 56.6213 7.84878C57.9361 7.19545 59.146 6.81754 60.7829 6.81754C64.6915 6.81754 67.5993 10.118 67.5993 14.7011M48.4954 11.6332C46.1779 10.1207 43.6881 10.774 43.1912 11.6332C42.9724 14.2804 43.0181 18.3483 43.2271 20.4446C43.3311 21.8199 43.7231 22.4037 44.7949 22.5071L46.2119 22.6443V23.5383H35.608V22.6443L36.4268 22.5071C37.4529 22.4037 37.8107 21.8208 37.8798 20.4446C38.1336 18.2101 38.2027 13.5237 37.8798 10.9451C37.8107 9.46737 37.4529 8.91655 36.4268 8.77929L35.608 8.6759V8.05734L43.1831 6.61344L43.0791 10.4638C44.8549 6.47618 48.3833 5.99487 50.2973 7.06087L48.4954 11.6332ZM23.6362 15.3232C23.6362 19.5284 24.778 22.9661 27.0839 22.9661C29.5746 22.9661 30.2894 19.597 30.2894 15.3232C30.2894 11.0494 29.1826 7.71508 26.8417 7.71508C24.3304 7.71508 23.6362 10.9808 23.6362 15.3232ZM35.651 15.2546C35.651 20.0783 32.4455 23.9893 26.7269 23.9893C21.0998 23.9893 18.2638 20.2655 18.2638 15.3838C18.2638 10.594 21.4693 6.60631 27.1879 6.60631C32.815 6.60631 35.651 10.3533 35.651 15.2457M20.924 6.94946L19.7581 7.2935C18.7661 3.9128 17.0136 1.98849 13.9928 1.98849H10.0492C9.83035 4.23456 9.72631 7.70617 9.83035 11.4541L12.4582 11.3168C14.2341 11.3168 14.983 10.0449 15.418 8.19727H16.41V16.0122H15.401C14.974 14.1226 14.235 12.8392 12.4412 12.7349L9.8133 12.6992C9.8133 15.4836 9.84918 17.867 10.0321 19.3109C10.2052 21.3733 10.7819 22.3128 12.304 22.508L13.7336 22.6452V23.5392H0.862305V22.6452L1.93499 22.508C3.42204 22.303 4.03372 21.3733 4.20682 19.3109C4.49383 15.9418 4.56558 8.74631 4.20682 4.74706C4.03372 2.60794 3.42294 1.75675 1.93499 1.58473L0.862305 1.41271V0.485758H20.8989L20.924 6.94946Z" fill="#0D2937"/>
</svg>
