<svg width="342" height="67" viewBox="0 0 342 67" fill="none" xmlns="http://www.w3.org/2000/svg">
<path d="M74.5289 51.682H76.7048C77.6814 51.682 78.4713 51.7611 79.0745 51.9193C79.6778 52.0775 80.2092 52.3724 80.6687 52.8039C81.4299 53.523 81.8105 54.4723 81.8105 55.6517C81.8105 56.3277 81.6669 56.8959 81.3797 57.3561C81.1212 57.802 80.7621 58.1328 80.3025 58.3486C81.0493 58.5356 81.6669 58.8807 82.1552 59.3842C82.7872 60.0458 83.1031 60.9447 83.1031 62.081C83.1031 63.131 82.7872 63.9939 82.1552 64.6699C81.2648 65.6048 79.9219 66.0723 78.1266 66.0723H74.5289V51.682ZM76.7263 53.7532V57.8739H77.3942C78.1984 57.8739 78.7945 57.6869 79.1823 57.313C79.5557 56.9534 79.7424 56.4069 79.7424 55.6733C79.7424 55.0836 79.57 54.6234 79.2253 54.2925C78.8519 53.933 78.2703 53.7532 77.4803 53.7532H76.7263ZM76.7263 59.6862V64.0011H78.062C79.053 64.0011 79.7783 63.8141 80.2379 63.4402C80.7118 63.0662 80.9488 62.5341 80.9488 61.8437C80.9488 61.2252 80.7549 60.7218 80.3671 60.3334C79.9219 59.9019 79.1679 59.6862 78.1051 59.6862H76.7263Z" fill="#F3F2EE"/>
<path d="M97.028 51.682V53.7532H91.2975V57.3993H96.8557V59.4705H91.2975V64.0011H97.028V66.0723H89.1001V51.682H97.028Z" fill="#F3F2EE"/>
<path d="M111.074 53.8395L109.308 54.8751C109.164 54.5299 108.949 54.2278 108.661 53.9689C108.231 53.6237 107.713 53.4511 107.11 53.4511C106.464 53.4511 105.961 53.6165 105.602 53.9473C105.258 54.2782 105.085 54.6881 105.085 55.1771C105.085 55.925 105.602 56.5075 106.636 56.9246L108.08 57.5072C110.335 58.4277 111.462 59.8372 111.462 61.7358C111.462 63.1022 111.024 64.2169 110.148 65.0799C109.286 65.9285 108.18 66.3528 106.83 66.3528C105.437 66.3528 104.31 65.8709 103.448 64.9073C102.744 64.1162 102.342 63.1813 102.242 62.1026L104.417 61.6279C104.417 62.3183 104.618 62.9296 105.021 63.4618C105.48 64.0371 106.105 64.3247 106.895 64.3247C107.57 64.3247 108.13 64.1018 108.575 63.6559C109.035 63.2101 109.265 62.6275 109.265 61.9084C109.265 61.2468 109.071 60.7362 108.683 60.3766C108.31 60.017 107.814 59.7078 107.196 59.4489L105.818 58.8664C103.864 58.0465 102.888 56.8312 102.888 55.2203C102.888 54.1847 103.261 53.2929 104.008 52.545C104.769 51.7971 105.796 51.4231 107.089 51.4231C108.252 51.4231 109.214 51.7467 109.976 52.394C110.421 52.7967 110.787 53.2785 111.074 53.8395Z" fill="#F3F2EE"/>
<path d="M117.443 51.682H120.61C121.931 51.682 122.98 51.9409 123.755 52.4587C124.33 52.847 124.768 53.3576 125.069 53.9905C125.385 54.609 125.543 55.2634 125.543 55.9538C125.543 57.2483 125.077 58.2982 124.143 59.1037C123.267 59.8516 122.096 60.2256 120.631 60.2256H119.64V66.0723H117.443V51.682ZM119.64 53.71V58.1976H120.631C121.551 58.1976 122.247 57.9962 122.721 57.5935C123.195 57.1764 123.432 56.6226 123.432 55.9322C123.432 55.6877 123.396 55.4576 123.324 55.2418C123.267 55.0261 123.145 54.796 122.958 54.5514C122.786 54.2925 122.499 54.0912 122.096 53.9473C121.694 53.7891 121.199 53.71 120.61 53.71H119.64Z" fill="#F3F2EE"/>
<path d="M132.469 53.559C133.891 52.1351 135.672 51.4231 137.812 51.4231C139.951 51.4231 141.732 52.1351 143.154 53.559C144.576 54.9829 145.287 56.7592 145.287 58.8879C145.287 61.0166 144.576 62.7929 143.154 64.2169C141.732 65.6408 139.951 66.3528 137.812 66.3528C135.672 66.3528 133.891 65.6408 132.469 64.2169C131.047 62.7929 130.336 61.0166 130.336 58.8879C130.336 56.7592 131.047 54.9829 132.469 53.559ZM134.02 62.8145C135.011 63.8213 136.275 64.3247 137.812 64.3247C139.348 64.3247 140.612 63.8213 141.603 62.8145C142.594 61.7933 143.09 60.4845 143.09 58.8879C143.09 57.2914 142.594 55.9897 141.603 54.9829C140.612 53.9617 139.348 53.4511 137.812 53.4511C136.275 53.4511 135.011 53.9617 134.02 54.9829C133.029 55.9897 132.533 57.2914 132.533 58.8879C132.533 60.4845 133.029 61.7933 134.02 62.8145Z" fill="#F3F2EE"/>
<path d="M153.474 51.682V57.4209L159.033 51.682H161.919L155.435 58.1976L161.962 66.0723H159.033L153.905 59.6862L153.474 60.1177V66.0723H151.277V51.682H153.474Z" fill="#F3F2EE"/>
<path d="M175.059 51.682V53.7532H169.329V57.3993H174.887V59.4705H169.329V64.0011H175.059V66.0723H167.131V51.682H175.059Z" fill="#F3F2EE"/>
<path d="M196.676 53.7532H193.38V66.0723H191.182V53.7532H187.886V51.682H196.676V53.7532Z" fill="#F3F2EE"/>
<path d="M201.841 51.682H204.404C206.099 51.682 207.363 51.9625 208.196 52.5234C209.33 53.2857 209.898 54.4148 209.898 55.9106C209.898 56.9318 209.603 57.802 209.015 58.5212C208.44 59.2403 207.672 59.7078 206.709 59.9235L211.19 66.0723H208.541L204.426 60.1824H204.038V66.0723H201.841V51.682ZM204.038 53.71V58.2838H204.727C204.914 58.2838 205.101 58.2767 205.288 58.2623C205.474 58.2479 205.726 58.1976 206.042 58.1113C206.372 58.025 206.652 57.9099 206.882 57.7661C207.126 57.6078 207.334 57.3705 207.506 57.0541C207.693 56.7377 207.787 56.3637 207.787 55.9322C207.787 54.4508 206.788 53.71 204.792 53.71H204.038Z" fill="#F3F2EE"/>
<path d="M226.533 66.0723L225.025 62.5988H218.885L217.313 66.0723H214.943L222.095 50.8406L228.903 66.0723H226.533ZM219.79 60.5276H224.142L222.009 55.6517L219.79 60.5276Z" fill="#F3F2EE"/>
<path d="M231.323 51.682H233.693L237.7 61.7142L241.707 51.682H244.077L237.7 67L231.323 51.682Z" fill="#F3F2EE"/>
<path d="M257.038 51.682V53.7532H251.307V57.3993H256.865V59.4705H251.307V64.0011H257.038V66.0723H249.11V51.682H257.038Z" fill="#F3F2EE"/>
<path d="M263.113 51.682H265.31V64.0011H269.533V66.0723H263.113V51.682Z" fill="#F3F2EE"/>
<path d="M84.808 27.6965V11.1066C84.808 8.62531 85.1723 7.12073 87.1241 6.36664V6.29123H81.1115L71.6058 27.6175L61.4098 6.29123H54.9909V6.36664C56.9388 7.12073 57.3069 8.62172 57.3069 11.1066V27.2405C57.3069 30.0988 56.2102 31.7937 54.2623 32.5442V32.6196H61.4904V32.5442C59.5424 31.7937 58.4419 30.0988 58.4419 27.2405V8.47449L70.1794 33.0361H70.3404L81.2649 8.47449V27.6929C81.2649 30.1742 80.4942 31.7937 78.5424 32.5442V32.6196H87.519V32.5442C85.5672 31.7937 84.7965 30.1742 84.7965 27.6929" fill="#F3F2EE"/>
<path d="M100.307 22.9745L105.79 11.2107L111.558 22.9745H100.307ZM118.18 28.465L107.171 6.27687H107.048L96.8522 27.6139C95.675 30.0629 94.6166 31.8081 93.033 32.5478V32.6232H99.452V32.5478C98.3131 32.1025 97.504 31.1761 97.504 30.0629C97.504 29.1364 97.83 28.2818 98.1942 27.5026L99.8584 23.9404H112.044L114.196 28.3572C114.644 29.2478 114.886 29.9911 114.886 30.5836C114.886 31.4741 114.196 32.1061 113.018 32.5514V32.6268H121.466V32.5514C119.882 31.8081 119.395 30.8816 118.176 28.4685" fill="#F3F2EE"/>
<path d="M139.879 31.6429H133.299V11.1066C133.299 8.62531 133.667 7.12073 135.615 6.36664V6.29123H127.329V6.36664C129.277 7.12073 129.645 8.62172 129.645 11.1066V27.8042C129.645 30.2855 129.28 31.7901 127.329 32.5442V32.6196H148.001L149.3 25.3229H149.22C147.069 29.3088 144.427 31.6393 139.879 31.6393" fill="#F3F2EE"/>
<path d="M168.527 31.6429H161.947V11.1066C161.947 8.62531 162.315 7.12073 164.263 6.36664V6.29123H155.976V6.36664C157.924 7.12073 158.292 8.62172 158.292 11.1066V27.8042C158.292 30.2855 157.928 31.7901 155.976 32.5442V32.6196H176.648L177.948 25.3229H177.868C175.716 29.3088 173.075 31.6393 168.527 31.6393" fill="#F3F2EE"/>
<path d="M234.02 31.7793C227.816 31.7793 224.576 26.472 224.576 19.4482C224.576 12.4245 227.816 7.11714 234.02 7.11714C240.224 7.11714 243.464 12.4209 243.464 19.4482C243.464 26.4756 240.224 31.7793 234.02 31.7793ZM234.02 6.27687C226.669 6.27687 220.465 11.7673 220.465 19.4482C220.465 27.1291 226.669 32.6196 234.02 32.6196C241.371 32.6196 247.575 27.1291 247.575 19.4482C247.575 11.7673 241.371 6.27687 234.02 6.27687Z" fill="#F3F2EE"/>
<path d="M261.122 19.2687V7.27154H266.767C271.315 7.27154 273.876 9.22857 273.876 13.4012C273.876 17.8395 270.954 19.2687 266.767 19.2687H261.122ZM276.84 27.9191L275.701 24.7592C274.727 22.0875 272.695 20.2095 268.554 19.9079C273.101 19.7571 277.895 18.0262 277.895 13.2145C277.895 8.10103 273.144 6.29482 267.292 6.29482H255.148V6.37023C257.096 7.12431 257.464 8.6253 257.464 11.1102V27.8078C257.464 30.2891 257.1 31.7937 255.148 32.5478V32.6232H263.435V32.5478C261.487 31.7973 261.119 30.2927 261.119 27.8078V20.249H266.034C269.566 20.249 270.828 22.5041 271.844 25.1757L273.101 28.5619C273.792 30.3681 274.562 31.984 275.417 32.6232H281.633V32.5478C279.156 31.7219 277.898 30.8565 276.84 27.9227" fill="#F3F2EE"/>
<path d="M299.567 31.6429H292.987V11.1066C292.987 8.62531 293.351 7.12073 295.303 6.36664V6.29123H287.017V6.36664C288.965 7.12073 289.333 8.62172 289.333 11.1066V27.8042C289.333 30.2855 288.969 31.7901 287.017 32.5442V32.6196H307.689L308.989 25.3229H308.908C306.757 29.3088 304.115 31.6393 299.567 31.6393" fill="#F3F2EE"/>
<path d="M325.554 31.6429H321.413V7.27154H324.948C332.299 7.27154 337.985 11.2215 337.985 19.1574C337.985 28.2962 332.257 31.6429 325.558 31.6429M325.308 6.29482H315.438V6.37023C317.386 7.12431 317.754 8.6253 317.754 11.1102V27.8078C317.754 30.2891 317.39 31.7937 315.438 32.5478V32.6232H326.282C334.81 32.6232 342 28.2962 342 19.1574C342 10.6577 335.094 6.29482 325.308 6.29482Z" fill="#F3F2EE"/>
<path d="M213.628 3.12766L213.249 0L212.869 3.12766C212.685 4.63942 211.412 5.83519 209.794 6.00755L206.454 6.36305L209.794 6.71855C211.408 6.89091 212.685 8.08308 212.869 9.59844L213.249 12.7261L213.628 9.59844C213.812 8.08667 215.085 6.89091 216.704 6.71855L220.043 6.36305L216.704 6.00755C215.089 5.83519 213.812 4.64302 213.628 3.12766Z" fill="#F3F2EE"/>
<path d="M199.966 8.34163C199.966 7.45109 200.694 6.82268 201.672 6.37741V6.30201H193.796V6.37741C195.134 7.12073 195.744 8.04718 196.76 10.4531L198.018 13.6418L198.627 15.2361L205.407 32.6196H205.53L207.274 28.3931L200.537 10.5644C200.173 9.67385 199.969 8.93412 199.969 8.34163" fill="#F3F2EE"/>
<path d="M186.162 10.568C185.798 9.67743 185.594 8.93771 185.594 8.34521C185.594 7.45468 186.327 6.82627 187.301 6.381V6.30559H179.302V6.381C180.64 7.12431 181.25 8.05076 182.266 10.4567L191.48 32.6232H191.603L193.29 28.447L191.768 24.3498L186.162 10.568Z" fill="#F3F2EE"/>
<path d="M24.8783 28.4362L13.9845 6.27687H13.8656L3.77699 27.5852C2.6113 30.0306 1.56448 31.7722 0 32.5155V32.5909H6.34995V32.5155C5.22644 32.0702 4.42119 31.1438 4.42119 30.0306C4.42119 29.1041 4.74329 28.2531 5.10373 27.4739L6.57618 24.2959L12.6232 11.2L17.6886 21.6279L18.8083 23.9117H18.8121L20.9441 28.3213C21.3851 29.2119 21.6266 29.9516 21.6266 30.5441C21.6266 31.4346 20.9441 32.063 19.7784 32.5083V32.5837H28.1376V32.5083C26.5693 31.765 26.0862 30.8385 24.8821 28.4326" fill="#F3F2EE"/>
<path d="M38.5292 17.6061C35.0896 16.7228 32.091 15.6168 32.091 12.2665C32.091 8.91617 34.8519 7.10995 37.8083 7.10995C42.1259 7.10995 44.9673 10.094 46.7657 13.7387H46.8424L46.8616 13.7746L46.8271 13.6382C46.7389 13.2073 46.3707 11.4621 45.8608 9.95034C45.8608 9.94675 45.8608 9.94316 45.8608 9.93957L45.3086 7.82813C45.2894 7.7599 45.2319 7.70604 45.159 7.68449L40.6305 6.56414C40.6305 6.56414 38.9203 6.25891 37.816 6.25891C33.0957 6.25891 29.1001 9.0203 29.1001 13.3689C29.1001 18.4141 33.4178 19.6673 37.536 20.7733C41.3744 21.8039 45.0555 22.7267 45.0555 26.411C45.0555 30.0952 42.218 31.9373 38.6979 31.9373C38.3681 31.9373 38.0844 31.9445 37.8428 31.9553L37.559 32.6304C37.908 32.6447 38.2953 32.6555 38.602 32.6555C43.399 32.6555 48.2573 30.5764 48.2573 25.4917C48.2573 19.8181 43.0577 18.7516 38.5407 17.6097" fill="#F3F2EE"/>
</svg>
