<svg width="417" height="85" viewBox="0 0 417 85" fill="none" xmlns="http://www.w3.org/2000/svg">
<path d="M134.333 67.8711V70.9298C132.911 69.6724 131.341 69.0436 129.623 69.0436C127.75 69.0436 126.223 69.6554 125.043 70.8789C123.881 72.0854 123.3 73.6317 123.3 75.5179C123.3 77.3362 123.898 78.8571 125.095 80.0805C126.292 81.287 127.81 81.8903 129.649 81.8903C131.367 81.8903 132.928 81.2361 134.333 79.9276V83.0118C132.876 83.8615 131.289 84.2863 129.571 84.2863C127.16 84.2863 125.112 83.5046 123.43 81.9413C121.573 80.242 120.645 78.1009 120.645 75.5179C120.645 72.7991 121.573 70.5815 123.43 68.8652C125.026 67.3868 127.116 66.6476 129.701 66.6476C131.488 66.6476 133.032 67.0554 134.333 67.8711Z" fill="#F3F2EE"/>
<path d="M142.703 69.1711C144.421 67.4888 146.572 66.6476 149.157 66.6476C151.742 66.6476 153.893 67.4888 155.611 69.1711C157.328 70.8534 158.187 72.952 158.187 75.467C158.187 77.9819 157.328 80.0805 155.611 81.7628C153.893 83.4452 151.742 84.2863 149.157 84.2863C146.572 84.2863 144.421 83.4452 142.703 81.7628C140.986 80.0805 140.127 77.9819 140.127 75.467C140.127 72.952 140.986 70.8534 142.703 69.1711ZM144.577 80.106C145.774 81.2955 147.301 81.8903 149.157 81.8903C151.013 81.8903 152.54 81.2955 153.737 80.106C154.934 78.8995 155.533 77.3532 155.533 75.467C155.533 73.5807 154.934 72.0429 153.737 70.8534C152.54 69.6469 151.013 69.0436 149.157 69.0436C147.301 69.0436 145.774 69.6469 144.577 70.8534C143.38 72.0429 142.781 73.5807 142.781 75.467C142.781 77.3532 143.38 78.8995 144.577 80.106Z" fill="#F3F2EE"/>
<path d="M165.422 66.9535H168.077V81.5079H173.177V83.9549H165.422V66.9535Z" fill="#F3F2EE"/>
<path d="M179.567 66.9535H182.222V81.5079H187.322V83.9549H179.567V66.9535Z" fill="#F3F2EE"/>
<path d="M203.289 66.9535V69.4005H196.367V73.7082H203.081V76.1552H196.367V81.5079H203.289V83.9549H193.712V66.9535H203.289Z" fill="#F3F2EE"/>
<path d="M223.483 67.8711V70.9298C222.06 69.6724 220.49 69.0436 218.773 69.0436C216.899 69.0436 215.372 69.6554 214.193 70.8789C213.03 72.0854 212.449 73.6317 212.449 75.5179C212.449 77.3362 213.048 78.8571 214.245 80.0805C215.442 81.287 216.96 81.8903 218.799 81.8903C220.516 81.8903 222.078 81.2361 223.483 79.9276V83.0118C222.025 83.8615 220.438 84.2863 218.721 84.2863C216.309 84.2863 214.262 83.5046 212.579 81.9413C210.723 80.242 209.795 78.1009 209.795 75.5179C209.795 72.7991 210.723 70.5815 212.579 68.8652C214.175 67.3868 216.266 66.6476 218.851 66.6476C220.638 66.6476 222.182 67.0554 223.483 67.8711Z" fill="#F3F2EE"/>
<path d="M239.464 69.4005H235.482V83.9549H232.828V69.4005H228.847V66.9535H239.464V69.4005Z" fill="#F3F2EE"/>
<path d="M245.703 66.9535H248.357V83.9549H245.703V66.9535Z" fill="#F3F2EE"/>
<path d="M258.16 69.1711C259.878 67.4888 262.029 66.6476 264.614 66.6476C267.199 66.6476 269.35 67.4888 271.068 69.1711C272.785 70.8534 273.644 72.952 273.644 75.467C273.644 77.9819 272.785 80.0805 271.068 81.7628C269.35 83.4452 267.199 84.2863 264.614 84.2863C262.029 84.2863 259.878 83.4452 258.16 81.7628C256.443 80.0805 255.584 77.9819 255.584 75.467C255.584 72.952 256.443 70.8534 258.16 69.1711ZM260.034 80.106C261.231 81.2955 262.758 81.8903 264.614 81.8903C266.47 81.8903 267.997 81.2955 269.194 80.106C270.391 78.8995 270.99 77.3532 270.99 75.467C270.99 73.5807 270.391 72.0429 269.194 70.8534C267.997 69.6469 266.47 69.0436 264.614 69.0436C262.758 69.0436 261.231 69.6469 260.034 70.8534C258.837 72.0429 258.238 73.5807 258.238 75.467C258.238 77.3532 258.837 78.8995 260.034 80.106Z" fill="#F3F2EE"/>
<path d="M283.534 83.9549H280.88V65.8065L293.475 78.7296V66.9535H296.129V85L283.534 72.0769V83.9549Z" fill="#F3F2EE"/>
<path d="M103.35 34.4813V13.8274C103.35 10.7383 103.794 8.8651 106.173 7.92628V7.8324H98.8456L87.2615 34.383L74.8364 7.8324H67.014V7.92628C69.3878 8.8651 69.8364 10.7338 69.8364 13.8274V33.9136C69.8364 37.4721 68.4999 39.5822 66.1261 40.5166V40.6104H74.9345V40.5166C72.5607 39.5822 71.2196 37.4721 71.2196 33.9136V10.5505L85.5232 41.129H85.7195L99.0325 10.5505V34.4769C99.0325 37.566 98.0933 39.5822 95.7148 40.5166V40.6104H106.654V40.5166C104.275 39.5822 103.336 37.566 103.336 34.4769" fill="#F3F2EE"/>
<path d="M122.238 28.6026L128.92 13.957L135.948 28.6026H122.238ZM144.018 35.438L130.602 7.81452H130.453L118.028 34.3785C116.593 37.4274 115.303 39.6001 113.374 40.521V40.6149H121.196V40.521C119.808 39.9667 118.822 38.8133 118.822 37.4274C118.822 36.274 119.219 35.21 119.663 34.2399L121.691 29.8051H136.542L139.163 35.3039C139.71 36.4126 140.004 37.338 140.004 38.0757C140.004 39.1843 139.163 39.9712 137.729 40.5255V40.6194H148.023V40.5255C146.093 39.6001 145.5 38.4467 144.014 35.4425" fill="#F3F2EE"/>
<path d="M170.462 39.3945H162.443V13.8274C162.443 10.7383 162.892 8.8651 165.266 7.92628V7.8324H155.168V7.92628C157.541 8.8651 157.99 10.7338 157.99 13.8274V34.6154C157.99 37.7046 157.546 39.5778 155.168 40.5166V40.6104H180.359L181.943 31.5263H181.845C179.224 36.4886 176.004 39.39 170.462 39.39" fill="#F3F2EE"/>
<path d="M205.373 39.3945H197.354V13.8274C197.354 10.7383 197.803 8.8651 200.177 7.92628V7.8324H190.079V7.92628C192.453 8.8651 192.901 10.7338 192.901 13.8274V34.6154C192.901 37.7046 192.457 39.5778 190.079 40.5166V40.6104H215.27L216.854 31.5263H216.756C214.135 36.4886 210.915 39.39 205.373 39.39" fill="#F3F2EE"/>
<path d="M285.186 39.5643C277.625 39.5643 273.676 32.9569 273.676 24.2125C273.676 15.4681 277.625 8.86063 285.186 8.86063C292.746 8.86063 296.695 15.4636 296.695 24.2125C296.695 32.9613 292.746 39.5643 285.186 39.5643ZM285.186 7.81452C276.228 7.81452 268.667 14.65 268.667 24.2125C268.667 33.775 276.228 40.6105 285.186 40.6105C294.144 40.6105 301.704 33.775 301.704 24.2125C301.704 14.65 294.144 7.81452 285.186 7.81452Z" fill="#F3F2EE"/>
<path d="M318.214 23.989V9.05285H325.092C330.634 9.05285 333.756 11.4893 333.756 16.6841C333.756 22.2097 330.195 23.989 325.092 23.989H318.214ZM337.368 34.7585L335.98 30.8244C334.793 27.4983 332.316 25.1602 327.27 24.7847C332.812 24.5969 338.653 22.4421 338.653 16.4516C338.653 10.0856 332.863 7.83687 325.732 7.83687H310.933V7.93075C313.307 8.86956 313.756 10.7383 313.756 13.8319V34.6199C313.756 37.7091 313.312 39.5822 310.933 40.521V40.6149H321.031V40.521C318.658 39.5867 318.209 37.7135 318.209 34.6199V25.2094H324.2C328.503 25.2094 330.041 28.0169 331.279 31.343L332.812 35.5587C333.653 37.8074 334.592 39.8192 335.634 40.6149H343.209V40.521C340.19 39.4928 338.658 38.4154 337.368 34.763" fill="#F3F2EE"/>
<path d="M365.064 39.3945H357.045V13.8274C357.045 10.7383 357.489 8.8651 359.868 7.92628V7.8324H349.77V7.92628C352.143 8.8651 352.592 10.7338 352.592 13.8274V34.6154C352.592 37.7046 352.148 39.5778 349.77 40.5166V40.6104H374.961L376.545 31.5263H376.447C373.826 36.4886 370.606 39.39 365.064 39.39" fill="#F3F2EE"/>
<path d="M396.732 39.3945H391.686V9.05285H395.994C404.952 9.05285 411.882 13.9705 411.882 23.8504C411.882 35.2279 404.9 39.3945 396.737 39.3945M396.433 7.83687H384.405V7.93075C386.779 8.86956 387.228 10.7383 387.228 13.8319V34.6199C387.228 37.7091 386.784 39.5822 384.405 40.521V40.6149H397.62C408.013 40.6149 416.774 35.2279 416.774 23.8504C416.774 13.2686 408.358 7.83687 396.433 7.83687Z" fill="#F3F2EE"/>
<path d="M260.335 3.89385L259.873 0L259.41 3.89385C259.186 5.77595 257.635 7.26464 255.663 7.47923L251.593 7.92181L255.663 8.36439C257.63 8.57898 259.186 10.0632 259.41 11.9498L259.873 15.8436L260.335 11.9498C260.56 10.0677 262.111 8.57898 264.083 8.36439L268.153 7.92181L264.083 7.47923C262.116 7.26464 260.56 5.78042 260.335 3.89385Z" fill="#F3F2EE"/>
<path d="M243.686 10.3851C243.686 9.27639 244.574 8.49404 245.765 7.93969V7.84581H236.167V7.93969C237.798 8.8651 238.541 10.0185 239.779 13.0138L241.312 16.9836L242.055 18.9685L250.317 40.6105H250.466L252.592 35.3486L244.382 13.1524C243.938 12.0437 243.69 11.1227 243.69 10.3851" fill="#F3F2EE"/>
<path d="M226.864 13.1568C226.42 12.0481 226.172 11.1272 226.172 10.3895C226.172 9.28085 227.065 8.49851 228.252 7.94416V7.85028H218.504V7.94416C220.135 8.86956 220.878 10.023 222.116 13.0182L233.345 40.6149H233.495L235.551 35.4157L233.696 30.3148L226.864 13.1568Z" fill="#F3F2EE"/>
<path d="M30.3176 35.4023L17.042 7.81452H16.8971L4.60279 34.3427C3.18223 37.3872 1.90653 39.5554 0 40.4808V40.5747H7.73829V40.4808C6.36913 39.9265 5.38783 38.7731 5.38783 37.3872C5.38783 36.2338 5.78035 35.1743 6.2196 34.2042L8.01399 30.2477L15.3831 13.9436L21.556 26.9261L22.9205 29.7694H22.9251L25.5233 35.2592C26.0606 36.3679 26.355 37.2888 26.355 38.0265C26.355 39.1352 25.5233 39.9175 24.1027 40.4719V40.5657H34.2896V40.4719C32.3784 39.5465 31.7896 38.3931 30.3223 35.3978" fill="#F3F2EE"/>
<path d="M46.9531 21.9191C42.7615 20.8193 39.1074 19.4424 39.1074 15.2714C39.1074 11.1004 42.4718 8.85168 46.0746 8.85168C51.3363 8.85168 54.7989 12.5667 56.9905 17.1043H57.0839L57.1073 17.149L57.0652 16.9791C56.9578 16.4427 56.5092 14.27 55.8877 12.3879C55.8877 12.3834 55.8877 12.3789 55.8877 12.3745L55.2148 9.74579C55.1914 9.66085 55.1213 9.59379 55.0325 9.56697L49.5139 8.17216C49.5139 8.17216 47.4298 7.79216 46.084 7.79216C40.3316 7.79216 35.4625 11.23 35.4625 16.6438C35.4625 22.925 40.7242 24.4852 45.7428 25.8621C50.4204 27.1452 54.9064 28.2941 54.9064 32.8809C54.9064 37.4677 51.4484 39.761 47.1587 39.761C46.7569 39.761 46.4111 39.77 46.1167 39.7834L45.7709 40.6239C46.1961 40.6417 46.6681 40.6552 47.0419 40.6552C52.8877 40.6552 58.8082 38.0667 58.8082 31.7364C58.8082 24.6729 52.4718 23.3452 46.9671 21.9236" fill="#F3F2EE"/>
</svg>
