<svg width="40" height="40" viewBox="0 0 40 40" fill="none" xmlns="http://www.w3.org/2000/svg">
<g filter="url(#filter0_i_1968_4265)">
<circle cx="20" cy="20" r="20" fill="white"/>
</g>
<g filter="url(#filter1_d_1968_4265)">
<path d="M31.9943 31.9998L32.0003 31.9988V23.1968C32.0003 18.8907 31.0733 15.5737 26.0393 15.5737C23.6193 15.5737 21.9953 16.9017 21.3323 18.1607H21.2623V15.9757H16.4893V31.9988H21.4593V24.0648C21.4593 21.9758 21.8553 19.9557 24.4423 19.9557C26.9913 19.9557 27.0293 22.3398 27.0293 24.1988V31.9998H31.9943Z" fill="#0D2937"/>
<path d="M8.396 15.9771H13.372V32.0001H8.396V15.9771Z" fill="#0D2937"/>
<path d="M10.882 8C9.291 8 8 9.291 8 10.882C8 12.473 9.291 13.791 10.882 13.791C12.473 13.791 13.764 12.473 13.764 10.882C13.763 9.291 12.472 8 10.882 8Z" fill="#0D2937"/>
</g>
<defs>
<filter id="filter0_i_1968_4265" x="0" y="0" width="40" height="45" filterUnits="userSpaceOnUse" color-interpolation-filters="sRGB">
<feFlood flood-opacity="0" result="BackgroundImageFix"/>
<feBlend mode="normal" in="SourceGraphic" in2="BackgroundImageFix" result="shape"/>
<feColorMatrix in="SourceAlpha" type="matrix" values="0 0 0 0 0 0 0 0 0 0 0 0 0 0 0 0 0 0 127 0" result="hardAlpha"/>
<feOffset dy="5"/>
<feGaussianBlur stdDeviation="5"/>
<feComposite in2="hardAlpha" operator="arithmetic" k2="-1" k3="1"/>
<feColorMatrix type="matrix" values="0 0 0 0 0 0 0 0 0 0 0 0 0 0 0 0 0 0 0.25 0"/>
<feBlend mode="normal" in2="shape" result="effect1_innerShadow_1968_4265"/>
</filter>
<filter id="filter1_d_1968_4265" x="5" y="7" width="30.0005" height="30" filterUnits="userSpaceOnUse" color-interpolation-filters="sRGB">
<feFlood flood-opacity="0" result="BackgroundImageFix"/>
<feColorMatrix in="SourceAlpha" type="matrix" values="0 0 0 0 0 0 0 0 0 0 0 0 0 0 0 0 0 0 127 0" result="hardAlpha"/>
<feOffset dy="2"/>
<feGaussianBlur stdDeviation="1.5"/>
<feComposite in2="hardAlpha" operator="out"/>
<feColorMatrix type="matrix" values="0 0 0 0 0 0 0 0 0 0 0 0 0 0 0 0 0 0 0.25 0"/>
<feBlend mode="normal" in2="BackgroundImageFix" result="effect1_dropShadow_1968_4265"/>
<feBlend mode="normal" in="SourceGraphic" in2="effect1_dropShadow_1968_4265" result="shape"/>
</filter>
</defs>
</svg>
