<svg width="63" height="51" viewBox="0 0 63 51" fill="none" xmlns="http://www.w3.org/2000/svg">
<path fill-rule="evenodd" clip-rule="evenodd" d="M28.8066 26.5181C28.8869 26.5034 28.9658 26.496 29.0447 26.4814C28.9091 26.3305 28.7045 25.7311 28.8744 25.6758C28.8747 25.6752 28.8912 25.5512 28.935 25.5512C29.2056 25.3141 30.199 25.2264 30.5837 25.3609C30.5971 25.4515 30.6916 25.423 30.6868 25.4561C30.7023 25.5338 30.9149 25.5576 30.9645 25.6464L31.0273 26.2176C30.9885 26.2322 31.0478 26.2543 31.0339 26.2761C31.0807 26.4448 31.0908 26.3691 30.9746 26.5911C31.2144 26.6363 31.6005 26.7393 31.8114 26.8401C32.0358 26.9472 32.4534 26.8954 32.4938 27.0304C32.5789 27.1875 33.3661 27.2687 33.4562 27.6895L33.1872 27.6749C33.1909 27.6822 33.1939 27.6895 33.1989 27.6895C33.2471 27.7584 33.14 27.7482 33.12 27.8067C33.1008 27.8628 33.454 28.0107 32.7253 27.9093C31.9066 27.7914 30.7455 27.9727 29.8959 28.0265C26.2573 28.4675 27.0438 30.8634 30.4389 30.6993C35.3014 30.8037 35.922 36.3437 30.8919 36.9684H30.8971L31.0015 37.2246H31.0037C31.061 37.3761 31.0858 37.4389 31.0447 37.5762C31.0091 37.5762 31.0363 37.6541 30.9898 37.6641C30.8766 38.0751 29.6129 38.1106 29.2813 37.9791C29.2609 37.8787 29.2226 37.9664 29.1571 37.8473L29.0461 37.7886C29.0666 37.7812 29.0023 37.7666 28.965 37.7593L28.9518 37.7227C28.829 37.6458 28.8998 37.6542 28.8715 37.5982C28.8628 37.5762 28.8692 37.5616 28.8816 37.547C28.8883 37.5397 28.8729 37.5323 28.8715 37.5249L28.8605 37.3126C28.8529 37.2656 28.8269 37.3361 28.8336 37.1369C28.8336 37.1295 28.8168 37.1148 28.8387 37.1076C28.8992 37.0837 28.7367 37.0093 28.8249 36.8439C28.8256 36.8439 28.8271 36.8367 28.8285 36.8367C28.0903 36.5295 26.8546 36.1213 26.648 35.0571C27.3301 34.8794 28.3861 35.1317 29.1918 35.1669C30.0748 35.0046 31.6435 34.8707 32.1557 34.0538C32.4727 32.604 29.4674 32.8481 28.5414 32.6111C24.5852 31.6648 24.6883 27.1423 28.8066 26.5181ZM52.4651 36.0678C52.4904 33.9941 52.386 28.3942 52.4235 26.2325C52.4609 24.5572 48.7522 26.3351 48.3502 22.1752C48.3454 21.6816 47.9598 21.308 47.4952 21.3111C37.1557 21.4558 21.7827 21.3927 13.6777 22.2852C13.6352 22.3261 13.5377 22.348 13.4979 22.3511L13.7325 22.395L12.654 22.4535C24.1873 23.0095 35.1447 23.0719 46.6081 23.1493C46.9961 25.1513 48.5186 26.7128 50.4988 27.1552L50.4176 36.0604C48.4431 36.4906 46.9289 38.0273 46.508 40.0224C35.7527 40.0161 24.109 40.0788 13.3453 40.0662C12.8977 38.1201 11.2082 36.5036 9.22302 36.1702C9.10549 33.1959 9.0844 29.8196 8.9797 26.8475C11.0063 26.6169 12.9836 24.3563 12.5151 22.3143C12.4704 23.0581 11.4874 24.5825 10.1072 25.2876C9.33848 25.874 7.86795 25.1667 7.6963 26.1808C7.49014 29.8516 7.29902 33.4127 7.29239 37.0636C7.367 38.691 9.5964 37.633 10.626 39.2166C10.6201 39.3626 10.6822 39.429 10.6705 39.4144C10.6878 39.66 10.8126 39.8317 10.9942 40.0076C10.9957 40.0076 10.9987 40.0076 10.9994 40.0148C11.6252 40.6042 10.7916 42.0741 12.3697 42.2118C22.6715 42.2962 35.4874 42.2174 45.7267 42.1092C46.4981 42.0327 48.4302 42.4837 48.4684 41.2011C48.5121 40.6092 48.4832 40.623 48.6637 40.066C50.1785 36.5306 52.8464 39.5774 52.4651 36.0678ZM61.1217 24.5335C61.2269 23.7407 60.2781 22.5549 59.8362 21.8092C58.2061 19.0707 55.5215 14.3783 53.8849 11.5638C53.3951 10.698 51.59 7.67695 51.0854 6.75226C50.3059 5.73402 50.146 4.07749 48.6256 3.9034C40.5476 7.54217 31.6549 13.514 23.5765 17.4958C25.6456 17.4318 28.1738 17.3941 30.2681 17.3932C33.1751 14.6506 37.3332 12.6032 40.7026 10.5091C41.7457 10.0619 44.4895 7.38552 45.3216 8.78814C46.141 10.2851 48.25 10.6326 49.5982 9.79145C50.8027 9.25529 51.3266 10.8864 51.7686 11.6736C52.7649 13.3899 53.9626 15.6575 54.3883 17.5763C55.7441 18.1658 56.5672 19.6376 56.4747 21.0915L56.4828 28.4441C57.6836 27.199 60.9895 26.2161 61.1217 24.5335ZM43.5571 11.1975L44.1913 10.7946C45.5796 12.3122 47.6506 12.8036 49.5895 12.1934C50.517 13.9055 51.8422 15.698 52.951 17.2539C47.1769 17.2842 37.7383 17.3421 32.0651 17.3784C35.919 15.4865 39.7745 13.2601 43.5571 11.1975ZM54.5666 22.9223C54.593 21.4422 54.962 19.1347 52.8346 19.0922C38.3596 18.9631 21.4417 19.1727 6.9656 18.5136C7.22499 18.4548 8.13324 18.4279 8.45929 18.4184C7.97486 18.3646 8.29899 18.3701 8.51916 18.2719C5.44109 18.0568 19.1338 17.7315 19.7422 17.6348C19.0076 6.09048 3.17586 7.68921 4.92319 18.7626C5.43165 18.4149 6.28401 18.2136 6.9656 18.3158C5.13244 18.5029 4.48875 20.3678 4.87939 22.0362C5.00164 23.5158 4.86685 25.3479 4.95887 26.833C5.0304 32.0168 5.18789 37.2462 5.26796 42.4172C5.2544 43.7211 6.54827 44.3044 7.71606 44.1308C21.9621 44.0474 39.2755 44.2042 53.2876 44.0285C53.9748 43.8444 54.4672 43.1922 54.4672 42.4831C54.4674 35.9596 54.5218 29.4457 54.5666 22.9223ZM24.3373 46.4744C22.9811 47.2043 21.4158 47.9098 20.1347 48.73C18.3127 49.3909 18.0495 47.5086 16.7615 46.3133C16.7571 46.3306 24.3957 46.3096 24.634 46.3133L24.3373 46.4744ZM3.49232 22.8783C-5.28916 6.67363 20.6551 -1.29612 22.9247 16.983L22.1268 17.5469L20.4234 17.6054C22.9467 11.8098 15.9038 6.15713 10.3814 7.66793C5.46011 8.60962 1.37529 14.689 4.43212 19.2753C3.63109 20.2401 3.87736 22.1393 3.72915 23.2958C3.67533 23.2171 3.482 22.9687 3.49232 22.8783ZM24.004 15.0202C24.0698 10.9483 21.1337 7.1693 17.5968 5.41199C24.4028 2.81718 29.1347 11.038 23.9558 15.9137C24.0076 15.5706 24.0104 15.3768 24.004 15.0202ZM13.9116 4.26947C20.8499 -1.32981 29.7392 3.77025 29.7632 12.3472L27.8823 13.497C30.8129 7.11655 21.6027 -0.379405 16.4853 4.94337C15.5656 4.61159 14.8452 4.42671 13.8604 4.29888C13.8765 4.29149 13.8933 4.27686 13.9116 4.26947ZM62.9917 23.9621C62.9468 22.5576 61.8649 21.2995 61.2715 20.11C47.4301 -2.96624 54.3013 -1.9307 30.9075 11.6587C33.7215 1.81683 17.6928 -4.68704 12.7517 4.2108C2.62699 3.35379 -4.76109 17.4065 3.67267 24.2476C3.55514 30.7394 2.7572 37.3899 3.46622 43.8377C4.08897 45.4725 5.78896 46.4077 7.47849 46.2691L15.1391 46.3131C15.6919 50.3123 19.1572 52.5915 22.5168 49.6962C24.0753 48.6221 26.0955 47.7094 27.4882 46.3059C59.2513 44.9037 56.8168 52.3846 56.4834 29.2057C58.9011 28.1557 63.2148 27.4405 62.9917 23.9621Z" fill="#0D2937"/>
</svg>
