<svg width="40" height="40" viewBox="0 0 40 40" fill="none" xmlns="http://www.w3.org/2000/svg">
<g filter="url(#filter0_i_1968_4251)">
<circle cx="20" cy="20" r="20" fill="white"/>
</g>
<path d="M31.9369 15.762C31.8831 14.5399 31.6854 13.6998 31.4023 12.9718C31.1103 12.199 30.661 11.5071 30.0723 10.932C29.4972 10.3479 28.8008 9.89404 28.0369 9.60656C27.3047 9.32346 26.4689 9.12584 25.2469 9.07196C24.0157 9.01351 23.6248 9 20.5022 9C17.3795 9 16.9886 9.01351 15.762 9.0674C14.5399 9.12128 13.6998 9.31908 12.9719 9.602C12.199 9.89404 11.5071 10.3433 10.932 10.932C10.3479 11.5071 9.89422 12.2036 9.60656 12.9674C9.32346 13.6998 9.12584 14.5354 9.07196 15.7575C9.01351 16.9886 9 17.3795 9 20.5022C9 23.6248 9.01351 24.0157 9.0674 25.2423C9.12128 26.4644 9.31908 27.3045 9.60217 28.0326C9.89422 28.8053 10.3479 29.4972 10.932 30.0723C11.5071 30.6564 12.2036 31.1103 12.9674 31.3978C13.6998 31.6809 14.5354 31.8785 15.7576 31.9324C16.9841 31.9864 17.3751 31.9998 20.4978 31.9998C23.6204 31.9998 24.0113 31.9864 25.2379 31.9324C26.46 31.8785 27.3002 31.6809 28.028 31.3978C29.5737 30.8002 30.7958 29.5781 31.3934 28.0326C31.6763 27.3002 31.8741 26.4644 31.928 25.2423C31.9819 24.0157 31.9954 23.6248 31.9954 20.5022C31.9954 17.3795 31.9908 16.9886 31.9369 15.762ZM29.8658 25.1525C29.8163 26.2757 29.6276 26.8823 29.4703 27.2866C29.0839 28.2886 28.2886 29.0839 27.2866 29.4703C26.8823 29.6276 26.2713 29.8163 25.1525 29.8656C23.9393 29.9196 23.5755 29.933 20.5067 29.933C17.438 29.933 17.0696 29.9196 15.8608 29.8656C14.7376 29.8163 14.131 29.6276 13.7266 29.4703C13.228 29.286 12.7741 28.994 12.4058 28.6121C12.0238 28.2391 11.7318 27.7898 11.5475 27.2912C11.3903 26.8868 11.2016 26.2757 11.1523 25.157C11.0982 23.9439 11.0849 23.5799 11.0849 20.5111C11.0849 17.4423 11.0982 17.0739 11.1523 15.8654C11.2016 14.7421 11.3903 14.1356 11.5475 13.7312C11.7318 13.2324 12.0238 12.7787 12.4103 12.4101C12.7831 12.0282 13.2324 11.7362 13.7312 11.5521C14.1356 11.3948 14.7467 11.2061 15.8654 11.1567C17.0785 11.1028 17.4425 11.0893 20.5111 11.0893C23.5845 11.0893 23.9483 11.1028 25.157 11.1567C26.2803 11.2061 26.8868 11.3948 27.2912 11.5521C27.7898 11.7362 28.2437 12.0282 28.6121 12.4101C28.994 12.7831 29.286 13.2324 29.4703 13.7312C29.6276 14.1356 29.8163 14.7465 29.8658 15.8654C29.9196 17.0785 29.9331 17.4423 29.9331 20.5111C29.9331 23.5799 29.9196 23.9393 29.8658 25.1525Z" fill="#0D2937"/>
<path d="M20.5021 14.5938C17.2403 14.5938 14.5938 17.2401 14.5938 20.5021C14.5938 23.7641 17.2403 26.4104 20.5021 26.4104C23.7641 26.4104 26.4104 23.7641 26.4104 20.5021C26.4104 17.2401 23.7641 14.5938 20.5021 14.5938ZM20.5021 24.3347C18.386 24.3347 16.6695 22.6184 16.6695 20.5021C16.6695 18.3858 18.386 16.6695 20.5021 16.6695C22.6184 16.6695 24.3347 18.3858 24.3347 20.5021C24.3347 22.6184 22.6184 24.3347 20.5021 24.3347Z" fill="#0D2937"/>
<path d="M28.0235 14.3603C28.0235 15.122 27.4059 15.7396 26.644 15.7396C25.8823 15.7396 25.2646 15.122 25.2646 14.3603C25.2646 13.5984 25.8823 12.981 26.644 12.981C27.4059 12.981 28.0235 13.5984 28.0235 14.3603Z" fill="#0D2937"/>
<defs>
<filter id="filter0_i_1968_4251" x="0" y="0" width="40" height="45" filterUnits="userSpaceOnUse" color-interpolation-filters="sRGB">
<feFlood flood-opacity="0" result="BackgroundImageFix"/>
<feBlend mode="normal" in="SourceGraphic" in2="BackgroundImageFix" result="shape"/>
<feColorMatrix in="SourceAlpha" type="matrix" values="0 0 0 0 0 0 0 0 0 0 0 0 0 0 0 0 0 0 127 0" result="hardAlpha"/>
<feOffset dy="5"/>
<feGaussianBlur stdDeviation="5"/>
<feComposite in2="hardAlpha" operator="arithmetic" k2="-1" k3="1"/>
<feColorMatrix type="matrix" values="0 0 0 0 0 0 0 0 0 0 0 0 0 0 0 0 0 0 0.25 0"/>
<feBlend mode="normal" in2="shape" result="effect1_innerShadow_1968_4251"/>
</filter>
</defs>
</svg>
