<svg width="70" height="51" viewBox="0 0 70 51" fill="none" xmlns="http://www.w3.org/2000/svg">
<path fill-rule="evenodd" clip-rule="evenodd" d="M49.737 39.9697L48.1448 41.5903L46.8434 42.8973C46.7808 42.9497 46.7205 43.0018 46.6605 43.0629C46.6223 43.0211 46.339 42.9232 46.2637 42.8015C46.2594 42.7929 46.2522 42.7929 46.2443 42.7929C46.1428 42.7815 46.0468 42.5993 45.9076 42.5664C45.7693 42.5335 45.4041 42.0988 45.0196 41.8693C44.8151 41.7472 44.5124 41.4076 44.4718 41.4076L45.8705 39.9264C46.1983 39.5866 46.1841 39.0463 45.8413 38.7239L44.8331 37.809C44.7547 37.7677 44.8149 37.7256 44.5707 37.5564L44.3419 37.3559C44.4172 37.2945 44.5145 37.1904 44.5805 37.2078C44.7314 37.2477 44.8279 36.8844 45.0585 36.7547C45.3703 36.5795 46.1827 35.817 46.2609 35.8137C46.4313 35.8067 46.4796 35.6558 46.5596 35.5872C46.602 35.5523 46.6489 35.5175 46.6913 35.4827C47.0152 35.8187 48.0363 36.8285 48.3055 37.1643L49.6866 38.6716L50.3466 39.3687L49.737 39.9697ZM52.7013 38.4624L52.0978 37.896L51.6869 37.5562C51.5482 37.4255 51.4245 37.2862 51.2672 37.1816L49.5161 35.4826L47.5439 33.705C47.4585 33.6603 47.5641 33.655 47.347 33.5134L47.1862 33.3827C46.869 33.1299 46.4017 33.1736 46.1436 33.4873L45.8078 33.8359C44.6486 35.0552 44.5241 35.408 43.7377 36.8159C42.2621 35.5009 41.9359 35.4534 40.3757 34.4634C39.7666 34.0657 40.0569 34.3551 40.0814 34.4547C40.0727 34.4634 40.0646 34.4808 40.0559 34.4982C40.0097 34.4982 40.0422 34.5518 40.0532 34.5766C40.0585 34.5766 40.0629 34.5941 40.0674 34.6027C40.0347 34.5771 39.9048 34.4761 39.8678 34.4981C40.1756 35.2586 40.6477 35.4415 40.7019 35.7005C40.7394 35.8793 41.0638 36.0318 41.2126 36.2668L41.9124 37.1729C41.9916 37.2677 42.2873 37.5766 42.3092 37.6697C42.3521 37.8513 42.4321 37.8726 42.5662 38.0183C42.6103 38.0618 42.6492 38.1227 42.6944 38.1751L43.7448 39.3077L41.5882 41.2857C40.9808 41.8396 40.4178 42.3238 39.8414 42.9063L38.1927 41.2944C38.0346 41.1376 37.8675 40.9981 37.7094 40.8499L36.1552 39.3252C36.5176 38.9717 36.7001 38.6903 37.0096 38.3144C37.0697 38.2446 37.1422 38.1923 37.1935 38.1053C37.2801 37.9572 37.3561 37.7829 37.4762 37.6783C37.4815 37.6783 37.4858 37.6695 37.4904 37.6609C37.5673 37.4822 37.6874 37.454 37.7572 37.2688L38.2378 36.6675C38.4833 36.411 38.6458 36.0814 38.8315 35.9008C39.3056 35.4398 39.1155 35.4209 39.4721 34.9946C39.6105 34.8294 39.5756 34.7337 39.6842 34.62C39.7764 34.5231 39.7178 34.5148 39.868 34.289C39.7435 34.3047 39.7423 34.228 39.7169 34.228C39.4914 34.228 39.7666 33.9828 39.0383 34.3326C38.7372 34.4772 38.6391 34.505 38.3315 34.7073C37.968 34.9465 37.8287 34.9622 37.6882 35.0559C36.8197 35.6354 35.9059 36.4049 35.1499 37.1296C35.1322 37.147 35.1137 37.1645 35.0925 37.1819C34.7912 37.405 34.5154 37.6776 34.2461 37.9401L33.6461 38.489C33.169 38.942 33.1557 39.6914 33.6169 40.1619C35.0282 41.6274 36.3793 42.8357 37.8658 44.1961C38.0937 44.4052 38.3147 44.6143 38.5337 44.8322C38.6106 44.9106 38.7034 44.9715 38.7829 45.0501L39.1213 45.3724C39.5401 45.782 40.2141 45.7732 40.6251 45.3638L41.5943 44.3705C41.7029 44.2486 41.8063 44.1179 41.9194 43.9872C42.0758 43.8304 42.2463 43.6735 42.3832 43.4904L43.6007 42.2706C43.7186 42.5289 43.7368 42.6207 43.9056 42.8806C44.3676 43.5914 43.9115 43.1955 44.8827 44.327C45.039 44.51 45.191 44.693 45.3537 44.8672L45.8511 45.364C46.1324 45.8466 46.8338 45.9762 47.3027 45.6254C47.7519 45.2892 47.7237 45.2828 48.1147 44.9196C48.1721 44.8672 48.2383 44.8237 48.2959 44.7714L49.2394 43.8827L49.9798 43.1159L51.2345 41.8089L52.8531 40.075C53.264 39.6568 53.2569 38.9945 52.8372 38.5938L52.7013 38.4624ZM25.7967 34.1667C25.8436 34.28 25.8436 34.28 25.8982 34.3409C25.7324 34.483 25.8167 34.4891 25.7489 34.4891C25.6524 34.4891 25.6787 34.6103 25.5687 34.6284C25.2704 34.678 25.3921 34.8731 25.0023 34.8289C24.8444 34.8109 24.6713 34.9335 24.4626 34.9335C23.9477 34.9335 24.0158 35.0381 23.8936 35.0381C23.7132 35.0381 23.8046 35.0785 23.739 35.073C23.6383 35.0556 23.5446 35.1253 23.4483 35.1602L23.2009 35.1777C22.9294 35.2616 22.0678 35.2861 21.7679 35.256L19.9019 35.2735C19.7809 35.2823 19.6606 35.2996 19.5388 35.2996H18.2258L17.2328 35.3431C16.4731 35.3857 14.9548 35.2153 14.0564 35.1688L11.6118 35.0817C11.4244 35.1089 11.4736 35.0078 11.4015 35.0033C11.2504 34.9895 10.5571 34.9114 10.4243 34.8551C10.2852 34.7943 10.0234 34.9637 9.97824 34.8465C9.91784 34.6899 9.55647 34.8845 9.38717 34.6983L9.2555 34.5502C9.29052 34.4785 9.3588 34.4839 9.41903 34.4456C9.35513 34.4456 9.42621 34.3105 9.42603 34.2888C9.42603 34.2494 9.16569 34.1918 9.64681 34.0187C10.2881 33.7882 10.9452 33.3913 11.6506 33.3566L12.5332 33.2956C12.6798 33.2485 12.6727 33.3219 12.7205 33.2956L14.0857 33.2085C14.2269 33.1998 14.3684 33.1824 14.508 33.1736L16.1549 33.1561C16.2803 33.1213 16.4058 33.1387 16.5322 33.1301L16.8919 33.0777C17.0899 33.1069 17.1825 33.0603 17.4502 33.0603L18.0085 33.0342C18.1799 33.0342 18.3505 33.0342 18.5228 33.0256L19.1933 32.9558C19.954 32.9432 20.664 32.8743 21.4657 32.8949L22.7027 32.9733L23.178 32.9819C23.4595 32.998 24.3251 33.094 24.5007 33.2345C24.6511 33.355 24.904 33.3687 25.106 33.5046C25.3495 33.6684 25.4544 33.6601 25.6654 33.9053C25.7076 33.9545 25.6673 33.9752 25.7811 34.1318C25.7871 34.1406 25.7923 34.1581 25.7967 34.1667ZM17.526 44.6138C17.5498 44.727 17.5498 44.727 17.5773 44.7794L17.5022 44.9275C17.4576 44.9389 17.4616 45.0598 17.412 45.0756C17.2804 45.1181 17.3173 45.3189 17.1284 45.2761C17.0193 45.2514 17.0724 45.3649 16.7192 45.3982C16.6105 45.4084 16.6394 45.4726 16.5751 45.4852C16.5513 45.4852 16.5265 45.4764 16.5035 45.5113C16.5009 45.5199 16.4983 45.5199 16.4974 45.5199C16.4461 45.4938 16.3994 45.5634 16.3516 45.6071C16.3169 45.638 16.2614 45.6036 16.2269 45.6245C16.0518 45.7309 15.7097 45.7205 15.5113 45.6943C15.4777 45.6943 15.446 45.7029 15.4133 45.7117L14.5775 45.7204C14.4519 45.7257 13.8523 45.7775 13.7407 45.7464C13.5889 45.7041 13.2822 45.8397 12.6894 45.7551L11.6548 45.6157L10.4338 45.5285C10.3669 45.5686 10.355 45.4534 10.3286 45.4501C10.2932 45.4415 10.2605 45.4415 10.227 45.4153C10.2253 45.4142 9.97877 45.4035 9.83923 45.2934C9.76184 45.2322 9.64121 45.4161 9.61565 45.2847C9.58886 45.1471 9.4101 45.3098 9.32063 45.1366C9.26986 45.0385 9.20351 44.9802 9.33657 44.8926L9.34094 44.7358C9.34147 44.7172 9.27074 44.6138 9.31538 44.6138C9.37001 44.5148 9.8851 44.0967 10.0036 44.0126C10.3429 43.7719 10.3396 43.8164 10.7174 43.7598L10.8932 43.7424C10.9741 43.689 10.9454 43.7591 10.9886 43.7424C11.145 43.6819 11.479 43.6876 11.6708 43.6465C11.8844 43.6008 12.6484 43.6175 12.7044 43.603C13.1635 43.4949 13.1269 43.5264 13.542 43.4984C13.5713 43.4984 13.6021 43.4723 13.6313 43.4723C13.941 43.4803 14.284 43.3811 14.6165 43.359L15.3604 43.3416L15.9779 43.42L16.2175 43.4288C16.3815 43.4474 16.7695 43.5336 16.8775 43.6728C16.9717 43.7943 17.204 43.9159 17.3891 44.2042C17.4952 44.3698 17.4668 44.4677 17.526 44.6138ZM25.7967 39.3946C25.8436 39.5078 25.8436 39.5078 25.8982 39.5601C25.7352 39.7 25.8251 39.7083 25.7489 39.7083C25.6579 39.7083 25.6979 39.8202 25.5687 39.8476C25.22 39.922 25.4316 40.0945 25.0023 40.0481C24.8807 40.035 24.669 40.1527 24.4626 40.1527C23.9797 40.1527 24.0305 40.2573 23.8936 40.2573C23.7363 40.2573 23.7582 40.3035 23.739 40.3009C23.6383 40.2748 23.5446 40.3444 23.4483 40.3881L23.2009 40.3967C22.8882 40.507 22.3865 40.4677 22.1522 40.4839C22.024 40.4927 21.8968 40.4927 21.7679 40.4753L19.9019 40.5013C19.7809 40.5013 19.6606 40.5188 19.5388 40.5274L18.2258 40.5188C18.0747 40.4839 17.9254 40.5448 17.776 40.5274C17.6011 40.5089 17.4078 40.5574 17.2326 40.5623C16.3792 40.5858 15.6111 40.4823 14.7427 40.4316L11.6114 40.3095C11.4733 40.3423 11.4556 40.2259 11.4011 40.2223C11.2464 40.2075 10.6082 40.1544 10.424 40.0742C10.2764 40.0098 10.0253 40.1885 9.97789 40.0653C9.92397 39.9255 9.5661 40.0895 9.38682 39.9172L9.25515 39.7691L9.41868 39.6732C9.39995 39.627 9.37053 39.662 9.40625 39.586C9.47803 39.4339 9.27511 39.4688 9.37526 39.3856C9.49151 39.2889 10.2647 38.9888 10.4541 38.9065C11.2448 38.5623 11.6035 38.5642 12.442 38.5231C12.5526 38.5178 12.6316 38.4836 12.6824 38.5145L14.5078 38.4012C15.241 38.3835 15.8104 38.408 16.5319 38.3489L16.8915 38.3054L17.8272 38.2793C17.8872 38.2707 17.9481 38.2533 18.0082 38.2533C18.7322 38.2533 19.2707 38.1559 19.9784 38.14C20.7669 38.1222 21.607 38.1081 22.394 38.1661L22.7403 38.201C22.9746 38.201 23.4389 38.1972 23.66 38.2533C23.7661 38.2802 24.3295 38.3168 24.5002 38.4537C24.6399 38.5656 24.8915 38.5903 25.1055 38.7238C25.2247 38.7982 25.6577 39.0264 25.6824 39.1594C25.7051 39.2792 25.7834 39.3416 25.7967 39.3946ZM33.3837 19.2324C33.3846 19.2237 33.3846 19.2237 33.3837 19.2237L33.4605 18.9972C33.4605 18.9972 33.473 18.9972 33.4756 18.9886L33.5525 18.9625C33.6277 18.87 33.7617 18.8492 33.7053 18.8492L33.7149 18.8232C33.7538 18.8145 33.7564 18.8145 33.7591 18.8145C33.7678 18.8059 33.7759 18.8059 33.7846 18.7971V18.771C33.9347 18.7261 34.1568 18.7738 34.3475 18.7536C34.371 18.7512 35.3133 18.8836 35.2814 19.0934C35.3028 19.0975 35.3975 19.2313 35.4087 19.3199C35.4332 19.5067 35.4344 19.4069 35.4997 19.5029L35.5501 19.6162C35.5501 19.6734 35.5881 19.6873 35.6209 19.7295H35.6253C35.692 19.8531 35.7117 19.902 35.6685 20.0083C35.6659 20.0083 35.6508 20.0169 35.6482 20.0169C35.6419 20.0294 35.6456 20.0779 35.6058 20.0779C35.602 20.1558 35.5461 20.1737 35.5431 20.1737C35.4971 20.2538 34.7479 20.3742 34.6374 20.3742H34.0765L33.7354 20.3219C33.7036 20.3219 33.7622 20.2984 33.6887 20.2784C33.6703 20.2697 33.5364 20.1718 33.3891 20.1477C33.3653 20.1477 33.3839 20.139 33.3776 20.1302C33.3665 20.1302 33.2406 20.0553 33.2981 19.9821L33.2504 19.6335C33.2874 19.6186 33.2175 19.587 33.2072 19.4853L33.3837 19.2324ZM51.5384 19.2324C51.5402 19.2237 51.5402 19.2237 51.5384 19.2237L51.6162 18.9972C51.6162 18.9972 51.6295 18.9972 51.6321 18.9886L51.7081 18.9625C51.796 18.866 51.9117 18.8492 51.8618 18.8492L51.8697 18.8232C51.9094 18.8145 51.9121 18.8145 51.9147 18.8145L51.9394 18.771C52.0772 18.7275 52.3242 18.7726 52.5031 18.7536C52.5037 18.7536 53.3852 18.8653 53.4396 19.0759L53.5641 19.3199L53.5783 19.4245C53.5785 19.4249 53.6834 19.5145 53.7047 19.6162C53.7047 19.6721 53.7455 19.688 53.7763 19.7295H53.7807C53.8343 19.8284 53.8742 19.9092 53.8239 20.0083C53.8213 20.0083 53.8071 20.0169 53.8028 20.0169C53.7986 20.0273 53.8001 20.0779 53.7613 20.0779C53.7613 20.1539 53.6986 20.1737 53.6986 20.1737C53.6492 20.255 52.902 20.3742 52.7929 20.3742H52.2319L51.8909 20.3219C51.8611 20.3219 51.9156 20.2977 51.8448 20.2784C51.8261 20.2697 51.6928 20.1718 51.5444 20.1477C51.5206 20.1477 51.5383 20.139 51.5328 20.1302C51.5263 20.1302 51.3942 20.0599 51.4533 19.9821L51.4057 19.6335C51.4481 19.616 51.3837 19.6074 51.3987 19.59C51.4223 19.5658 51.3735 19.5946 51.3625 19.4855L51.5384 19.2324ZM47.0007 19.2324C47.0015 19.2237 47.0015 19.2237 47.0007 19.2237L47.0758 18.9972C47.0766 18.9972 47.09 18.9972 47.0926 18.9886L47.1694 18.9625C47.2447 18.8694 47.3795 18.8492 47.3214 18.8492C47.2964 18.8142 47.2183 18.8144 47.3762 18.8144C47.385 18.8057 47.393 18.8057 47.4018 18.7969V18.7708C47.5399 18.7272 47.784 18.7726 47.9645 18.7534C47.9809 18.7517 48.9297 18.8876 48.8984 19.0932C48.9187 19.0972 49.0137 19.2274 49.0237 19.3197C49.0489 19.5262 49.0712 19.3978 49.1235 19.5288L49.2384 19.7293H49.241C49.31 19.8493 49.3268 19.9054 49.2851 20.0081C49.2825 20.0081 49.2674 20.0168 49.2648 20.0168C49.2555 20.0351 49.2608 20.0777 49.2224 20.0777C49.2193 20.1086 49.2023 20.1736 49.158 20.1736C49.0946 20.2906 48.0874 20.4035 47.8416 20.3914L47.352 20.3217C47.3202 20.3217 47.3787 20.2982 47.3051 20.2782C47.2869 20.2697 47.1516 20.1715 47.0056 20.1475C46.9818 20.1475 47.0003 20.1388 46.994 20.13C46.9842 20.13 46.8553 20.0548 46.9145 19.9819L46.8669 19.6333C46.9042 19.6186 46.8293 19.578 46.8245 19.4852L47.0007 19.2324ZM42.462 19.2324C42.5018 19.0385 42.5161 19.1352 42.5371 18.997C42.5389 18.997 42.5513 18.997 42.5539 18.9884L42.6308 18.9623C42.7057 18.8696 42.8404 18.8491 42.7836 18.8491L42.7915 18.823C42.8313 18.8144 42.8339 18.8144 42.8376 18.8144L42.8614 18.7708C43.0379 18.7603 43.3987 18.741 43.623 18.7883C43.8676 18.8399 44.3156 18.8793 44.3599 19.0932L44.4863 19.3197L44.4996 19.4244C44.4998 19.4247 44.6139 19.525 44.6287 19.616C44.6236 19.6663 44.6698 19.6918 44.7003 19.7293H44.7029C44.7617 19.8379 44.795 19.9032 44.747 20.0081C44.7444 20.0081 44.7293 20.0168 44.7267 20.0168C44.7171 20.0304 44.7255 20.0777 44.6843 20.0777C44.6805 20.1552 44.6252 20.1736 44.6208 20.1736C44.5576 20.2904 43.548 20.4035 43.3035 20.3914L42.8139 20.3217C42.7817 20.3217 42.839 20.2982 42.7672 20.2782C42.7462 20.2683 42.6131 20.1713 42.4676 20.1475C42.4438 20.1475 42.4624 20.1388 42.4561 20.13C42.4436 20.13 42.319 20.0589 42.3775 19.9819L42.3235 19.6595C42.3235 19.6509 42.3041 19.6421 42.3298 19.6335C42.3598 19.6219 42.2887 19.5594 42.2847 19.4853L42.462 19.2324ZM37.9215 19.2324C37.9241 19.2237 37.9232 19.2237 37.9215 19.2237L37.9983 18.9972L38.0911 18.9623C38.1927 18.8622 38.2879 18.8491 38.2448 18.8491L38.2529 18.823C38.2926 18.8144 38.2952 18.8144 38.2979 18.8144L38.3234 18.7708C38.4502 18.7284 38.7172 18.7714 38.8862 18.7534L39.6707 18.9276C39.7847 18.962 39.7992 19.05 39.8227 19.0758C39.8153 19.1495 39.9298 19.1902 39.9613 19.4244C39.9613 19.4244 39.9578 19.4244 39.9622 19.433C40.0033 19.4437 39.9783 19.4782 40.0338 19.494L40.1611 19.7291H40.1637C40.2247 19.8417 40.2537 19.9054 40.207 20.008C40.2061 20.008 40.1902 20.0166 40.1875 20.0166C40.1793 20.0302 40.1849 20.0776 40.1443 20.0776L40.0886 20.1734C40.086 20.1734 40.0823 20.1734 40.0814 20.1734C40.0184 20.2899 39.0092 20.4034 38.7641 20.3913L38.2755 20.3215C38.2424 20.3215 38.2995 20.2977 38.2278 20.278C38.2089 20.2692 38.0732 20.1711 37.9292 20.1473C37.9036 20.1473 37.923 20.1387 37.9158 20.1299C37.9097 20.1299 37.7777 20.0589 37.8364 19.9817C37.8472 19.9396 37.749 19.649 37.7886 19.6331C37.8309 19.6157 37.7665 19.607 37.7816 19.5896C37.8054 19.5653 37.7563 19.5943 37.7453 19.4852L37.9215 19.2324ZM67.3926 31.3698C67.2996 32.3075 66.6531 33.0631 65.7873 33.4086C65.1913 33.6465 63.666 33.996 63.2489 34.2189C62.8177 34.454 62.3371 34.6371 61.831 34.8026C61.3628 34.951 61.464 34.9577 61.1427 35.1338L61.1268 19.145L61.1161 18.3782C61.0163 16.3134 59.3833 14.6862 57.2321 14.5619L55.3678 14.5533C54.2396 14.5707 53.1131 14.5793 51.9838 14.5881L45.4571 14.6142C44.3855 14.6316 43.3049 14.5968 42.2384 14.6491C42.1068 14.6491 41.9574 14.6491 41.8284 14.6491C40.8814 14.619 40.1245 14.6463 39.1955 14.6491L28.966 14.71C25.1622 14.733 21.2428 14.8915 17.435 15.0324C15.8906 15.0847 14.3372 15.137 12.807 15.2066C12.0321 15.2415 11.2555 15.2764 10.4772 15.3024C10.7097 15.2349 11.6007 14.9773 11.7646 14.9975C11.8777 15.0149 12.0199 14.9801 12.1587 14.9278C12.5908 14.78 13.8011 14.3811 14.2068 14.2917C15.2993 14.051 16.676 13.6561 17.779 13.3593C18.1325 13.2642 19.6456 12.8246 19.842 12.819C20.24 12.8078 20.8007 12.5818 21.2246 12.4618C21.4456 12.4009 21.6672 12.3485 21.8873 12.2876L24.3708 11.5557C27.81 10.563 31.2361 9.62791 34.6763 8.60196L36.2932 8.14889C41.4108 6.71546 46.5208 5.31017 51.6146 3.80093C52.5957 3.50879 53.5841 3.16968 54.5761 2.89481C55.0243 2.77066 56.2581 2.35628 56.6126 2.2936C56.9329 2.23697 57.435 2.30845 57.7409 2.44175C58.3675 2.7149 58.6334 3.12065 58.8409 3.70511L59.7475 6.68507C59.9525 7.32979 60.1575 7.98331 60.3632 8.62803L61.3775 11.9739L63.0994 17.6375C63.2073 17.9947 63.33 18.3433 63.4309 18.7006C63.6269 19.3976 63.8276 20.086 64.0475 20.7742C64.468 22.1074 64.8347 23.4493 65.2844 24.765L65.9666 26.8126C66.0655 27.1263 66.1423 27.4398 66.2589 27.7449C66.4542 28.2503 66.6769 28.7382 66.819 29.2785C66.826 29.3046 66.8376 29.3395 66.8483 29.3657C67.0179 29.7494 67.1921 30.4517 67.3262 30.7074C67.4129 30.8725 67.3994 31.1914 67.3926 31.3698ZM58.9584 35.8571L59.0097 28.965L57.4166 29.148C56.1271 29.3255 54.8618 29.4396 53.5689 29.5662C52.4079 29.6798 50.9785 29.6722 49.8067 29.6969L48.5503 29.7143C48.0834 29.7564 48.1168 29.6998 47.885 29.7143C47.5396 29.7578 47.1905 29.7317 46.8433 29.7404C45.6447 29.7889 44.271 29.7721 43.044 29.8101C40.1691 29.8657 37.2535 29.811 34.3694 29.8885L33.0962 29.932C32.7931 29.9146 32.4909 29.9232 32.1879 29.9407L29.7767 29.9581C29.5629 29.9581 29.3491 29.9842 29.136 29.9842C28.5299 29.9755 27.9231 29.9842 27.3169 29.9928C26.558 30.0016 25.7998 30.0277 25.0428 30.0538L18.1626 30.1235L15.0579 30.0974C14.8714 30.0974 14.685 30.08 14.4978 30.08L12.494 30.0365C11.2434 30.0228 7.20547 30.0013 6.12014 29.7837C5.75352 29.7053 5.37359 29.6704 4.99367 29.6356C4.37843 29.5839 3.12117 29.3856 2.5012 29.2523L1.98786 29.1129L2.01168 32.2148L2.04792 33.9835C2.1281 34.9582 2.05369 35.9741 2.1274 36.8675C2.13178 36.9198 2.13441 36.9808 2.13266 37.0243C2.1106 38.1048 2.1822 39.1242 2.22282 40.161C2.24751 40.7797 2.22808 41.4069 2.23438 42.0256L2.30249 46.661C2.30844 47.4064 2.764 48.1204 3.44577 48.4472C3.73605 48.5827 3.97732 48.6273 4.29036 48.6389L11.1527 48.6475C11.8656 48.6561 12.584 48.6389 13.2997 48.6389L46.9536 48.5953C47.9423 48.5953 48.9441 48.5779 49.9196 48.604C51.5736 48.6389 53.2108 48.5779 54.8585 48.5953H56.3455C57.098 48.5953 57.701 48.6506 58.2999 48.09C58.8071 47.6151 58.9249 47.1598 58.9299 46.5478L58.929 42.6965L58.9584 35.8571ZM2.89111 24.3295C2.55863 24.363 2.21827 24.3419 1.88912 24.3034L1.98541 28.4596H1.98629C2.07908 28.4073 2.20374 28.3898 2.33172 28.3898C3.32444 28.3637 2.89164 28.1343 4.33746 28.1807C4.96705 28.2009 5.61206 28.0678 6.25303 28.0763C6.42321 28.0785 7.62077 28.0706 7.82386 28.0239C8.13271 27.9532 8.63484 27.9942 8.77018 27.9456C8.78699 27.9369 8.80554 27.9369 8.82148 27.9369C9.17672 27.963 9.5106 27.8934 9.85166 27.8497C10.1083 27.8168 10.465 27.8549 10.7299 27.8323C11.9003 27.7323 13.2862 27.7677 14.4451 27.7451C14.901 27.7363 15.3552 27.7451 15.8093 27.7625C16.0399 27.7625 16.2731 27.7539 16.5037 27.7451C17.745 27.7451 18.9883 27.7451 20.2287 27.7363H22.426C22.8537 27.7363 23.2813 27.7102 23.7088 27.7102H27.402C27.7236 27.7102 28.0479 27.6928 28.3641 27.7102C28.8995 27.7537 29.4288 27.6928 29.9633 27.7102L31.8876 27.6753L35.8212 27.7014L42.8276 27.8408C45.7091 27.8858 48.6506 27.8742 51.5242 27.9366C51.8144 27.9454 52.1186 27.8739 52.4114 27.9801L53.2835 28.041C53.4319 28.0497 53.5848 28.0324 53.7368 28.041C54.4749 28.0706 55.2969 28.0806 56.0286 28.1631C56.4102 28.2061 56.9693 28.1338 57.3618 28.1196C57.6484 28.1092 57.5 28.1894 57.8035 28.2154C58.4099 28.2674 58.4953 28.2092 59.0123 28.2329L59.0352 24.1812C58.1784 24.1812 58.3165 24.4448 56.9961 24.3817C56.7319 24.373 56.4607 24.3991 56.1982 24.4252C55.3932 24.503 54.5866 24.4875 53.7711 24.521C53.4218 24.5353 53.4433 24.5907 53.0651 24.5907C52.8955 24.5907 52.725 24.5821 52.5651 24.6256C52.5483 24.6256 52.528 24.6343 52.5121 24.6256C52.1568 24.6082 51.8238 24.6779 51.4828 24.7215L50.6054 24.7301C49.3529 24.8375 48.1242 24.7931 46.8902 24.8173C46.4343 24.8259 45.9801 24.8259 45.5259 24.8086C45.2936 24.8 45.0613 24.8173 44.8298 24.8173L38.9093 24.8347C38.4808 24.8347 38.0522 24.8522 37.6247 24.8608H33.9315C33.6108 24.8608 33.2874 24.8782 32.971 24.852C32.4339 24.8171 31.9046 24.8781 31.3718 24.8608C31.0502 24.852 30.7286 24.8608 30.4078 24.8694L27.7625 24.8955C26.3885 24.9022 25.0164 24.8535 23.6427 24.8257C19.1723 24.7354 14.7081 24.6698 10.2368 24.6515C10.0938 24.6515 9.95233 24.6341 9.81016 24.6341C9.50955 24.6341 9.19283 24.6838 8.9239 24.5818C8.79451 24.5326 8.27645 24.5512 8.05007 24.5295C7.90335 24.512 7.74875 24.5295 7.59766 24.5295L5.30496 24.4076C5.06002 24.3773 4.25009 24.4238 3.97171 24.4424C3.6718 24.4625 3.81887 24.3627 3.53173 24.3552L2.89111 24.3295ZM8.57846 15.3549C8.57496 15.3636 8.57059 15.3636 8.56603 15.3724C8.49092 15.3724 8.41669 15.381 8.34245 15.381C8.42912 15.3637 8.51578 15.3375 8.57846 15.3549ZM69.2684 30.6639C69.2049 30.1627 69.1578 29.9957 69.0317 29.5399L67.9406 25.6626C67.7109 24.8784 67.4661 24.0855 67.2294 23.3013C67.2091 23.2316 67.187 23.162 67.1702 23.0922C66.9414 22.1428 66.5631 21.002 66.2859 20.0339L64.6461 14.44L61.0961 3.01705C60.3986 0.794382 58.0378 -0.463801 55.825 0.159161L54.2107 0.655908C52.9846 1.03145 51.7123 1.37211 50.4937 1.77113L48.6436 2.32882L43.8893 3.80128C40.541 4.80306 37.1001 5.77756 33.772 6.81612C33.4707 6.91195 33.1668 6.99914 32.8637 7.08616L31.1806 7.61762L27.9266 8.60213C27.3947 8.77635 26.846 8.90705 26.3265 9.10751C26.2621 9.12495 26.1878 9.15102 26.1215 9.15983C25.848 9.20316 25.1524 9.4537 24.8077 9.56058C22.5344 10.2656 19.8166 11.0244 17.5971 11.8261C15.6826 12.5176 13.6632 13.2308 11.7755 13.9695C11.4283 14.1054 8.1777 15.2935 8.16002 15.381C7.67242 15.4007 5.20552 15.4854 5.38042 15.564C5.61013 15.6075 5.98393 15.5815 6.16321 15.6338C6.09511 15.6598 6.02805 15.6861 5.96257 15.7122C5.89814 15.7208 5.80447 15.7296 5.78066 15.7382C5.70502 15.7705 5.9862 15.7795 6.09073 15.7992C5.67964 15.8111 4.64105 15.8382 4.30157 15.9036C5.61626 16.1234 8.25806 16.1554 9.63893 16.1215C10.0752 16.1145 11.9274 16.1298 12.2135 16.1913C12.6792 16.2914 16.0989 16.1602 17.0923 16.1999C18.2638 16.2434 19.4479 16.2522 20.6246 16.2783C21.8033 16.2958 22.9898 16.3044 24.1719 16.3218C25.0563 16.3284 27.699 16.3033 28.2645 16.3741C29.149 16.4848 30.092 16.4175 31.0017 16.4265L37.2836 16.4439C43.8091 16.46 50.3396 16.5256 56.8655 16.5136C57.8232 16.5119 58.4997 16.8973 58.9153 17.7596C59.1279 18.2006 59.0804 18.846 59.0788 19.3192L59.04 23.3621C58.4727 23.215 56.9252 22.9829 56.3407 22.9265C55.9617 22.8916 55.5809 22.8655 55.2151 22.7871C54.6004 22.6485 51.4479 22.5492 50.5272 22.5345L48.8404 22.5257L43.1707 22.4385L36.2907 22.5169C35.5335 22.5343 34.7756 22.5604 34.0164 22.5779C33.4112 22.5865 32.805 22.5865 32.1982 22.5865C31.9844 22.5865 31.7707 22.6039 31.5567 22.6126C30.772 22.6286 29.9507 22.5988 29.1472 22.63C28.8424 22.6386 28.542 22.6561 28.2372 22.6386L26.9648 22.6821C23.9386 22.7688 20.7704 22.7048 17.7009 22.7605C17.336 22.7692 16.9694 22.7866 16.6044 22.7954L9.65627 22.9087C7.49366 22.9239 4.73612 23.3263 2.55005 23.5796C2.32735 23.6057 2.10394 23.6232 1.88474 23.658L1.87599 20.8437C1.87424 19.9721 1.58045 18.6034 1.80088 17.8027C1.9033 17.4308 2.18045 16.9981 2.35046 16.731C2.67226 16.225 3.0795 16.159 3.28697 16.0078C3.49112 15.8335 3.88592 15.7203 4.30122 15.6854C3.98187 15.6854 3.3535 15.6521 3.05359 15.7377C2.6481 15.8596 2.26467 16.0775 2.03128 16.1733C1.99767 16.182 1.91993 16.2431 1.86338 16.2954C1.08182 17.0004 0.794332 17.7168 0.740407 18.6828C0.615574 20.9198 0.477435 23.1224 0.409153 25.3658C0.373787 26.5247 0.342972 27.6835 0.265061 28.7989C0.241249 29.13 0.224442 29.4784 0.212886 29.827C0.127621 32.5202 0.0931302 35.1495 0.0635414 37.8606L0.00611472 45.4324C0.0054144 46.7627 -0.0917557 47.4606 0.515077 48.691C1.22871 50.089 2.72268 50.9442 4.30017 50.9565L14.4565 51L30.7373 50.9826C37.9283 50.9646 45.1154 50.8693 52.3062 50.8693C52.9662 50.8693 53.6243 50.8519 54.2853 50.8432H57.0321C59.0239 50.8432 60.7306 49.4409 61.1459 47.5323C61.2637 46.9905 61.2164 46.0686 61.2129 45.5282L61.2155 43.2541C61.2022 42.2607 61.1819 41.2674 61.1749 40.2741C61.1662 38.9149 61.1784 37.5555 61.1457 36.1964C61.1413 36.0047 61.1422 35.8042 61.1422 35.6038L61.5097 35.6561C62.32 35.6055 64.9371 35.0953 65.8946 34.8893C68.0155 34.4338 69.4442 32.8428 69.2684 30.6639Z" fill="#0D2937"/>
</svg>
