<svg xmlns="http://www.w3.org/2000/svg" width="61" height="50" viewBox="0 0 61 50" fill="none">
<path d="M60.6297 20.97C59.8352 19.3144 57.9937 18.307 56.7483 16.9585C54.5834 14.9045 52.0239 12.4331 49.8297 10.4276C48.1161 9.04407 45.9134 5.52237 43.5044 7.78451C41.3453 9.83781 39.4542 12.1672 37.5051 14.397C37.5526 9.78125 38.292 4.1317 31.5441 4.55007C32.6503 2.16788 30.0596 -0.242252 27.5591 0.266301C24.7752 0.631569 21.9671 1.31799 19.2154 1.84023C14.6346 2.96342 9.59938 3.19536 5.34831 5.27826C5.39091 5.30578 5.44594 5.27259 5.4835 5.31519C5.47497 5.3777 5.39193 5.43759 5.49751 5.44976C5.40724 5.49651 5.30599 5.50494 5.23435 5.58156C5.21008 5.58516 5.18438 5.58751 5.16098 5.59194C13.7085 6.06329 22.3444 5.87049 30.9184 6.05499C33.7807 5.75915 36.129 6.80834 35.829 9.89867C35.8047 20.5533 35.7185 31.3575 35.6414 42.0285C35.8687 44.6048 35.4741 47.3023 32.0761 47.1249C23.3109 47.1211 14.2027 47.1319 5.43453 47.1528C3.41291 47.3231 1.83066 45.5195 2.10436 43.6397C2.18669 32.7345 1.92006 21.8363 1.71858 10.9325C1.4885 8.34134 1.97943 5.81724 5.16098 5.41228C0.453644 4.97786 0.459998 9.2431 0.429523 12.5706C-0.0673236 22.9825 0.103685 33.4292 0.00157097 43.8532C-0.0791666 47.6521 2.96272 49.5108 6.67954 49.1547C13.9828 49.158 21.368 49.059 28.6641 49.0509C34.4429 49.3804 38.2362 48.544 37.6179 42.0453C38.5719 42.7884 39.9164 42.362 40.6883 41.5612C44.0912 38.9519 47.1054 35.859 50.2555 32.9703C52.2326 31.1026 54.6381 28.7438 56.583 26.8343C57.9102 25.0889 61.3769 23.3927 60.6297 20.97ZM27.3094 4.57829C21.8436 4.60249 16.3828 4.8531 10.9276 5.06582C15.2345 4.40153 19.559 3.81359 23.8247 2.93714C26.3773 2.66454 30.3433 0.733502 30.7482 4.55533C29.6019 4.56308 28.4559 4.57068 27.3094 4.57829ZM58.6909 21.9634C52.4567 28.129 45.8114 34.1276 39.8646 40.5593C39.354 41.2568 38.4207 41.8251 37.6075 41.2087C37.542 32.8493 37.5964 23.5198 37.5086 15.1705C39.7414 13.2807 41.8518 11.2384 44.0746 9.32373C45.0118 8.40025 45.324 8.23512 46.271 9.2821C50.3685 13.2204 54.4196 17.3486 58.5295 21.2783C58.7369 21.4449 58.8246 21.7307 58.6909 21.9634ZM56.4486 21.4621C56.1067 18.82 52.7559 19.4929 50.7711 19.3922C49.8773 17.6878 48.9287 15.7551 48.0006 14.069C47.1019 12.5287 44.3867 13.3407 44.6729 15.1286C44.8089 16.1059 45.1973 18.4723 45.3547 19.4725C44.7251 19.5068 44.0777 19.5295 43.4485 19.5501C43.1474 19.1358 42.5078 18.1606 42.2185 17.7517C41.395 16.5121 39.1298 17.1292 39.2138 18.6348C39.3927 19.6622 39.6673 20.6829 39.8631 21.7087C39.7093 22.5912 39.4073 23.9012 39.2886 24.778C39.2244 26.2284 41.375 26.8015 42.1538 25.5854C42.4203 25.2042 43.1274 24.0916 43.3945 23.7013C43.9922 23.7043 45.0751 23.7303 45.6759 23.7436C45.4849 25.1291 45.2577 26.9239 45.0716 28.3214C44.8663 29.5905 46.7609 30.2567 47.4831 29.1989C48.3553 27.2723 49.1674 25.2742 49.8994 23.3074C49.8428 23.3475 49.796 23.4796 49.7382 23.4941C49.7151 23.408 49.8076 23.1888 49.6704 23.3612C49.7534 23.1486 49.8659 22.9667 49.9191 22.7415C48.5757 24.3297 47.7799 26.3085 46.6483 28.0565C46.8295 26.9118 47.0954 25.1461 47.2835 23.9952C47.439 23.3114 47.6083 22.2418 46.572 22.1803C45.5741 22.1264 44.0028 22.0818 42.9876 22.0351C42.1262 22.0085 41.8566 23.0749 41.3852 23.5966C41.7379 21.8835 41.91 21.993 41.5209 20.2166C41.9084 20.7281 42.1924 21.5311 42.9912 21.4828C44.096 21.4452 45.5542 21.4294 46.6722 21.3722C47.3519 21.286 47.7081 20.6266 47.5357 20.0193C47.398 19.1243 47.1629 17.5077 47.0093 16.6339C49.7823 21.1584 47.8725 21.732 54.0074 21.1691C55.1586 21.1044 55.0624 22.3712 53.9981 22.4454C52.6431 22.4185 51.3257 22.6032 50.0173 22.8948C52.088 23.4833 56.3886 24.7446 56.4486 21.4621ZM46.4448 28.4147C46.4414 28.4059 46.4449 28.3998 46.4528 28.4002L46.4448 28.4147ZM46.427 28.4466C46.4231 28.4538 46.4258 28.4471 46.425 28.4482C46.4283 28.4384 46.4344 28.4258 46.4419 28.42C46.4387 28.4257 46.4302 28.4408 46.427 28.4466ZM46.4469 28.4174C46.4494 28.42 46.4497 28.4177 46.4469 28.4174V28.4174ZM41.204 18.5297C41.2042 18.5307 41.204 18.5319 41.2042 18.533C41.2022 18.5217 41.2007 18.5141 41.204 18.5297ZM40.5499 18.8268L40.5719 18.8579C40.5639 18.8481 40.5558 18.838 40.5499 18.8268ZM40.6565 24.6452C40.6582 24.6427 40.6605 24.6406 40.6623 24.6381L40.6537 24.6505C40.6537 24.6505 40.6556 24.6467 40.6565 24.6452ZM18.9088 10.4334C18.8962 10.4309 18.8861 10.4287 18.8752 10.4263C18.8686 10.3886 18.8149 10.3484 18.798 10.4083C18.7242 10.3888 18.6885 10.3677 18.5688 10.3097C18.5613 10.2873 18.5501 10.2652 18.5236 10.2457C18.502 10.2619 18.4919 10.2659 18.4833 10.2826C11.1488 8.85335 5.07634 16.6686 6.3498 23.241C8.04991 33.8737 22.6776 37.0763 29.0843 28.2578C34.6701 20.834 29.1249 9.48721 19.2311 10.3501C19.294 10.3942 19.4078 10.3874 19.4507 10.4425C19.4125 10.4934 19.2402 10.5144 19.3756 10.5578C19.2334 10.5737 19.0814 10.5587 18.945 10.5991C18.9287 10.5454 18.908 10.4924 18.8819 10.4404C18.891 10.4379 18.8997 10.436 18.9088 10.4334ZM18.9678 10.649C22.7803 11.7238 23.555 17.0515 23.7685 20.3504C22.4488 20.3544 21.1316 20.4197 19.8138 20.4681C19.5606 17.1902 20.0271 13.8188 18.958 10.6437C18.9612 10.6452 18.9644 10.6477 18.9678 10.649ZM15.7919 13.2272C16.3652 12.1514 17.2296 11.2331 18.3221 10.641C17.9972 13.8552 17.9344 17.2144 17.8135 20.5163C16.5977 20.6264 15.3716 20.5497 14.151 20.6055C14.3206 18.104 14.5639 15.4748 15.7919 13.2272ZM14.5283 22.2941C15.6312 22.3305 16.7356 22.4179 17.8397 22.4258C17.8619 25.4333 17.7946 28.4307 18.2548 31.3853C15.0279 29.7378 14.4224 25.4712 14.1529 22.2775C14.2781 22.2828 14.4032 22.2896 14.5283 22.2941ZM22.4995 27.9289C21.8572 29.2999 20.9704 30.8614 19.4486 31.3982C20.2812 28.4937 19.9253 25.3824 19.8603 22.3952C21.1563 22.4153 22.4536 22.359 23.7506 22.3666C23.6557 24.2655 23.2481 26.168 22.4995 27.9289ZM8.75748 18.4094C9.72662 15.2377 12.189 12.4452 15.5013 11.3703C12.9184 13.7717 12.28 17.3845 12.0643 20.6848C10.7927 20.6739 9.51647 20.8035 8.29732 21.1832C8.34094 20.2453 8.464 19.3075 8.75748 18.4094ZM11.7727 28.8489C9.735 27.1313 8.49216 24.6121 8.32346 22.0226C9.57353 21.9946 10.7911 22.2755 12.0559 22.2329C12.1642 25.1105 12.7962 28.0745 14.4168 30.5397C13.4556 30.1033 12.5611 29.5338 11.7727 28.8489ZM29.1961 24.1662C28.3224 27.0202 26.0595 29.4471 23.1964 30.5996C24.7451 28.1143 25.3974 25.2232 25.4651 22.3602C26.8641 22.3985 28.1989 22.023 29.5921 21.9926C29.532 22.7273 29.4055 23.4587 29.1961 24.1662ZM21.868 11.2501C26.2377 12.4493 29.4864 16.5928 29.6067 20.9413C28.2797 20.4332 26.845 20.4274 25.4372 20.3938C25.1944 17.0547 24.4183 13.2901 21.5098 11.1154C21.628 11.1491 21.7819 11.1729 21.868 11.2501ZM26.8684 39.098C20.3937 39.1785 13.6182 39.558 7.28529 38.5694C7.35129 38.5019 7.43333 38.5134 7.51363 38.4817C7.4316 38.451 7.51031 38.402 7.52288 38.347C10.2041 36.9545 14.6443 37.6581 17.9515 37.3245C20.813 37.4286 28.7424 36.3775 30.5321 38.3898C29.4925 39.0295 28.0743 38.8299 26.8684 39.098ZM11.0241 43.1858C11.0496 43.1751 11.0753 43.165 11.1015 43.1544C11.0438 43.1221 11.1021 43.0689 11.1078 43.0197C10.7972 42.8379 12.2174 42.5161 12.3774 42.4068C14.2833 41.9442 16.3062 42.2016 18.2529 41.9973C20.3448 42.0649 25.7621 41.1077 26.8725 43.0625C26.8333 43.0907 26.7949 43.1043 26.7701 43.1694C26.7344 43.2069 26.6796 43.171 26.6503 43.2433C26.5596 43.3571 26.4048 43.297 26.3007 43.4384C21.3549 44.1138 15.7278 44.1919 10.9451 43.2422C10.9687 43.1989 10.9973 43.1968 11.0241 43.1858Z" fill="#0D2937"/>
</svg>