<svg width="119" height="38" viewBox="0 0 119 38" fill="none" xmlns="http://www.w3.org/2000/svg">
<path d="M27.0294 20.2744C27.4328 20.0783 27.8766 19.843 28.28 19.6468C28.4414 19.5684 29.0062 19.3723 29.0869 19.2154C29.1272 19.1369 29.0869 18.9016 29.0869 18.7839V17.8425V11.1352V4.58484V3.72192C29.0869 3.68269 29.1272 3.40813 29.0869 3.3689C29.0465 3.32968 28.7238 3.3689 28.6834 3.3689H27.7959C27.4732 3.3689 27.5135 3.40813 27.3118 3.64347C26.5453 4.62407 25.7788 5.60467 25.0123 6.62449C24.6492 7.09518 24.2861 7.52664 23.9634 7.99733C23.7213 8.31112 23.7213 8.35034 23.2776 8.35034L23.3986 5.76156C23.4389 5.13398 23.4389 4.5064 23.4793 3.87881C23.4793 3.64347 23.5196 3.40813 23.5196 3.17278C23.5196 3.09433 23.4793 2.85899 23.5196 2.81977C23.6003 2.70209 24.3265 2.78054 24.5282 2.78054H39.6162C39.6969 2.78054 40.06 2.74132 40.1407 2.78054C40.2214 2.81977 40.181 3.05511 40.181 3.17278C40.2214 3.68269 40.2214 4.23183 40.2617 4.74174C40.3021 5.87923 40.3424 6.97751 40.4231 8.115V8.35034C40.2214 8.35034 40.06 8.38957 39.8986 8.2719C39.7373 8.15422 39.6162 7.91888 39.4952 7.76198C39.0111 7.1344 38.527 6.46759 38.0025 5.84001L36.5502 3.95726C36.4695 3.83959 36.3485 3.56502 36.1871 3.48657C36.0661 3.40813 35.8241 3.44735 35.6627 3.44735H35.0172C34.9365 3.44735 34.6138 3.40813 34.5331 3.44735C34.4928 3.48657 34.5331 3.48657 34.4928 3.56502C34.4121 3.87881 34.4928 4.27105 34.4928 4.58484V18.2348C34.4928 18.5093 34.4121 18.9016 34.4928 19.1762C34.5734 19.4507 35.2189 19.6468 35.5013 19.7645C35.7837 19.9214 36.2678 20.0391 36.5099 20.2744C36.5906 20.3529 36.6712 20.7451 36.5906 20.8628C36.5502 20.902 36.3485 20.8628 36.3082 20.8628H27.4328C27.3521 20.8628 27.0698 20.902 27.0294 20.8628C26.9891 20.7059 27.0294 20.3921 27.0294 20.2744ZM41.9964 19.5684V13.8417V4.46717V2.93744C41.9964 2.70209 42.0771 2.34908 41.9964 2.11374C41.9158 1.83917 41.4317 1.79994 41.1493 1.68227C40.9879 1.64305 40.4634 1.52538 40.3827 1.36848V1.05469H40.5038C40.6651 0.976241 40.9879 0.976241 41.1896 0.937017C41.5527 0.858569 41.9158 0.819345 42.2385 0.740897C43.0453 0.584001 43.8925 0.427105 44.6994 0.309433C45.1835 0.230985 45.6676 0.113314 46.1517 0.0348657C46.2727 0.0348657 46.7568 -0.0435822 46.7972 0.0348657C46.8375 0.0740897 46.7972 0.230985 46.7972 0.270209V8.38957C48.3302 6.89906 50.9928 6.07535 53.131 6.58527C54.9867 7.01673 55.5918 8.70336 55.5918 10.4292C55.6322 12.6258 55.5918 14.7831 55.5918 16.9796V18.7447C55.5918 18.9408 55.5112 19.4115 55.5918 19.6076C55.6322 19.6861 55.7935 19.7253 55.8742 19.8037C56.1566 19.9606 56.4794 20.1175 56.7618 20.2744C56.8021 20.3136 56.9231 20.3529 56.9231 20.3921C56.9635 20.4313 56.9635 20.7843 56.9231 20.8236C56.8828 20.902 56.8828 20.8628 56.7618 20.8628C56.318 20.9412 55.8339 20.8628 55.4305 20.8628H49.6212C49.5808 20.8628 49.3791 20.902 49.3388 20.8628C49.2984 20.8236 49.2984 20.3921 49.3388 20.3529C49.4598 20.196 49.9439 20.0391 50.1053 19.9214C50.2263 19.843 50.5894 19.7253 50.6701 19.6076C50.7507 19.4899 50.6701 19.0585 50.6701 18.9408V17.3326C50.6701 15.0576 50.7104 12.7434 50.6701 10.4684C50.6701 9.80163 50.549 9.01715 49.8632 8.66413C49.5001 8.46802 49.016 8.42879 48.6126 8.42879C48.2899 8.42879 47.9671 8.50724 47.6847 8.58569C47.4427 8.66413 46.9989 8.82103 46.8375 9.01715C46.7165 9.17405 46.7972 9.40939 46.7972 9.60551V18.8624C46.7972 19.0585 46.7165 19.4507 46.7972 19.6076C46.8375 19.6861 46.9989 19.7645 47.1199 19.8037C47.4023 19.9606 47.7654 20.1175 48.0478 20.2744C48.0881 20.3136 48.1688 20.3136 48.1688 20.3529C48.2092 20.3921 48.2092 20.7451 48.1688 20.7843C48.1285 20.8236 48.0881 20.8236 48.0075 20.8236C47.5637 20.8628 47.0796 20.8236 46.6358 20.8236H40.8265C40.7862 20.8236 40.5845 20.8628 40.5441 20.8236C40.5038 20.7843 40.5441 20.3921 40.5845 20.3136C40.7055 20.1568 41.1493 19.9999 41.3106 19.9214C41.593 19.8037 41.7947 19.6861 41.9964 19.5684ZM61.1591 14.1555C61.2398 15.8813 61.8046 17.8033 63.4183 18.7447C64.2655 19.2154 65.3144 19.3723 66.2826 19.2938C67.4525 19.1762 68.4207 18.627 69.4293 18.1171C69.4293 18.274 69.4696 18.5486 69.4293 18.7055C69.3486 18.8624 69.1469 19.0585 69.0259 19.1762C68.8645 19.333 68.6628 19.5292 68.4611 19.6861C67.7752 20.2352 67.0087 20.6274 66.2019 20.902C64.6689 21.4119 62.8938 21.3727 61.3205 20.9805C60.0698 20.6667 58.9403 20.0783 58.0931 19.1369C57.2459 18.1956 56.7618 16.9796 56.5601 15.7244C56.1163 13.018 56.6407 9.9193 58.9403 8.115C60.9574 6.54604 64.1848 6.23225 66.565 7.17362C69.4696 8.31112 69.9537 11.5275 69.9537 14.1947H62.2483C61.8853 14.1555 61.5222 14.1555 61.1591 14.1555ZM61.0784 13.4887C61.8853 13.4495 62.6921 13.4102 63.5393 13.3318C64.0234 13.2926 64.5479 13.2926 65.032 13.2533C65.1126 13.2533 65.3144 13.2533 65.395 13.2141C65.5161 13.1357 65.4354 12.3512 65.4354 12.1943C65.395 10.7822 65.3547 9.05637 64.5075 7.84043C63.9024 6.97751 62.9745 7.1344 62.4097 7.91888C61.2398 9.44862 61.0784 11.7236 61.0784 13.4887ZM0 27.8054C0 25.6089 0.443766 23.3339 1.69438 21.4904C2.90465 19.6861 4.84109 18.5093 6.93889 17.921C9.48047 17.215 12.3044 17.2934 14.9267 17.7641C15.4915 17.8818 16.0563 17.9994 16.5807 18.1563C16.6614 18.1956 17.0245 18.274 17.0648 18.3524V18.4701C17.1859 18.9408 17.1052 19.5292 17.1052 19.9999C17.1455 21.2158 17.1455 22.471 17.1859 23.6869C17.0245 23.6869 16.7421 23.7261 16.6211 23.6869C16.5404 23.6477 16.4597 23.4516 16.4194 23.3731C16.0966 22.9024 15.7739 22.4317 15.4915 21.9218C14.8057 20.8628 14.0795 19.8037 13.3937 18.7447C13.0306 18.1563 12.022 18.1563 11.3766 18.1563C10.6504 18.1563 9.92423 18.274 9.3191 18.627C7.94745 19.4507 7.30198 21.0589 6.93889 22.5102C6.3741 24.8244 6.41444 27.2563 6.53547 29.6097C6.6565 31.414 6.81787 33.336 7.54403 34.9834C7.9878 36.0032 8.7543 36.9054 9.92423 37.1407C10.2873 37.2192 10.6504 37.2192 11.0538 37.18C11.2959 37.1407 12.1431 37.1015 12.2641 36.8662C12.3044 36.7877 12.2641 36.5916 12.2641 36.5131V35.8463V31.6886V30.0804C12.2641 29.8058 12.3448 29.6882 12.1027 29.5313C11.8203 29.3744 11.4976 29.2175 11.2152 29.0214C11.0135 28.9037 10.6101 28.786 10.489 28.6291C10.4083 28.5507 10.368 28.1192 10.4487 28.0408C10.489 27.9623 10.489 28.0015 10.6101 28.0015C10.9731 27.9231 11.4572 28.0015 11.8203 28.0015H18.0734C18.4768 28.0015 18.9206 27.9623 19.324 28.0015H19.4854C19.5257 28.0408 19.5257 28.5899 19.4854 28.6684C19.4047 28.786 19.0013 28.9429 18.8399 29.0214C18.5575 29.1783 18.2348 29.3352 17.9524 29.5313C17.6296 29.6882 17.67 29.6882 17.67 30.0412V36.4347C17.67 36.5131 17.7103 36.7093 17.67 36.7877C17.5893 36.9838 16.7421 37.1015 16.5 37.18C15.8142 37.3761 15.0881 37.533 14.3619 37.6506C12.9499 37.886 11.5379 37.9644 10.1259 37.9252C7.86677 37.8468 5.48657 37.3761 3.63082 36.0425C2.01712 34.905 0.968218 33.1791 0.484109 31.2964C0.121027 30.1981 0 28.9821 0 27.8054ZM18.5978 24.236C18.5978 24.1576 18.5575 23.8438 18.5978 23.8046C18.6382 23.7654 18.6785 23.8046 18.7189 23.7654C18.9609 23.6477 19.2837 23.6477 19.5661 23.6085C20.4939 23.4516 21.4218 23.2947 22.39 23.1378C23.1162 23.0201 23.8424 22.8632 24.5282 22.7848C24.7299 22.7455 24.9719 22.7455 25.1737 22.824C25.3754 22.8632 25.2947 22.824 25.335 22.9809C25.4157 23.4516 25.335 24.0007 25.335 24.4714V32.6692C25.335 33.6498 25.0526 35.4541 26.0209 36.0425C26.505 36.3562 27.1908 36.3562 27.7556 36.2386C28.1993 36.1601 29.0465 35.8463 29.2079 35.3756C29.2482 35.258 29.2079 35.1011 29.2079 34.9834V34.1597V28.7076V26.1972V25.3735C29.2079 25.2951 29.2482 25.0597 29.2079 24.9813C29.0869 24.8636 28.6834 24.746 28.5624 24.7067C28.3204 24.6283 28.1187 24.5106 27.8766 24.4322C27.7959 24.3929 27.5135 24.3537 27.4732 24.2753C27.4328 24.236 27.4328 23.883 27.4732 23.8438C27.5135 23.8046 27.5135 23.8438 27.5539 23.8046C27.7556 23.6869 28.1187 23.7261 28.3204 23.6869C29.9744 23.4123 31.6688 23.0593 33.3632 22.824C33.5649 22.7848 33.7666 22.7848 33.9683 22.824C34.17 22.8632 34.0893 22.7848 34.1297 22.9809C34.2104 23.3731 34.1297 23.9223 34.1297 24.3537V35.6502C34.1297 35.7679 34.0893 35.964 34.1297 36.1209C34.17 36.2386 34.1297 36.1993 34.3314 36.2778C34.7348 36.4347 35.1786 36.6308 35.582 36.7877C35.703 36.8269 35.7434 36.8269 35.7837 36.9054C35.8241 36.9838 35.8241 37.2584 35.7837 37.2584C35.703 37.3368 35.2996 37.2976 35.2189 37.3368C34.3314 37.4545 33.4439 37.533 32.516 37.6506C31.7091 37.7291 30.9023 37.8468 30.1358 37.9252C29.9744 37.9644 29.813 37.9644 29.6517 37.9252C29.571 37.9252 29.3289 37.9252 29.2886 37.886C29.2482 37.8075 29.2886 37.4937 29.2886 37.4153V36.7485C29.2886 36.6308 29.3693 36.317 29.2886 36.1994C29.2079 36.0817 29.0465 36.2386 28.9255 36.317C28.6028 36.5916 28.2397 36.8662 27.8766 37.0623C26.5453 37.8468 24.8913 38.1998 23.3583 37.886C22.2287 37.6506 21.2604 37.0231 20.7763 35.964C20.4133 35.2188 20.3326 34.395 20.3326 33.6106V28.9429V26.2757V25.3735C20.3326 25.2951 20.3729 25.0597 20.3326 24.9813C20.2519 24.8636 19.7678 24.746 19.6467 24.6675C19.2433 24.5106 18.9206 24.3929 18.5978 24.236ZM56.6407 22.7455C56.7214 22.7455 57.0845 22.7455 57.1248 22.824C57.1652 22.8632 57.1248 23.1378 57.1248 23.177V26.6287C57.1248 26.7464 57.0845 26.9425 57.1248 27.0602V27.1386C57.2862 27.2955 57.3266 26.7856 57.3669 26.7464C57.73 25.2951 58.4158 23.6085 59.9488 23.0201C60.2312 22.9024 60.5136 22.8632 60.796 22.824C61.0381 22.824 61.7239 22.7455 61.8449 22.9417C61.8853 23.0201 61.8449 23.2162 61.8449 23.2947V27.2955C60.8767 27.0994 59.7874 27.1386 58.8596 27.3347C58.4158 27.4132 58.0124 27.5309 57.609 27.727C57.4072 27.8054 57.3669 27.7662 57.3266 27.9231C57.2862 28.08 57.3266 28.3546 57.3266 28.5115V36.0817C57.3266 36.1601 57.2862 36.2778 57.3266 36.3562C57.4072 36.4739 57.6896 36.5524 57.8107 36.5916C58.0124 36.7093 58.2544 36.8269 58.4562 36.9446C58.5368 36.9838 58.6579 37.0231 58.6982 37.1015C58.7385 37.1407 58.7385 37.6114 58.6982 37.6506C58.6579 37.6899 58.4158 37.6506 58.3351 37.6506H51.6383C51.4366 37.6506 51.0735 37.7291 50.9121 37.6506H50.7911C50.7507 37.6114 50.7911 37.1799 50.7911 37.1407C50.8718 36.9054 51.3962 36.7485 51.6383 36.6308C51.7996 36.5524 52.1224 36.4347 52.2031 36.2778C52.2434 36.1993 52.2031 35.964 52.2031 35.8856V35.0619V24.9813C52.2031 24.9421 52.2434 24.746 52.2031 24.7067C52.1627 24.6675 51.961 24.6283 51.8803 24.6283C51.6383 24.5498 51.3962 24.4714 51.1542 24.4322C50.9121 24.3537 50.307 24.3145 50.5087 23.9223C50.549 23.8046 50.7104 23.8438 50.8718 23.8046C52.6468 23.4908 54.3816 23.177 56.1566 22.8632C56.318 22.7848 56.4794 22.7848 56.6407 22.7455ZM71.8498 23.0985V19.9606V19.0585C71.8498 18.9408 71.8902 18.7055 71.8498 18.5878C71.8095 18.5093 71.6481 18.4701 71.5271 18.4309C71.2043 18.3132 70.8816 18.1956 70.5185 18.0779C70.2765 17.9994 70.1554 18.0387 70.1554 17.7641C70.1554 17.5287 70.1151 17.6072 70.3168 17.568C70.7606 17.4111 71.285 17.4111 71.7288 17.3326C73.0601 17.0973 74.3511 16.8619 75.6824 16.6266C75.9648 16.5874 76.2472 16.5089 76.5295 16.5481C76.8523 16.5874 76.8926 16.5089 76.8926 16.7835C76.933 17.4111 76.8926 18.0779 76.8926 18.7055V35.8856C76.8926 36.0425 76.8523 36.0425 76.9733 36.1209C77.2154 36.2778 77.6188 36.3562 77.8608 36.4347C78.0222 36.4739 78.466 36.5524 78.5467 36.67C78.587 36.7093 78.587 37.1407 78.5467 37.18C78.5063 37.2192 78.2643 37.2192 78.2239 37.2192C77.6591 37.2976 77.1347 37.3761 76.5699 37.4153C75.3193 37.5722 74.0687 37.7291 72.7777 37.886C72.576 37.9252 72.0919 38.0037 72.0112 37.8468C71.9305 37.6899 72.0112 37.18 72.0112 37.0231C72.0112 36.9054 72.0919 36.3955 72.0112 36.317C71.9305 36.2386 71.043 37.0231 70.922 37.1015C70.4378 37.4153 69.9134 37.6506 69.3486 37.8075C68.4611 38.0429 67.4525 38.0429 66.565 37.8468C62.6921 36.9838 61.8853 32.5123 62.208 29.2567C62.3694 27.5309 62.9342 25.805 64.1444 24.5498C65.274 23.4123 66.807 22.824 68.3804 22.7063C69.5907 22.5886 70.7606 22.6671 71.8498 23.0985ZM71.8498 35.611V25.9619V24.1576C71.8498 23.9223 71.8095 23.883 71.5271 23.7261C70.9623 23.4123 70.2361 23.2947 69.631 23.53C68.7031 23.883 68.2594 24.9421 68.0173 25.805C67.5332 27.374 67.4929 29.0606 67.5332 30.708C67.5735 32.1201 67.6139 33.8459 68.4207 35.1011C69.1469 36.1993 70.8009 36.4739 71.8498 35.611ZM85.2032 22.7455C85.4049 22.7848 85.6469 22.7063 85.7276 22.9024C85.768 23.0201 85.7276 23.2947 85.7276 23.4123V35.6894C85.7276 35.8463 85.6873 36.0817 85.7276 36.2386C85.768 36.3955 85.9293 36.4347 86.0907 36.5131C86.3327 36.6308 86.5345 36.7485 86.7765 36.8662C86.8572 36.9054 87.0993 36.9838 87.1396 37.1015C87.1396 37.1407 87.1799 37.6114 87.1396 37.6506H87.0186C86.7765 37.6899 86.4538 37.6506 86.1714 37.6506H80.0393C79.878 37.6506 79.4342 37.7291 79.3132 37.6506C79.2325 37.6114 79.1921 37.1407 79.2728 37.0623C79.3535 36.9446 79.6359 36.8662 79.7569 36.8269C79.999 36.7093 80.241 36.5524 80.4831 36.4347C80.6848 36.317 80.6445 36.3562 80.6445 36.1994C80.7252 35.611 80.6445 34.9442 80.6445 34.3558V31.2571V25.6089C80.6445 25.452 80.6848 25.1774 80.6445 25.0205C80.6041 24.8636 80.4024 24.8636 80.2411 24.7852C79.9586 24.6675 79.7166 24.5891 79.4342 24.4714C79.3535 24.4322 79.0308 24.3929 78.9501 24.2753C78.9098 24.236 78.9098 23.8438 78.9501 23.8046C78.9904 23.7654 79.0711 23.8046 79.1115 23.7654C79.4342 23.6477 79.7973 23.6477 80.1604 23.5692C80.6848 23.4908 81.1689 23.3731 81.6934 23.2947C82.7019 23.1378 83.6702 22.9417 84.6787 22.7848C84.8804 22.824 85.0418 22.7848 85.2032 22.7455ZM85.768 19.0977C85.6873 21.4511 82.4195 22.471 80.9269 20.6274C80.241 19.7645 80.2007 18.5878 80.8058 17.6856C81.411 16.7835 82.5809 16.3913 83.6702 16.6266C84.8804 16.8619 85.768 17.8818 85.768 19.0977ZM103.438 36.317V26.864V25.0597C103.438 25.0205 103.478 24.8244 103.438 24.7852C103.398 24.7067 103.156 24.6675 103.075 24.6675L102.349 24.4322C102.228 24.3929 101.905 24.3537 101.824 24.236C101.744 24.1576 101.784 23.9615 101.784 23.8438C101.784 23.6085 101.865 23.6477 102.107 23.6085L104.769 23.1378L107.432 22.6671C107.593 22.6279 107.714 22.5886 107.876 22.5886C107.956 22.5886 108.36 22.5886 108.44 22.6279C108.481 22.6671 108.44 22.9024 108.44 22.9809V23.7261C108.44 23.8438 108.36 24.1968 108.44 24.3145C108.521 24.4714 108.682 24.3145 108.803 24.1968C109.167 23.9223 109.53 23.6869 109.933 23.4908C111.385 22.7063 113.12 22.3533 114.774 22.5886C115.904 22.7455 116.832 23.3339 117.235 24.3929C117.517 25.1382 117.558 25.9227 117.558 26.7072V35.6502C117.558 35.8071 117.517 36.0817 117.558 36.2386C117.598 36.3955 117.719 36.4347 117.921 36.5131C118.123 36.6308 118.365 36.7485 118.566 36.8662C118.647 36.9054 118.929 36.9838 118.97 37.1015C119.01 37.1799 119.01 37.5722 118.97 37.6114C118.929 37.6899 119.01 37.6114 118.889 37.6506C118.728 37.7291 118.365 37.6506 118.163 37.6506H112.394C112.152 37.6506 111.224 37.7683 111.103 37.6114C111.063 37.5722 111.063 37.1407 111.103 37.0623C111.143 36.9838 111.385 36.9054 111.466 36.8662C111.708 36.7485 111.91 36.6308 112.152 36.5131C112.233 36.4739 112.475 36.3955 112.515 36.317C112.555 36.2386 112.515 36.0817 112.515 36.0032V35.1403V32.3946V27.0994C112.515 26.4718 112.555 25.7658 112.152 25.2166C111.829 24.746 111.264 24.6283 110.7 24.5891C110.256 24.5891 109.852 24.6283 109.449 24.746C109.247 24.8244 108.642 24.9813 108.521 25.2166C108.481 25.2951 108.521 25.452 108.521 25.5304V35.6894C108.521 35.8071 108.481 36.0817 108.521 36.1994C108.561 36.3562 108.803 36.3955 108.924 36.4739C109.126 36.5916 109.368 36.7093 109.57 36.8269C109.651 36.8662 109.812 36.9446 109.852 36.9838C109.893 37.0231 109.893 37.4937 109.852 37.533C109.852 37.5722 109.812 37.533 109.772 37.533C109.61 37.6114 109.207 37.533 109.046 37.533H102.268C102.066 37.533 102.026 37.5722 101.986 37.4545C101.945 37.3761 101.945 37.0231 101.986 36.9446C102.026 36.8662 102.268 36.7877 102.349 36.7485C102.752 36.7093 103.075 36.5131 103.438 36.317ZM94.8853 29.0998C94.8853 28.08 94.9257 27.0209 94.845 25.9619C94.724 24.8244 94.4012 23.5692 93.0699 23.3339C92.6665 23.2554 91.9403 23.1378 91.658 23.4516C91.3756 23.7261 91.1738 24.1184 90.9318 24.4322L88.8743 27.1386C88.7533 27.2955 88.6323 27.6093 88.4709 27.6878C88.4306 27.727 88.0271 27.727 88.0271 27.6878C87.9868 27.6485 88.0271 27.374 88.0271 27.2955V24.1184C88.0271 24.0007 87.9868 23.8046 88.0271 23.6869C88.1078 23.4908 88.9953 23.3731 89.1971 23.2947C90.3266 23.0201 91.4966 22.824 92.6665 22.7455C94.3205 22.6279 96.1763 22.6671 97.7093 23.3731C98.9196 23.9223 99.6861 24.9029 99.8878 26.158C100.009 26.7856 99.9685 27.4916 99.9685 28.1192V35.964C99.9685 36.0817 99.8878 36.3955 99.9685 36.4739C100.009 36.5131 100.211 36.5524 100.251 36.5524C100.574 36.6308 100.856 36.7093 101.179 36.7877C101.38 36.8269 101.421 36.8269 101.421 37.0231C101.421 37.2192 101.461 37.2192 101.219 37.2976C100.937 37.4153 100.654 37.533 100.372 37.6114C98.8792 38.0429 96.5394 38.1605 95.4501 36.8269C95.3694 36.7093 95.1274 36.1993 95.0064 36.1601C94.845 36.1209 94.3609 36.7485 94.1995 36.8662C93.554 37.4153 92.7069 37.7291 91.8597 37.8468C90.2863 38.0429 88.5919 37.7291 87.6237 36.3955C86.8169 35.258 86.6555 33.4929 87.2606 32.2377C88.3499 29.8451 91.5773 29.6097 93.9171 29.2175C94.1995 29.2175 94.5223 29.139 94.8853 29.0998ZM94.8853 35.611V29.8058C93.6751 29.8843 92.4245 29.9627 91.9807 31.2571C91.6579 32.1201 91.6579 33.1399 91.779 34.042C91.8597 34.6696 92.021 35.4541 92.6262 35.8463C93.2716 36.2778 94.3609 36.1994 94.8853 35.611ZM43.8119 29.0998C43.8119 28.08 43.8522 27.0209 43.7715 25.9619C43.6505 24.8244 43.3277 23.5692 41.9964 23.3339C41.593 23.2554 40.8669 23.1378 40.5845 23.4516C40.3021 23.7261 40.1003 24.1184 39.8583 24.4322L37.8008 27.1386C37.6798 27.2955 37.5588 27.6093 37.3974 27.6878C37.3571 27.727 36.9536 27.727 36.9536 27.6878C36.9133 27.6485 36.9536 27.374 36.9536 27.2955V24.1576C36.9536 24.0399 36.9133 23.8438 36.9536 23.7261C37.0343 23.53 37.8815 23.4123 38.1236 23.3339C39.2532 23.0593 40.4231 22.8632 41.5527 22.7848C43.2067 22.6671 45.0625 22.7063 46.5955 23.4123C47.8058 23.9615 48.5723 24.9421 48.774 26.1972C48.895 26.8248 48.8547 27.5309 48.8547 28.1584V36.0032C48.8547 36.1209 48.774 36.4347 48.8547 36.5131C48.895 36.5524 49.0967 36.5916 49.137 36.5916C49.4598 36.67 49.7422 36.7485 50.0649 36.8269C50.2666 36.8662 50.307 36.8662 50.307 37.0623C50.307 37.2584 50.3473 37.2584 50.1053 37.3368C49.8229 37.4545 49.5405 37.5722 49.2581 37.6506C47.7654 38.0821 45.4255 38.1998 44.3363 36.8662C44.2556 36.7485 44.0136 36.2386 43.8925 36.1994C43.7312 36.1601 43.2471 36.7877 43.126 36.9054C42.4806 37.4545 41.6334 37.7683 40.7862 37.886C39.2128 38.0821 37.5184 37.7683 36.5502 36.4347C35.7434 35.2972 35.582 33.5321 36.1871 32.277C37.2764 29.8843 40.5038 29.6489 42.8033 29.2567C43.126 29.2175 43.4488 29.139 43.8119 29.0998ZM43.8119 35.611V29.8058C42.6016 29.8843 41.351 29.9627 40.9072 31.2571C40.5845 32.1201 40.5845 33.1399 40.7055 34.042C40.7862 34.6696 40.9475 35.4541 41.5527 35.8463C42.1982 36.2778 43.2874 36.1994 43.8119 35.611Z" fill="#0D2937"/>
</svg>
