<svg xmlns="http://www.w3.org/2000/svg" width="63" height="50" viewBox="0 0 63 50" fill="none">
<path d="M62.578 47.1274C62.8197 35.6101 62.9292 30.5178 49.3534 29.617C49.265 28.0403 49.1285 26.4105 48.8056 24.8868C51.7476 22.1098 53.3044 17.6234 51.7892 13.7711C53.9104 14.5499 52.9447 11.0809 53.1162 9.98444C52.8065 6.67959 54.5135 0.787234 49.7124 0.198194C44.8601 0.189659 39.8128 0.299261 35.0516 1.06229C35.131 1.09957 35.2612 1.07457 35.3239 1.12682C35.2533 1.21546 35.0826 1.23104 35.2988 1.27281C35.0916 1.3071 34.8687 1.29138 34.6755 1.36774C51.8925 3.44945 51.6347 -2.5558 51.1005 11.1778C45.31 8.96822 38.6245 8.96343 32.8632 11.2811C32.839 9.09474 32.5958 6.93323 32.5625 4.74776C32.3116 3.05311 32.9402 1.67798 34.6755 1.17324C30.8335 -0.0690754 30.8033 5.26059 30.7928 7.7557C30.7334 9.34105 30.7442 10.9264 30.7077 12.5117C30.5823 13.2252 31.0078 14.0731 31.8266 14.0248C30.4028 17.8841 32.0854 22.4426 35.11 25.1152C34.9859 26.3602 34.8307 27.7265 34.8138 29.0239C33.1035 28.4706 28.151 30.4845 26.8492 31.661C25.0274 29.9316 22.6609 28.7463 20.1737 28.2968C23.1892 21.3551 11.0997 21.4194 14.2103 28.347C8.57128 29.4617 3.2287 34.5009 3.9575 40.4819C0.391222 40.3218 0.671274 43.6749 0.205637 46.2169C0.26831 46.1345 0.286716 45.9764 0.358669 45.9177C0.424232 46.0324 0.380879 46.2215 0.493142 45.9862C0.458764 46.235 0.369469 46.4895 0.380422 46.7362C3.25456 39.924 0.184188 42.1471 10.23 41.9439C17.0042 41.9951 23.8789 42.0626 30.6549 42.1704C31.7412 42.0223 31.8708 43.1571 32.11 43.9125C32.3613 44.9157 32.8089 46.0104 32.9545 46.9666C22.6037 46.9807 12.1026 46.9453 1.77429 47.4484C1.09051 47.66 0.173236 47.5859 0.189969 46.6837C-0.857067 48.9275 2.70465 48.5061 4.03219 48.7404C12.7235 49.4005 21.605 49.135 30.3278 49.1211C31.5058 48.992 33.0871 49.3579 34.1351 48.7093C42.7978 49.5569 51.6169 49.0486 60.3142 49.0269C62.0161 49.0648 62.7729 49.1107 62.578 47.1274ZM47.231 29.1299C47.1854 32.5056 39.2917 32.4394 37.3137 30.7567C35.8326 29.6945 36.8011 27.4179 36.0975 25.8893C39.4722 28.2661 44.2563 28.2305 47.6086 25.8331C47.2887 26.9 47.2197 28.0185 47.231 29.1299ZM34.7621 21.3234C33.384 18.9562 32.7917 16.2924 32.9376 13.5965C38.543 11.1847 45.2726 10.9673 50.9229 13.3547C52.9624 22.951 40.805 30.7617 34.7621 21.3234ZM15.3605 27.7469C15.6731 27.006 15.1331 25.7623 16.0192 25.3308C18.9747 24.8159 18.1559 25.9279 18.7087 28.0854C17.5758 27.961 16.4206 27.9993 15.2918 28.1367C15.319 28.0078 15.3489 27.8776 15.3605 27.7469ZM28.1215 40.1625C20.3404 40.2044 12.3702 40.1766 4.60447 40.4406C6.84594 26.7968 26.5375 26.8796 29.5122 40.1377C29.0473 40.132 28.5854 40.1606 28.1215 40.1625ZM60.1263 46.9603C51.8101 47.0311 43.3532 46.8338 35.0601 47.3334C35.2111 46.4663 34.7562 45.6148 34.5467 44.792C33.8915 42.4282 33.521 39.8515 30.3455 40.1291C30.783 37.4424 29.6256 34.7858 27.8808 32.7607C30.1602 31.8043 32.7782 31.622 34.9655 30.55C36.856 35.1193 47.8446 35.285 49.2718 30.2754C61.6064 32.8958 60.9668 35.894 60.4751 46.9509C60.359 46.9545 60.2428 46.9582 60.1263 46.9603ZM40.711 38.0019C40.7533 38.1567 40.6719 38.5525 40.5279 38.6089C40.485 38.5963 40.4445 38.7151 40.4031 38.7022C40.3275 38.7012 40.3049 38.7613 40.2718 38.7977C40.0091 39.1189 39.3861 39.0012 38.9633 39.0397C38.4606 39.1457 37.9499 38.8554 37.4362 38.8419C37.414 38.8796 37.4036 38.794 37.3875 38.7666C37.3718 38.7598 37.3562 38.7609 37.3405 38.7398C37.2327 38.7536 37.1686 38.5504 37.0749 38.6624C37.0427 38.6534 37.0728 38.5546 37.0045 38.5567C36.9004 38.605 36.8679 38.3105 36.9296 38.2572C36.8904 37.8507 37.234 37.2184 37.6834 37.201C38.8415 37.0275 40.6045 36.1867 40.711 38.0019ZM48.5143 38.0019C48.5663 38.2566 48.468 38.3583 48.3908 38.6005C48.2907 38.5945 48.2905 38.6815 48.2199 38.7024C48.1454 38.7018 48.1259 38.7627 48.0943 38.7977C48.0838 38.7988 48.0731 38.7908 48.0631 38.8278C48.0235 38.8193 48.008 38.9487 47.9411 38.9263C47.1184 39.1944 46.2293 38.9957 45.3824 38.8419C45.3593 38.8807 45.3526 38.7931 45.3359 38.7666C45.3208 38.7598 45.3059 38.7609 45.291 38.7398C45.1868 38.7531 45.127 38.5502 45.0371 38.6624C45.006 38.6538 45.0358 38.555 44.9697 38.5567C44.8719 38.6113 44.8392 38.3044 44.8982 38.2572C44.8797 37.1809 45.7853 37.1525 46.6047 36.998C47.6058 36.6915 48.4434 36.7765 48.5143 38.0019ZM39.9098 42.8259C39.9567 43.0787 39.8689 43.1808 39.7982 43.4246C39.76 43.4446 39.7337 43.4129 39.7066 43.4675C39.6719 43.537 39.6389 43.5183 39.5881 43.547C39.5548 43.5403 39.551 43.6256 39.5304 43.6219C39.5151 43.6168 39.5106 43.6297 39.4992 43.6569C39.4793 43.6369 39.4606 43.7019 39.4414 43.7384C39.4002 43.7546 39.367 43.7647 39.3307 43.8023C38.5613 43.9455 37.8472 43.8502 37.0818 43.6659C37.065 43.7026 37.0519 43.6179 37.0398 43.5908C37.0262 43.5839 37.0127 43.5851 36.9993 43.5641C36.9029 43.5762 36.8521 43.3744 36.7699 43.4867C36.7427 43.4815 36.7666 43.3762 36.7091 43.381C36.6173 43.432 36.5932 43.1278 36.6446 43.0815C36.6108 42.0731 37.3877 41.9662 38.1855 41.8223C39.172 41.4793 39.8538 41.6838 39.9098 42.8259ZM48.2727 42.8259C48.3211 43.0793 48.2301 43.1814 48.1572 43.4246C48.0613 43.4196 48.0645 43.5057 47.9977 43.5264C47.9257 43.5264 47.9094 43.5888 47.8804 43.6219C47.8649 43.617 47.8599 43.6295 47.8483 43.6569C47.8139 43.636 47.8008 43.7769 47.7374 43.7504C46.9725 44.0181 46.1385 43.8201 45.3481 43.6659C45.3301 43.7017 45.3183 43.6182 45.3046 43.5908C45.2906 43.5839 45.2766 43.5851 45.2626 43.5641C45.1635 43.5765 45.11 43.3744 45.0254 43.4867C44.9976 43.4812 45.0216 43.3759 44.9626 43.381C44.8689 43.4332 44.8421 43.1281 44.8958 43.0815C44.8319 42.0987 45.7188 41.9445 46.4894 41.8223C47.4811 41.4914 48.2125 41.6559 48.2727 42.8259ZM32.9729 46.9353L32.9727 46.9356C32.9727 46.9338 32.9729 46.9328 32.9729 46.9353ZM10.9909 20.5942C10.997 20.5715 11.0031 20.5491 11.0091 20.5262C10.9106 20.5222 10.9453 20.3764 10.8164 20.4201C11.3055 16.177 23.9431 15.6762 23.1863 20.5511C23.1405 20.5482 23.1073 20.5354 23.0405 20.5685C22.9916 20.5742 22.9862 20.5174 22.9143 20.5544C22.7809 20.5866 22.7365 20.4566 22.5679 20.5153C19.5847 19.1161 15.7724 18.5664 12.6733 19.9948C12.6417 20.0528 12.5615 20.011 12.5014 20.0071C12.2559 20.1404 11.9506 20.2117 11.7264 20.3728C11.6668 20.4091 11.6593 20.5439 11.5691 20.4952C11.3336 20.4997 11.3332 20.8053 10.9924 20.6802C10.9705 20.6358 10.985 20.6177 10.9909 20.5942ZM6.71862 16.226C9.06521 10.626 25.9027 9.65519 27.3341 16.3934C27.2722 16.3799 27.2222 16.3556 27.1481 16.3848C27.083 16.3823 27.0565 16.3058 26.9713 16.3366C26.7897 16.3408 26.6847 16.1637 26.4736 16.1975C20.4434 12.8736 12.666 13.0613 6.83393 16.5343C6.82845 16.4416 6.89508 16.3994 6.92778 16.3243C6.8467 16.3508 6.86587 16.2607 6.83453 16.2107C6.78221 16.1863 6.76517 16.235 6.71862 16.226Z" fill="#0D2937"/>
</svg>