<svg width="44" height="57" viewBox="0 0 44 57" fill="none" xmlns="http://www.w3.org/2000/svg">
<path d="M0.014431 52.6405C0.0413106 40.0031 0.214046 27.3042 0.249794 14.6649C0.140911 14.1196 1.54561 13.2526 1.82137 12.9041C20.3417 -2.31545 14.4092 -5.44494 30.7246 10.9789C34.2686 4.36515 43.5681 11.7471 37.9283 16.572C40.5643 17.9927 41.0979 21.1413 42.2132 23.6673C42.6723 25.2758 43.9807 26.6856 43.5206 28.4587C42.3936 31.3989 42.717 37.1788 38.3082 36.7724C39.6987 42.3772 40.7923 48.2062 41.8024 53.9125C42.083 55.685 42.8542 57.2332 40.2028 56.9269C39.3749 56.8027 37.4329 57.3126 37.0898 56.3279C36.0355 53.9306 35.1654 51.468 34.4091 48.9749C33.794 51.1536 33.2114 53.4037 32.618 55.5915C32.3693 57.1326 31.6941 56.9329 30.3994 56.9584C29.6307 56.8783 27.8692 57.3631 27.593 56.29C19.6133 56.9738 11.5826 56.9307 3.57864 56.9471C1.45651 56.7686 -0.169087 54.7455 0.014431 52.6405ZM30.5106 10.9445C30.566 11.1157 30.74 11.2757 30.454 11.0722C30.5072 11.1258 30.5588 11.178 30.6112 11.2308C30.637 11.1737 30.6633 11.1167 30.6894 11.0595C30.6256 11.0084 30.5637 10.9617 30.5106 10.9445ZM37.6491 12.8981C36.1379 7.10441 28.7965 11.9796 33.1619 16.0665C34.1286 15.9966 35.2234 16.0216 36.1922 16.0613C37.0847 15.183 37.8296 14.2272 37.6491 12.8981ZM38.3567 34.8148C40.3369 35.3854 40.4164 32.6317 40.9642 31.3756C41.9108 28.3846 42.4689 28.2011 41.5557 25.0308C39.9673 25.5173 38.3589 25.7905 36.7101 25.9864C38.0136 25.0697 39.4599 24.552 40.9459 23.9911C39.7094 22.022 39.2702 19.3721 37.0677 18.2016C35.125 17.6911 31.9219 17.4877 31.1792 19.8779C30.8846 23.2372 31.1324 27.6 31.0093 30.9938C32.6082 31.0331 34.1837 31.0657 35.7648 31.2896C35.9137 29.7653 37.0462 28.3969 36.433 26.8878C36.5084 26.6764 36.376 26.4734 36.4315 26.2745C36.4832 26.2026 36.4207 26.1278 36.4376 26.0622C36.4854 26.0025 36.4779 25.9376 36.4838 25.8669C40.5173 27.8867 35.4112 34.017 38.3567 34.8148ZM27.1029 31.0099C27.2295 31.8245 28.0429 31.0907 28.4972 31.0323C28.6974 31.0255 28.8479 30.8681 29.047 30.8287C29.0479 30.327 29.049 29.2039 29.0571 28.7086C28.4053 29.4555 27.645 30.2248 27.1029 31.0099ZM36.7344 36.2149C35.2744 35.1608 35.1555 33.536 35.6394 31.935C34.0924 32.2456 32.5034 32.3768 30.9347 32.5257C30.6018 40.0417 30.0582 47.6319 29.4833 55.1336C29.9487 55.1322 30.4449 55.1655 30.912 55.1573C32.8105 48.8711 34.417 42.4258 36.9973 36.3781C36.9071 36.3285 36.819 36.2743 36.7344 36.2149ZM35.0025 47.7163C36.6368 49.8851 37.5471 52.4879 38.6648 54.9409C38.9857 54.9465 39.6991 54.9525 40.0254 54.9544C39.2805 48.8855 37.6085 42.8605 37.5875 36.7249C36.736 40.277 35.8217 43.9289 34.8254 47.4786C34.885 47.5572 34.9437 47.6368 35.0025 47.7163ZM2.00898 53.0898C2.03012 54.4333 3.37411 55.1964 4.60661 54.9963C12.2597 55.0252 19.9269 55.1691 27.5715 55.5044C28.0842 47.96 28.4906 40.322 28.9794 32.7739C27.1261 34.4756 24.3748 32.3589 25.4234 30.1193C25.6857 29.5309 26.3227 29.1975 26.7402 28.7272C27.487 28.1036 28.1657 27.2671 29.0728 26.9037C29.3717 23.4469 27.8139 18.288 31.763 16.4606C30.2647 15.353 29.8792 13.1088 30.5349 11.4111C13.2844 -2.94692 21.6906 -1.40236 1.99615 15.0823C2.14051 27.6938 1.98237 40.4749 2.00898 53.0898ZM36.6169 25.8089C37.2156 25.3907 37.1611 25.2342 37.0913 24.5682C37.0264 24.3472 37.1534 23.9807 36.8889 23.8343C36.4787 23.4604 35.3603 23.8923 35.2185 24.3687C35.2291 24.3797 35.1953 24.4057 35.1602 24.4349C35.1566 24.4734 35.1561 24.485 35.1332 24.5233C35.2044 25.0467 35.4485 25.422 35.7955 25.8291C35.7872 25.8407 35.7913 25.8468 35.8479 25.8314C35.9155 25.8305 35.9417 25.9058 36.0327 25.8991C36.0653 25.9031 36.0284 25.9381 36.023 25.9555C36.0059 25.9692 36.1059 25.9338 36.0994 25.9419C36.1818 26.0458 36.3581 25.9115 36.4642 25.8664C36.5078 25.8384 36.5847 25.832 36.6169 25.8089ZM10.4736 50.3505C10.5643 46.1921 10.5304 41.7884 10.6144 37.6273C10.3818 34.8907 12.6627 35.2816 14.5971 35.3348C13.8952 33.8436 14.0574 32.1408 13.9898 30.5321C14.2104 27.1985 17.8034 28.7728 19.9686 28.576C20.9298 28.5985 21.7608 29.4926 21.6732 30.4579C21.597 32.2588 21.6303 34.0746 20.9063 35.768C21.661 35.9028 22.5522 35.8435 23.2492 36.0743C23.1794 36.1083 23.0654 36.0855 23.0104 36.1333C23.0715 36.2134 23.2223 36.2285 23.0324 36.2662C23.2141 36.2974 23.4098 36.2832 23.579 36.3527C19.9972 36.9517 15.7121 36.4792 12.194 36.9491C12.1932 41.4183 12.3612 45.9648 12.3618 50.437C16.0412 50.4355 19.8959 50.4578 23.5796 50.469C23.5806 50.4672 23.5824 50.4713 23.5828 50.4688C23.5828 50.4688 23.5863 50.47 23.5876 50.468C23.5953 50.4687 23.6092 50.453 23.611 50.4468C23.6127 50.4453 23.6114 50.4436 23.6133 50.4418C23.6133 50.4418 23.6118 50.4392 23.6142 50.438C23.5365 46.0884 23.8363 41.7553 24.0179 37.4216C24.1956 36.956 24.1258 36.3277 23.5788 36.1753C26.0463 34.814 25.3395 45.6613 25.5565 47.142C25.4515 49.799 26.5211 52.7776 22.5832 52.4494C22.5953 52.4937 22.544 52.523 22.5534 52.5622C22.5657 52.5821 22.5137 52.6019 22.5474 52.6219C22.5455 52.8169 22.5315 53.0471 22.4915 53.2403C22.4525 53.2718 22.4525 53.276 22.4332 53.314C22.381 53.3295 22.3283 53.356 22.3271 53.373C22.3021 53.3947 22.247 53.3896 22.2402 53.4485C22.2257 53.4896 22.1452 53.4868 22.1474 53.5511C21.2945 53.7566 20.1361 53.5587 20.6941 52.4376C19.1163 52.4323 16.9151 52.378 15.355 52.3478C15.4057 52.4215 15.361 52.4932 15.3471 52.5622C15.3595 52.5821 15.3074 52.6019 15.341 52.6219C15.3151 52.8277 15.372 53.1243 15.2377 53.2812C15.2546 53.3303 15.1318 53.3275 15.1524 53.3526C15.0778 53.3998 15.0498 53.387 15.0336 53.4486C15.0191 53.4897 14.9385 53.487 14.9409 53.5512C14.0475 53.8189 12.841 53.4152 13.5512 52.3337C12.1545 52.4582 10.3781 52.1198 10.4736 50.3505ZM16.0468 35.3587C17.4541 35.4018 18.9532 35.5659 20.3515 35.7062C20.2756 34.5476 20.0497 33.3599 20.0551 32.1544C19.9682 31.8383 20.1576 30.3374 19.9025 30.3492C18.6073 30.4525 17.3054 30.3282 16.0091 30.3658C16.0127 30.3431 15.984 30.3422 15.9804 30.3632L15.9799 30.3649C16.0416 32.0448 15.8412 33.7082 15.557 35.352C15.7202 35.3554 15.884 35.3528 16.0468 35.3587ZM12.3618 50.437C12.3609 50.4133 12.3392 50.4243 12.3327 50.4353C12.3256 50.4365 12.3456 50.4368 12.3618 50.437ZM9.17519 15.9633C8.8222 17.1967 9.73597 18.0956 10.7169 18.6555C12.8581 20.1548 14.9988 21.683 17.1199 23.2076C17.6524 23.615 18.4737 23.1768 18.4435 22.5154C18.4422 22.4428 18.4238 21.1986 18.4226 21.1332C18.4511 20.8553 18.293 20.3981 18.6308 20.2926C20.6584 20.0133 22.7948 20.3535 24.7613 19.8708C24.6224 19.8017 24.4601 19.8157 24.3085 19.7843C24.4687 19.7478 24.3354 19.727 24.2902 19.6513C24.3358 19.6036 24.4304 19.6265 24.4881 19.5925C22.6726 19.2115 20.6795 19.0527 18.7936 18.8893C17.4948 18.7566 16.7831 19.9455 16.9278 21.1249C15.076 19.7007 12.9027 18.0737 11.0102 16.6832C10.9023 16.6139 10.9239 16.4648 10.9864 16.3805C12.8672 15.0998 14.7031 13.6991 16.5886 12.421C16.6034 16.0056 22.7129 13.9171 24.8996 14.5108C24.9691 15.8201 25.1548 17.1312 25.3712 18.4273C25.4714 18.8927 25.244 19.5304 24.7613 19.6937C27.1091 19.9994 26.2276 16.3266 26.5208 14.8931C27.031 11.1449 20.6663 13.0407 18.5676 12.4676L18.5697 10.7925C18.6695 10.1711 18.3089 9.50938 17.6259 9.50611C16.8079 9.57665 15.9095 10.6095 15.2176 11.0026C14.3717 11.6265 13.3578 12.3863 12.5128 12.9898C11.5327 13.8495 9.51084 14.6752 9.17519 15.9633Z" fill="#0D2937"/>
</svg>
