<svg width="101" height="22" viewBox="0 0 101 22" fill="none" xmlns="http://www.w3.org/2000/svg">
<path fill-rule="evenodd" clip-rule="evenodd" d="M12.1164 3.72813C12.0303 3.32385 11.3351 2.39515 10.556 2.39515C10.3815 2.39515 10.2665 2.42438 10.1516 2.45458C10.9025 2.74455 11.4802 3.4953 11.6547 4.01875L12.0873 3.758V3.72813H12.1164ZM17.0286 21.325L14.2218 19.4407C13.8841 19.214 13.4915 18.7857 13.4915 17.9866V11.1626L13.2105 11.3347L13.0989 11.3918V18.1853C13.0989 18.7568 13.4067 19.3559 13.8268 19.6413L16.6638 21.5536L17.0286 21.325ZM4.90414 14.4799C4.95915 13.3223 4.71224 11.9101 4.46336 10.5541C4.21448 9.17075 3.99212 7.75822 4.02028 6.51747C4.04845 5.75568 4.18664 5.02149 4.49021 4.34347C3.9656 5.16176 3.63485 6.09306 3.60636 7.08183C3.52383 9.48216 4.65624 12.6151 4.5449 15.0453C4.5221 15.375 4.49491 15.7044 4.46336 16.0334L4.51772 15.9762C4.73942 15.6651 4.87729 15.1862 4.90414 14.4799ZM8.84169 21.2841C8.42056 20.4431 7.41128 19.93 6.23172 19.93C6.11841 19.956 6.00609 19.956 5.89442 19.956C7.04582 20.1466 8.02759 20.7684 8.39338 21.5536L8.84169 21.2841ZM18.9934 11.2438L18.011 10.1884L18.0408 10.8914L18.5592 11.4873L18.9934 11.2438ZM45.9092 5.31763L43.554 3.9288L43.9077 3.69403L46.1738 5.02311C46.0854 5.11111 45.997 5.19911 45.9092 5.31763ZM46.4692 21.5536L45.5025 20.8775C44.8672 20.4278 44.5364 19.668 44.5364 18.8243V9.4289C44.5364 8.1349 44.8131 7.23445 45.2539 6.61651C45.0057 7.23445 44.895 7.99429 44.895 8.86681L44.9222 18.486C44.9222 19.527 45.2267 20.2024 45.9449 20.7087L46.8288 21.3289L46.4695 21.5536H46.4692ZM38.6419 21.4679C38.6419 21.4679 38.5509 21.5247 38.4906 21.5536H38.2483V5.84822C38.2483 5.0887 38.1877 5.0887 37.7027 4.75002L37.0045 4.24346L37.4607 4.01875C37.8242 4.29931 38.3704 4.69417 38.3704 4.72274C38.5826 4.9192 38.6419 5.03123 38.6419 5.48194V21.4955V21.4679ZM27.0647 2.07043C26.823 2.69714 26.8531 3.29593 27.1557 3.78658C27.4295 4.2217 27.9132 4.52174 28.4902 4.65845C26.7018 4.79386 25.9152 3.51446 27.0647 2.07043ZM31.2744 15.7087C31.3906 15.2609 31.4381 14.7572 31.4381 14.2263V6.09046C31.4381 5.11241 31.3906 5.00168 31.11 4.69417H31.1575C31.5544 4.60974 31.7649 4.69417 31.7649 5.53162V13.6954C31.7649 14.6462 31.6254 15.2609 31.2744 15.7087ZM31.9778 21.5539C31.7436 20.7856 31.036 20.1359 29.8001 19.9583C29.9779 19.93 30.1537 19.93 30.3312 19.93C31.8599 19.9579 32.302 20.9029 32.3907 21.1987L32.4199 21.2864L31.9778 21.5539ZM74.0092 21.3542L73.1659 20.8434C72.4052 20.3875 72.0109 19.679 72.0109 18.5993V10.9025C72.0109 10.4485 71.9837 10.4771 71.8134 10.3345C71.8134 10.3345 71.2227 9.85136 70.8284 9.53898L70.4069 9.76791L71.2224 10.3914C71.6736 10.7314 71.6176 10.7599 71.6176 11.4422V18.911C71.6176 19.9336 72.0394 20.6434 72.6302 20.986L73.6434 21.5536L74.0092 21.3542ZM66.1498 21.4952V9.96307L65.7096 9.53898L65.1673 9.79454L65.6749 10.2758V21.5536H65.9484C66.0152 21.5244 66.1167 21.4952 66.1167 21.4952H66.1498ZM56.9805 21.3539L53.7064 19.3773C53.0508 18.977 52.796 18.4909 52.796 17.6316V11.1626L52.5111 11.3058L52.3958 11.3626V17.9466C52.3958 18.7198 52.7371 19.291 53.336 19.6361L56.6091 21.5536L56.9805 21.3539ZM58.6178 17.657V11.2421C58.6178 10.9044 58.5098 10.7908 58.2629 10.6511L56.9805 9.8637V10.2858L57.7173 10.707C58.2629 11.0161 58.2629 11.073 58.2629 11.6649L58.2367 17.4319L58.6178 17.657ZM84.4883 6.07163V5.98882C84.4883 5.21469 84.0371 4.41394 83.3448 3.99829C83.0796 3.83204 82.8418 3.69403 82.8418 3.69403L82.5235 3.91582L82.7082 4.02492C83.6107 4.55194 84.118 5.21469 84.118 6.29179L84.4883 6.07163ZM94.9675 21.325L92.1532 19.4407C91.8199 19.214 91.4288 18.7857 91.4288 17.9866V11.1626L91.1498 11.3347L91.0378 11.3918V18.0986C91.0378 18.8415 91.3178 19.3559 91.7904 19.6702L94.5765 21.5536L94.9675 21.325ZM82.851 21.6487L79.8448 19.6982C79.1237 19.241 78.9835 18.8097 78.9835 17.9765V11.812L78.7605 11.9276L78.5938 12.0127V18.1207C78.5938 19.0974 78.9003 19.5277 79.3729 19.8423L82.4881 21.8783L82.851 21.6487ZM96.6049 11.2434L95.6225 10.1884L95.6516 10.8914L96.1707 11.4873L96.6049 11.2434ZM85.1433 17.9817V8.88954L84.4883 9.14867V17.7226L85.1433 17.9817Z" fill="#8F98A9"/>
<path fill-rule="evenodd" clip-rule="evenodd" d="M12.8344 18.8554L12.4932 18.1764L11.6103 18.7408C10.955 17.9482 9.89858 17.0156 7.38914 17.0156C4.73594 16.9876 1.48313 19.0792 0 20.8895L0.257068 21.2288C2.28119 19.8991 4.36491 19.3071 6.19058 19.3071C7.67404 19.3071 8.90011 20.0137 9.41293 21.0593L12.8344 18.8554ZM15.5747 3.35753C15.0606 2.56587 13.6917 1.09619 10.9815 1.09619C7.73069 1.06859 4.87937 3.58451 4.76476 6.63882C4.6783 9.07065 5.84837 12.2091 5.73343 14.6409C5.67743 15.4615 5.50485 16.055 5.16395 16.5064L5.50485 16.9035L7.50244 15.4618C8.47308 14.7523 9.0144 13.8768 8.98558 12.351C8.95709 10.4559 8.07225 7.54349 8.07225 5.3104C8.07225 3.38676 8.81464 1.94468 10.4975 1.94468C11.6388 1.94468 12.5514 3.10393 12.6932 3.75434C12.7515 4.06445 12.6932 4.20635 12.4083 4.40411L11.6103 4.94314V5.81858L15.575 3.35721L15.5747 3.35753ZM22.9232 10.88L19.1009 6.695L13.1383 10.1438V10.9355L14.3653 10.2581V18.091C14.3653 18.5424 14.5369 18.8255 14.8215 19.0243L17.9882 21.0593L22.4674 18.4852L22.0964 17.6936L19.7569 18.9379L17.6466 17.4952C17.3896 17.327 17.3611 17.1568 17.3611 16.7889V14.2441L22.9232 10.88ZM19.9278 11.5021L17.3611 13.0852V8.95635L17.5893 8.81574L19.9278 11.5021ZM32.885 21.1431C32.5981 20.3462 31.768 19.5234 30.277 19.4669C28.8715 19.4383 26.8654 19.979 25.2044 21.2288L24.8881 20.8304C26.0925 19.5234 28.9013 17.4224 31.8522 17.3929C33.4011 17.3929 34.4896 17.905 35.2635 18.7285L36.554 18.018L36.9267 18.7574L32.885 21.1431ZM50.5677 3.72999C49.448 4.38267 49.0754 5.26461 49.0754 6.62811V17.5059C49.0754 18.1894 49.1625 18.5002 49.5345 18.7002L49.9075 18.8999L50.939 18.3011L51.2835 18.985L47.7003 21.1158L46.469 20.2907C45.9224 19.9218 45.6925 19.4669 45.6925 18.5859V8.8716C45.6925 7.05447 46.2676 6.08713 47.0699 5.49192L47.5287 5.15096L44.1469 3.18998L42.6277 4.09822V18.2449C42.6277 19.438 42.4558 19.6088 41.3938 20.1478C41.3938 20.1478 40.5649 20.5462 39.4204 21.1427H39.1902V5.46367C39.1902 4.69733 39.1031 4.52555 38.6731 4.18524L37.4706 3.21985L36.0085 4.04269V12.1678C36.0085 13.5868 35.7792 14.6097 34.6331 15.3192L31.7677 17.1091L31.4795 16.6269C32.3689 15.944 32.569 14.9773 32.569 13.8418V5.54809C32.569 4.3265 32.3987 3.84396 31.1075 4.07127C30.6208 4.15569 29.8755 4.26967 29.4171 4.3265C27.5249 4.5827 26.7219 3.24713 28.0122 1.57158C28.0122 1.57158 28.3279 1.14522 29.1299 0.121704L29.7619 0.549035L29.3018 1.20205C28.7005 2.05573 29.1875 2.51002 30.163 2.16776C30.6208 1.99696 31.509 1.6573 32.1393 1.40012C34.861 0.350307 35.865 2.08301 36.0085 3.10555L39.3909 1.08904L42.312 3.30363L45.9224 1.08904L48.7033 2.65192C49.6484 3.18998 50.1072 2.963 50.7668 2.62172L51.3117 2.33824L51.741 3.04905L50.5677 3.72999ZM63.4905 17.4445L63.2337 16.8259L62.2372 17.3312V9.71002C62.2372 9.31809 62.0957 9.00765 61.6969 8.78132L58.022 6.61642L52.0685 10.0471V10.8634L53.2945 10.1604V17.613C53.2945 18.2872 53.4635 18.5414 53.8928 18.7941L57.5095 20.9041L63.4905 17.4445ZM77.6115 19.0477L77.3269 18.4005L76.2721 18.9925L75.9037 18.7664C75.5049 18.5414 75.4187 18.2589 75.4187 17.5845V9.51357C75.4187 8.86608 75.2766 8.58617 74.8768 8.30431L72.6833 6.6726L69.294 8.58617L67.5004 6.6726L63.9113 8.83912L64.3959 9.40024L65.62 8.67092L66.5029 9.65449V20.8489H66.7308C68.1553 20.2277 68.6109 20.0319 68.6109 20.0319C69.2943 19.75 69.4944 19.5253 69.4944 18.7388V9.39991L70.6631 8.7258L72.03 9.7951C72.3991 10.1036 72.4557 10.3569 72.4557 10.8342L72.4846 18.4852C72.4846 19.3279 72.7413 19.8065 73.3098 20.1442L74.5074 20.8489L77.6115 19.0477ZM59.2461 18.6265L59.0761 18.6547L56.7392 17.3039C56.342 17.0789 56.2546 16.8259 56.2546 16.3187L56.2847 8.92258L56.4543 8.86575L58.7054 10.1604C59.1599 10.4137 59.2461 10.6387 59.2461 11.1161V18.6265ZM85.5118 18.9259L85.3402 18.9545L83.3102 17.6445C82.9114 17.3896 82.7682 17.1899 82.7682 16.6798V9.42849L85.3114 7.89094L85.5118 8.00524V18.9259ZM89.7421 17.7598L89.4857 17.1055L88.4558 17.6445V5.58933C88.4558 3.82643 87.6561 2.68991 86.3413 1.89305L85.0553 1.09619L81.0235 3.42735L81.8238 3.79785L83.1403 3.08737L83.9959 3.57023C84.9112 4.08231 85.5118 5.10712 85.5118 6.15824V6.6122L78.5939 10.5929V11.3615L79.7656 10.7358V17.9589C79.7656 18.583 79.9369 18.8402 80.3371 19.0957L83.7674 21.2288L89.7421 17.7598ZM100.862 10.992L97.0023 6.78365L91.0281 10.2517V11.0479L92.2571 10.3666V18.2437C92.2571 18.6976 92.4287 18.9824 92.7143 19.1821L95.8882 21.2288L100.375 18.6401L100.034 17.8442L97.689 19.0957L95.5732 17.6442C95.2866 17.4461 95.2588 17.3042 95.2588 16.9347V14.3753L100.862 10.992ZM97.8321 11.6177L95.2591 13.2098V9.05766L95.5168 8.91608L97.8321 11.6177Z" fill="#0D2937"/>
</svg>
