<svg width="85" height="26" viewBox="0 0 85 26" fill="none" xmlns="http://www.w3.org/2000/svg">
<path fill-rule="evenodd" clip-rule="evenodd" d="M7.33154 26H9.28556V15.6H7.33154V26ZM14.4944 25.844H16.2445V19.2822L23.6112 26V15.756H21.866V22.2056L14.4944 15.6V25.844ZM27.6065 23.3253C28.5591 24.0646 29.7024 24.492 30.9282 24.492C32.1221 24.492 32.9597 24.0825 32.9597 23.1782C32.9597 22.3901 32.4255 22.0813 31.4901 21.736L29.9757 21.2119C28.5795 20.7179 27.5176 19.9964 27.5176 18.3381C27.5176 16.5644 29.125 15.6 31.0473 15.6C32.2249 15.6 33.2981 15.8949 34.1365 16.4174V18.1764C33.2647 17.5346 32.3105 17.0926 31.0848 17.0926C30.0295 17.0926 29.2409 17.485 29.2409 18.3032C29.2409 19.0426 29.7359 19.3383 30.6077 19.6357L32.295 20.2256C33.9302 20.7984 34.6805 21.6864 34.6805 23.1473C34.6805 24.9852 33.0576 26 30.9282 26C29.5287 26 28.3389 25.61 27.6065 25.1176V23.3253ZM39.2393 26H41.1925V15.6H39.2393V26ZM50.3559 24.4262C52.5578 24.4262 53.7346 23.0189 53.7346 20.7976C53.7346 18.5599 52.557 17.1576 50.3559 17.1576H48.1784V24.4262H50.3559ZM46.4005 15.6H50.4211C53.516 15.6 55.5174 17.6313 55.5174 20.7976C55.5174 23.9663 53.516 26 50.4211 26H46.4005V15.6ZM65.2858 15.6V17.1576H60.5582V19.6601H64.7981V21.1997H60.5574V24.4262H65.2858V26H58.7738V15.6H65.2858ZM72.2195 20.3092H74.158C75.3055 20.3092 75.9522 19.682 75.9522 18.7176C75.9522 17.7531 75.3055 17.1251 74.158 17.1251H72.2195V20.3092ZM72.2195 21.7799V26H70.4946V15.6H74.1906C76.298 15.6 77.6616 16.6814 77.6616 18.7176C77.6616 20.4587 76.9047 21.4589 75.2924 21.7157L78.9599 26H76.9977L73.4469 21.7807H72.2203L72.2195 21.7799ZM6.64893 5.35437C7.41309 5.07569 8.00843 4.23962 8.00843 3.08994C8.00843 1.17406 6.64893 0.181188 4.4739 0.181188H0.820312V10.8761H4.81317C6.9882 10.8761 8.34769 9.81337 8.34769 7.81056C8.34769 6.67794 7.6341 5.68506 6.64893 5.35437ZM2.5362 4.67513V1.74931H4.45759C5.66458 1.74931 6.30967 2.18481 6.30967 3.19475C6.30967 4.20469 5.66377 4.67513 4.45759 4.67513H2.5362ZM2.5362 6.17338H4.77891C5.96959 6.17338 6.61468 6.76488 6.61468 7.74069C6.61468 8.69863 5.96878 9.30881 4.77973 9.30881H2.53701V6.17256L2.5362 6.17338ZM16.3195 11.05C18.8175 11.05 20.5 9.55175 20.5 6.62594V0.181188H18.7327V6.41631C18.7327 8.47194 17.8829 9.43069 16.3195 9.43069C14.7562 9.43069 13.9072 8.47194 13.9072 6.41631V0.181188H12.1399V6.60806C12.1399 9.55175 13.8387 11.05 16.3195 11.05ZM24.6608 10.1091C25.3915 10.6324 26.5814 11.05 27.9743 11.05C30.0988 11.05 31.7127 9.96937 31.7127 8.01937C31.7127 6.46912 30.9657 5.52825 29.3338 4.91887L27.6522 4.29163C26.7853 3.97881 26.2927 3.66519 26.2927 2.88112C26.2927 2.01012 27.074 1.5925 28.1277 1.5925C29.351 1.5925 30.3027 2.06212 31.1696 2.74219V0.8775C30.3369 0.320938 29.2661 0.0073125 28.0934 0.0073125C26.1736 0.0073125 24.576 1.03512 24.576 2.91606C24.576 4.67513 25.6297 5.44131 27.0226 5.96375L28.5354 6.52112C29.47 6.88675 29.9969 7.21825 29.9969 8.05431C29.9969 9.01225 29.1642 9.44775 27.9743 9.44775C26.751 9.44775 25.6125 8.99438 24.6608 8.21113V10.1091ZM38.0274 0.181188H36.261V10.8753H38.0274V0.181188ZM43.069 10.8623H44.7719V3.90488L51.9388 11.0281V0.164937H50.2409V7.00375L43.069 0V10.8623ZM62.9819 0.183625V1.78506H58.3937V4.35906H62.5081V5.94263H58.3937V9.26006H62.9819V10.8786H56.6616V0.183625H62.9819ZM67.0963 10.1018C67.827 10.6251 69.0161 11.0427 70.4098 11.0427C72.5335 11.0427 74.1482 9.96288 74.1482 8.01206C74.1482 6.46181 73.4004 5.52175 71.7693 4.91156L70.0869 4.28513C69.22 3.9715 68.7274 3.65787 68.7274 2.87381C68.7274 2.00281 69.5087 1.58519 70.5623 1.58519C71.7856 1.58519 72.7374 2.05562 73.6043 2.73487V0.871C72.7716 0.313625 71.7008 0 70.5281 0C68.6083 0 67.0107 1.02781 67.0107 2.90875C67.0107 4.66781 68.0644 5.434 69.4573 5.95644L70.9701 6.51381C71.9047 6.87944 72.4315 7.21094 72.4315 8.047C72.4315 9.00494 71.5997 9.44044 70.409 9.44044C69.1857 9.44044 68.0472 8.98787 67.0963 8.20381V10.1018ZM77.7684 10.1018C78.4991 10.6251 79.689 11.0427 81.0819 11.0427C83.2064 11.0427 84.8203 9.96288 84.8203 8.01206C84.8203 6.46181 84.0725 5.52175 82.4414 4.91156L80.7589 4.28513C79.8929 3.9715 79.3995 3.65787 79.3995 2.87381C79.3995 2.00281 80.1816 1.58519 81.2344 1.58519C82.4577 1.58519 83.4103 2.05562 84.2764 2.73487V0.871C83.4445 0.313625 82.3737 0 81.201 0C79.2804 0 77.6836 1.02781 77.6836 2.90875C77.6836 4.66781 78.7372 5.434 80.1302 5.95644L81.643 6.51381C82.5776 6.87944 83.1044 7.21094 83.1044 8.047C83.1044 9.00494 82.2718 9.44044 81.0819 9.44044C79.8586 9.44044 78.7201 8.98787 77.7684 8.20381V10.1018Z" fill="#0D2937"/>
</svg>
