<svg width="61" height="53" viewBox="0 0 61 53" fill="none" xmlns="http://www.w3.org/2000/svg">
<path d="M60.5845 48.4101C60.5353 47.1039 59.9364 45.8166 58.9521 44.9512C59.4706 44.5712 60.3006 44.1794 60.3057 43.4424C60.3533 40.1615 60.3676 36.4839 60.4115 33.1812C60.4386 31.0098 60.441 28.1119 60.4342 25.9657C60.2879 24.2881 58.1341 25.0593 57.0106 24.9161C58.6803 22.4132 55.8143 19.7079 53.2109 20.1753C53.7874 16.6079 50.804 13.2798 47.5896 12.1617C50.0901 5.14037 38.4031 5.35723 41.0593 12.2408C37.7351 13.3923 34.7459 16.7876 35.4023 20.4713C32.7058 20.0438 29.8773 22.2881 31.6886 24.9562C30.5768 24.9541 29.3591 24.9761 28.2544 24.9567C28.557 22.8052 28.184 20.5509 27.9127 18.4202C31.6925 17.709 31.5633 14.2069 31.3785 11.1443C31.3564 9.88275 31.5211 7.9948 29.731 8.0821C28.1335 8.09325 26.4162 8.35658 24.9474 8.88731C24.9811 8.92336 25.0363 8.89918 25.0629 8.94985C25.046 9.01051 24.9584 9.05901 25.0522 9.09086C24.9607 9.12416 24.8655 9.11127 24.7877 9.18264C25.0848 9.46321 25.5019 9.35955 25.8683 9.40211C26.1069 9.56397 26.4035 9.39647 26.678 9.45076C27.6657 9.5602 28.6605 9.67761 29.6549 9.67023C29.6332 11.2566 29.6015 12.8543 29.4912 14.4375C29.2112 16.8351 25.801 17.1129 25.1521 14.7968C25.0555 13.0363 24.8052 11.2741 24.6897 9.51229C24.5306 9.43599 24.6146 9.35506 24.6211 9.22868C24.6066 9.14804 24.6665 9.16411 24.6894 9.11894C24.6968 9.0454 24.7402 9.02586 24.7876 8.99444C23.0321 7.58583 23.068 13.1444 23.0221 14.0571C22.861 16.1591 24.4772 18.152 26.5622 18.4424C26.1805 20.429 26.1748 22.6696 26.3886 24.7217C26.4588 24.799 26.4921 24.8744 26.5024 24.9578C23.9259 25.2291 21.915 23.8237 22.3525 27.4912C22.4579 31.8615 22.574 36.2441 22.7104 40.6165C20.662 40.1 19.4755 40.4287 19.8549 37.803C20.354 30.3062 20.3189 22.7708 20.3606 15.2558C20.0235 8.09716 22.9878 -1.04843 12.1815 0.0980117C8.84516 0.120885 5.28974 0.165909 1.96611 0.181545C-0.0234735 0.246836 -0.0896335 2.18792 0.0416733 3.72451C-0.12047 5.04829 0.489738 6.41463 1.9842 6.4184C5.59492 6.4129 9.20506 6.36773 12.8146 6.3311C13.9234 6.23642 14.2132 6.78163 14.1317 7.80689C14.2018 18.8995 14.108 30.1298 14.4054 41.2087C15.3629 46.4484 20.9732 45.0803 24.8514 44.9596C21.6485 47.4078 23.3784 53.4521 27.6168 52.8665C27.6737 52.7934 27.758 52.8358 27.8178 52.7994C27.8608 52.7333 27.9221 52.7221 27.9841 52.6954C27.0153 51.6312 25.5055 50.8147 25.2688 49.2329C24.9985 47.5474 26.3524 45.722 28.1224 45.8129C32.3667 46.2229 31.5017 51.3614 28.1293 52.5809C28.1616 52.6154 28.2108 52.5886 28.2383 52.6379C28.227 52.6985 28.1459 52.7524 28.237 52.7792C28.1488 52.8173 28.0588 52.8092 27.9841 52.8835C32.4692 53.7819 34.4089 47.1414 30.7818 44.7074C32.7504 43.0052 35.101 41.6305 37.4836 43.5401C38.3444 44.3624 39.2788 45.1339 40.4467 45.4704C41.7846 45.9698 43.3628 45.7052 44.6211 45.0825C47.874 42.4148 49.5226 41.8618 52.8044 44.8953C49.5123 47.3037 51.2063 53.4514 55.4934 52.8664C55.5503 52.7933 55.6345 52.8357 55.6943 52.7992C55.7373 52.7332 55.7987 52.7219 55.8605 52.6953C54.8915 51.6311 53.3819 50.8146 53.1452 49.2328C52.8752 47.5471 54.2288 45.7218 55.9988 45.8127C60.2431 46.2227 59.3781 51.3612 56.0057 52.5808C56.038 52.6152 56.0872 52.5884 56.1147 52.6378C56.1034 52.6983 56.0224 52.7523 56.1134 52.7791C56.0252 52.8172 55.9352 52.8091 55.8605 52.8833C58.2908 53.602 60.8267 50.8648 60.5845 48.4101ZM29.8332 9.67414L29.8454 9.67443C29.8311 9.67776 29.8134 9.67689 29.7973 9.67327C29.8047 9.67341 29.8257 9.67399 29.8332 9.67414ZM42.1218 11.4496C42.3169 10.2521 42.2965 9.24982 43.8043 8.96911C45.6225 8.55695 45.9941 10.4679 46.2082 11.8096C44.8364 11.5577 43.4049 11.5537 42.0577 11.9308C42.0931 11.7717 42.1196 11.6083 42.1218 11.4496ZM36.1465 20.2293C38.1176 11.5065 49.9637 11.5582 52.1167 20.159C46.7934 20.1929 41.4194 20.4037 36.0976 20.452C36.1102 20.377 36.1309 20.3035 36.1465 20.2293ZM32.9927 24.8866C32.0391 24.2296 32.464 22.7132 33.4178 22.2748C36.6906 21.8926 40.1109 22.4475 43.4247 22.3282C45.6921 22.2616 48.0608 22.3126 50.3374 22.2687C51.6761 22.3925 54.0478 21.9339 55.1766 22.561C55.9647 23.1582 56.061 24.2097 55.3467 24.9172C48.0769 24.9189 40.3316 24.9444 33.0472 24.9548C33.0396 24.9234 33.0157 24.906 32.9927 24.8866ZM2.02517 2.13073L2.02546 2.13218C2.02517 2.13305 2.02517 2.13406 2.02474 2.13493C2.02488 2.13479 2.02445 2.12827 2.02517 2.13073ZM1.9719 2.19704C1.97132 2.19718 1.97016 2.19718 1.96958 2.19704H1.9719ZM1.97088 4.4197C1.97219 4.41955 1.9745 4.41912 1.97552 4.42013C1.97508 4.41999 1.96726 4.42057 1.97088 4.4197ZM2.03719 4.49266V4.48499C2.03589 4.4889 2.0395 4.49136 2.03777 4.49454C2.03762 4.49368 2.03719 4.49845 2.03719 4.49266ZM23.9967 44.2858C20.7763 44.0539 15.911 45.1639 15.7542 40.4842C15.9557 32.5648 15.8434 24.5484 15.9288 16.6233C16.2895 0.81839 16.8042 4.98199 2.03748 4.41955C2.04805 3.67978 2.03603 2.93696 2.02546 2.1982C26.8434 0.776551 15.7755 3.98698 18.6811 37.0207C18.3889 40.1322 19.5669 41.4721 22.7473 40.7912C22.9831 42.1139 23.4681 43.5003 24.6489 44.2757C24.4311 44.2779 24.2157 44.2937 23.9967 44.2858ZM52.4862 42.4374C46.7749 38.7057 45.3819 44.2082 42.0011 44.1888C40.7782 44.2164 39.5983 43.7043 38.7185 42.8651C36.9368 41.2426 34.0403 41.1112 32.1373 42.58C31.4437 43.1228 30.939 43.8898 30.1325 44.2924C28.8659 43.6135 27.2833 43.6895 25.9868 44.2443C23.6293 42.8619 23.953 39.8234 24.1734 37.4887C24.3168 34.0111 24.3505 30.5004 24.3543 27.0134C25.9876 27.0117 28.0369 27.0446 29.6753 27.0485C29.5084 28.4802 29.3643 29.9447 29.6062 31.3632C29.5763 31.4395 29.7195 31.4822 29.6951 31.541C29.7587 31.5766 29.6983 31.6177 29.77 31.6493C29.8473 31.7308 29.785 31.8554 29.8783 31.9405C29.9514 32.0014 29.8668 32.1034 29.9544 32.1418C30.1053 32.1848 30.0436 32.2483 30.1585 32.2822C30.2033 32.2916 30.2153 32.3019 30.217 32.3139C30.2471 32.3423 30.3334 32.3497 30.3478 32.3714C32.6125 31.9688 31.2145 28.6244 31.2478 27.0557C33.0396 27.0684 35.2136 27.0605 36.9884 27.0509C36.6256 29.3703 36.593 31.898 36.8178 34.2757C36.9306 34.4008 36.8995 34.5328 36.9966 34.6531C37.0275 34.891 37.0809 35.1498 37.1559 35.3596C37.3056 35.4239 37.2438 35.5203 37.3601 35.5733C37.4049 35.5876 37.4169 35.6032 37.4186 35.6215C37.4424 35.6633 37.535 35.6742 37.5494 35.7091C39.4448 35.1471 38.6949 32.0934 38.6708 30.5906C38.5067 29.4227 38.6363 28.1885 38.3336 27.0453C40.0668 27.0435 42.3636 27.0318 44.0759 27.0172C43.8986 28.3112 43.7754 29.6539 44.0092 30.9329C43.9799 31.0052 44.1229 31.0425 44.0979 31.0965C44.1616 31.1293 44.1014 31.1675 44.1727 31.1961C44.2493 31.2697 44.1882 31.3871 44.281 31.4643C44.3534 31.5198 44.2706 31.6163 44.3572 31.6494C44.5083 31.6889 44.4465 31.7476 44.5613 31.7786C44.6061 31.7872 44.6181 31.7966 44.6199 31.8078C44.6512 31.8341 44.7362 31.8409 44.7507 31.8608C46.9897 31.4977 45.639 28.5108 45.6572 27.006C47.5822 26.9926 49.5064 26.952 51.4318 26.9426C51.1293 28.7049 50.5713 35.8886 51.9521 36.8364C53.8773 36.1819 53.0795 32.72 53.0735 31.1252C52.8659 29.7502 53.1252 28.2592 52.6312 26.9376C54.4015 26.937 56.6517 26.9041 58.4339 26.9086C58.485 31.9932 58.5238 37.9666 58.5141 43.074C57.5164 44.1767 56.1579 43.6646 54.8856 43.9297C53.9226 43.7715 53.1785 43.0808 52.4862 42.4374Z" fill="#0D2937"/>
</svg>
