<?xml version="1.0" encoding="UTF-8" standalone="no"?>
<svg
   id="svg51"
   width="136"
   height="40"
   version="1.1"
   viewBox="0 0 136 40"
   xml:space="preserve"
   sodipodi:docname="Google_Play_Store_badge_EN1.svg"
   inkscape:version="1.2.2 (b0a8486541, 2022-12-01)"
   xmlns:inkscape="http://www.inkscape.org/namespaces/inkscape"
   xmlns:sodipodi="http://sodipodi.sourceforge.net/DTD/sodipodi-0.dtd"
   xmlns="http://www.w3.org/2000/svg"
   xmlns:svg="http://www.w3.org/2000/svg"
   xmlns:rdf="http://www.w3.org/1999/02/22-rdf-syntax-ns#"
   xmlns:cc="http://creativecommons.org/ns#"
   xmlns:dc="http://purl.org/dc/elements/1.1/"><defs
     id="defs14" /><sodipodi:namedview
     id="namedview12"
     pagecolor="#ffffff"
     bordercolor="#000000"
     borderopacity="0.25"
     inkscape:showpageshadow="2"
     inkscape:pageopacity="0.0"
     inkscape:pagecheckerboard="0"
     inkscape:deskcolor="#d1d1d1"
     showgrid="false"
     inkscape:zoom="7.3888889"
     inkscape:cx="66.383459"
     inkscape:cy="20.233083"
     inkscape:window-width="2560"
     inkscape:window-height="1371"
     inkscape:window-x="0"
     inkscape:window-y="0"
     inkscape:window-maximized="1"
     inkscape:current-layer="svg51" /><metadata
     id="metadata9"><rdf:RDF><cc:Work
         rdf:about=""><dc:format>image/svg+xml</dc:format><dc:type
           rdf:resource="http://purl.org/dc/dcmitype/StillImage" /></cc:Work></rdf:RDF></metadata><path
     id="path11"
     d="M 130.96289,40 H 5.037107 C 2.266679,40 0,37.750019 0,35 V 5 C 0,2.2499812 2.266679,0 5.037107,0 H 130.96289 C 133.73332,0 136,2.2499812 136,5 v 30 c 0,2.750019 -2.26668,5 -5.03711,5"
     fill="#100f0d"
     stroke-width="0.10037" /><path
     id="path13"
     d="M 130.96289,0 H 5.037107 C 2.266679,0 0,2.2499812 0,5 v 30 c 0,2.750019 2.266679,5 5.037107,5 H 130.96289 C 133.73332,40 136,37.750019 136,35 V 5 c 0,-2.7500188 -2.26668,-5 -5.03711,-5 z m 0,0.799595 c 2.33317,0 4.2312,1.8844221 4.2312,4.200405 v 30 c 0,2.315983 -1.89795,4.200405 -4.2312,4.200405 H 5.037107 C 2.703936,39.200405 0.80636,37.315983 0.80636,35 V 5 c 0,-2.3159829 1.897576,-4.200405 4.230747,-4.200405 H 130.96289"
     fill="#a2a2a1"
     stroke-width="0.10037" /><path
     id="path35"
     d="m 107.72866,30 h 1.87982 V 17.497937 h -1.87982 z m 16.9319,-7.9982 -2.15485,5.419936 h -0.0645 L 120.2048,22.0018 h -2.02489 l 3.35472,7.575189 -1.91307,4.213981 h 1.96044 l 5.16911,-11.788795 z m -10.6613,6.578114 c -0.61453,0 -1.47385,-0.305902 -1.47385,-1.061726 0,-0.964899 1.06991,-1.334808 1.99271,-1.334808 0.82608,0 1.21596,0.176599 1.71767,0.418 -0.14608,1.158179 -1.15046,1.978474 -2.23646,1.978474 z m 0.22768,-6.851571 c -1.36104,0 -2.77043,0.595298 -3.35374,1.914123 l 1.66833,0.691397 c 0.35662,-0.691397 1.02049,-0.916373 1.71767,-0.916373 0.97213,0 1.96044,0.578497 1.97653,1.608191 v 0.1285 c -0.34051,-0.193002 -1.0699,-0.482397 -1.96044,-0.482397 -1.79927,0 -3.62975,0.9808 -3.62975,2.814371 0,1.672691 1.4749,2.750393 3.12706,2.750393 1.26334,0 1.96143,-0.562919 2.39762,-1.222605 h 0.0655 v 0.965574 h 1.81537 v -4.79337 c 0,-2.21953 -1.67029,-3.457811 -3.82416,-3.457811 z m -11.61788,1.79532 h -2.67371 v -4.285082 h 2.67371 c 1.40539,0 2.20321,1.154729 2.20321,2.142504 0,0.968799 -0.7979,2.142578 -2.20321,2.142578 z m -0.0484,-6.025426 H 98.05632 V 30.0003 h 1.87906 v -4.736293 h 2.62536 c 2.08337,0 4.13146,-1.496888 4.13146,-3.882472 0,-2.385135 -2.04809,-3.882773 -4.13146,-3.882773 z M 77.998905,28.582015 c -1.2987,0 -2.385608,-1.079727 -2.385608,-2.561314 0,-1.498838 1.086908,-2.59379 2.385608,-2.59379 1.282155,0 2.288365,1.095027 2.288365,2.59379 0,1.481587 -1.00621,2.561314 -2.288365,2.561314 z m 2.158475,-5.880372 h -0.065 c -0.42181,-0.499303 -1.23372,-0.950424 -2.255644,-0.950424 -2.142763,0 -4.106453,1.869122 -4.106453,4.269482 0,2.384009 1.96369,4.236705 4.106453,4.236705 1.021924,0 1.833804,-0.451211 2.255644,-0.966399 h 0.065 v 0.611701 c 0,1.627765 -0.87632,2.497262 -2.28836,2.497262 -1.151889,0 -1.866068,-0.821496 -2.15848,-1.514138 l -1.638939,0.676562 c 0.470261,1.127278 1.719636,2.513313 3.797494,2.513313 2.207665,0 4.074115,-1.289132 4.074115,-4.430886 V 22.00888 h -1.78575 z m 3.08445,7.297982 h 1.88186 V 17.497562 h -1.88186 z m 4.65743,-4.124203 c -0.0484,-1.643366 1.28283,-2.480912 2.23993,-2.480912 0.7469,0 1.37925,0.370697 1.59104,0.901972 z m 5.84263,-1.417986 c -0.35692,-0.949973 -1.44422,-2.706217 -3.66768,-2.706217 -2.20767,0 -4.04147,1.723768 -4.04147,4.253131 0,2.384385 1.81809,4.253131 4.25205,4.253131 1.96369,0 3.10024,-1.191779 3.5712,-1.884797 L 92.39522,27.40591 c -0.48709,0.709 -1.1522,1.17618 -2.11043,1.17618 -0.95702,0 -1.63901,-0.435101 -2.07657,-1.288983 l 5.72846,-2.351983 z M 48.097764,23.056251 v 1.804321 h 4.349525 c -0.129855,1.014925 -0.470669,1.755868 -0.990119,2.271506 -0.633165,0.628104 -1.623223,1.321083 -3.359481,1.321083 -2.67802,0 -4.771519,-2.142578 -4.771519,-4.800795 0,-2.658216 2.093499,-4.801095 4.771519,-4.801095 1.444527,0 2.499248,0.563999 3.278332,1.288983 l 1.282529,-1.273007 c -1.08774,-1.030901 -2.531965,-1.820296 -4.560861,-1.820296 -3.668516,0 -6.752134,2.964374 -6.752134,6.605415 0,3.640666 3.083618,6.605115 6.752134,6.605115 1.979783,0 3.473197,-0.644506 4.641558,-1.852696 1.201078,-1.19223 1.574488,-2.867622 1.574488,-4.221105 0,-0.418398 -0.03274,-0.805071 -0.09762,-1.127429 z m 11.161501,5.525764 c -1.298699,0 -2.418627,-1.063302 -2.418627,-2.577665 0,-1.530488 1.119928,-2.577364 2.418627,-2.577364 1.29817,0 2.418098,1.046876 2.418098,2.577364 0,1.514363 -1.119928,2.577665 -2.418098,2.577665 z m 0,-6.830796 c -2.37027,0 -4.301318,1.788194 -4.301318,4.253131 0,2.448811 1.931048,4.253131 4.301318,4.253131 2.369363,0 4.300789,-1.80432 4.300789,-4.253131 0,-2.464937 -1.931426,-4.253131 -4.300789,-4.253131 z m 9.382098,6.830796 c -1.297793,0 -2.418098,-1.063302 -2.418098,-2.577665 0,-1.530488 1.120381,-2.577364 2.418098,-2.577364 1.2987,0 2.41825,1.046876 2.41825,2.577364 0,1.514363 -1.11955,2.577665 -2.41825,2.577665 z m 0,-6.830796 c -2.369363,0 -4.300412,1.788194 -4.300412,4.253131 0,2.448811 1.931049,4.253131 4.300412,4.253131 2.37027,0 4.301319,-1.80432 4.301319,-4.253131 0,-2.464937 -1.931049,-4.253131 -4.301319,-4.253131"
     fill="#ffffff"
     stroke-width="0.10037" /><path
     id="path37"
     d="M 20.868123,19.423986 10.14335,30.723768 c 4.04e-4,0.0023 0.0012,0.0043 0.0016,0.0067 0.328921,1.227031 1.457976,2.130504 2.797931,2.130504 0.535649,0 1.038551,-0.143749 1.469839,-0.3961 l 0.03425,-0.01992 12.072736,-6.915173 -5.65102,-6.105902"
     fill="#eb3131"
     stroke-width="0.10037" /><path
     id="path39"
     d="m 31.719078,17.500188 -0.01028,-0.007 -5.212176,-2.999325 -5.872179,5.18683 5.89258,5.848421 5.184673,-2.969474 c 0.908968,-0.4871 1.526054,-1.438311 1.526054,-2.535213 0,-1.089028 -0.608782,-2.035476 -1.508752,-2.524188"
     fill="#f6b60b"
     stroke-width="0.10037" /><path
     id="path41"
     d="m 10.141839,9.276982 c -0.06447,0.236001 -0.09836,0.4832 -0.09836,0.739901 v 19.967749 c 0,0.256222 0.03349,0.50426 0.09877,0.739421 L 21.237256,19.713028 10.142247,9.277267"
     fill="#5778c5"
     stroke-width="0.10037" /><path
     id="path43"
     d="M 20.947459,20.00075 26.498968,14.491787 14.439833,7.551564 C 14.001503,7.290962 13.489911,7.140561 12.94249,7.140561 c -1.339954,0 -2.470536,0.905123 -2.799518,2.133578 -4.03e-4,0.0012 -4.03e-4,0.002 -4.03e-4,0.0031 l 10.804864,10.723769"
     fill="#3bad49"
     stroke-width="0.10037" /><path
     id="path33"
     d="m 47.745035,9.780995 h -2.938848 v 0.7219 h 2.202228 c -0.05984,0.589102 -0.295978,1.051601 -0.694217,1.387535 -0.398231,0.336001 -0.906701,0.504702 -1.507996,0.504702 -0.659558,0 -1.218381,-0.228103 -1.676341,-0.681197 -0.448704,-0.462499 -0.676883,-1.034426 -0.676883,-1.723468 0,-0.688997 0.228179,-1.260931 0.676883,-1.723393 0.457975,-0.453101 1.016791,-0.679697 1.676341,-0.679697 0.338495,0 0.661167,0.0578 0.957024,0.1844 0.295978,0.126498 0.533632,0.303097 0.7194,0.529701 L 47.041441,7.746779 C 46.787973,7.460782 46.46691,7.242076 46.06855,7.082682 45.670319,6.923281 45.254785,6.846779 44.806119,6.846779 c -0.879879,0 -1.625943,0.303097 -2.235171,0.907822 -0.609191,0.606203 -0.91456,1.353109 -0.91456,2.235881 0,0.882772 0.305347,1.631291 0.91456,2.236031 0.60919,0.604598 1.355292,0.907823 2.235171,0.907823 0.924005,0 1.6607,-0.293797 2.227389,-0.890722 0.498973,-0.496798 0.753953,-1.16868 0.753953,-2.009301 0,-0.142203 -0.01733,-0.293797 -0.04252,-0.453198 z m 1.138515,-2.79997 v 6.018825 h 3.540066 v -0.739098 h -2.760907 v -1.909323 h 2.490257 V 9.629528 H 49.662709 V 7.721706 h 2.760907 V 6.981002 Z m 8.504108,0.740703 V 6.981025 h -4.166673 v 0.740703 h 1.693795 v 5.278107 h 0.779159 V 7.721728 Z m 3.772258,-0.740703 h -0.779159 v 6.018825 h 0.779159 z m 5.142965,0.740703 V 6.981025 h -4.166598 v 0.740703 h 1.693644 v 5.278107 h 0.779159 V 7.721728 Z m 7.862617,0.0422 C 73.564165,7.149835 72.827508,6.84673 71.947554,6.84673 c -0.881466,0 -1.618086,0.303098 -2.219456,0.907823 -0.601332,0.596902 -0.897181,1.345308 -0.897181,2.235881 0,0.890572 0.295879,1.639091 0.897181,2.236031 0.601333,0.604597 1.33799,0.907822 2.219456,0.907822 0.87202,0 1.616573,-0.303202 2.217944,-0.907822 0.601332,-0.596903 0.897181,-1.345384 0.897181,-2.236031 0,-0.882772 -0.295879,-1.629716 -0.897181,-2.226506 z m -3.878569,0.503098 c 0.448606,-0.453102 0.999563,-0.679697 1.660625,-0.679697 0.659557,0 1.210522,0.226603 1.651255,0.679697 0.448606,0.445301 0.668927,1.026475 0.668927,1.723393 0,0.6985 -0.220321,1.278107 -0.668927,1.723468 -0.440748,0.453101 -0.991705,0.681197 -1.651255,0.681197 -0.661069,0 -1.212034,-0.228103 -1.660625,-0.681197 -0.439237,-0.454699 -0.659558,-1.024976 -0.659558,-1.723468 0,-0.696903 0.220321,-1.268732 0.659558,-1.723393 z m 6.626933,0.984399 -0.03302,-1.161029 h 0.03302 l 3.082108,4.909398 h 0.81376 V 6.980969 h -0.77916 v 3.521863 l 0.033,1.161029 h -0.033 L 77.083869,6.980969 h -0.949166 v 6.018825 h 0.779159 z"
     fill="#ffffff"
     stroke="#ffffff"
     stroke-miterlimit="10"
     stroke-width="0.200741" /></svg>
