<svg xmlns="http://www.w3.org/2000/svg" width="51" height="49" viewBox="0 0 51 49" fill="none">
<path d="M23.1269 29.9477C23.1132 29.9049 23.1397 29.8722 23.1575 29.8464C23.1543 28.9406 24.1362 28.994 24.8077 28.867C25.8041 28.5089 27.0558 28.9304 26.5347 30.1133C26.4501 30.1054 26.433 30.1761 26.3695 30.1925C26.3038 30.1914 26.28 30.2348 26.248 30.2667C26.2336 30.263 26.2262 30.2718 26.2148 30.294C26.1934 30.2783 26.1734 30.3289 26.1528 30.3573C25.3298 30.5755 24.4565 30.4253 23.6258 30.3009C23.6076 30.3292 23.5943 30.2652 23.5807 30.2424C23.5663 30.237 23.5517 30.2379 23.5374 30.2216C23.4319 30.2307 23.3809 30.074 23.2918 30.1614C23.2637 30.155 23.2884 30.0854 23.2348 30.0794C23.1592 30.1222 23.1477 30.0029 23.1269 29.9477ZM13.4319 40.3932C13.3612 39.3807 12.3654 39.444 11.5887 39.6377C10.924 39.7602 9.92715 39.7199 9.93857 40.6171C9.87445 40.6587 9.92096 40.8928 10.0077 40.85C10.0661 40.8469 10.0492 40.9255 10.0728 40.9322C10.1615 40.8447 10.2122 41.001 10.3184 40.9924C10.3329 41.0087 10.3473 41.0079 10.3618 41.0132C10.3813 41.0359 10.3829 41.1001 10.4068 41.0717C11.2369 41.1961 12.1122 41.3461 12.9339 41.1281C12.9544 41.0995 12.9744 41.049 12.9958 41.0646C13.0027 41.0425 13.019 41.0337 13.0291 41.0373C13.0591 41.006 13.0886 40.9608 13.1505 40.963C13.2135 40.9471 13.231 40.8761 13.3158 40.8839C13.3691 40.7502 13.4325 40.6615 13.457 40.5395C13.4461 40.5114 13.4402 40.4586 13.4319 40.3932ZM50.8134 46.3154C50.6533 49.813 46.2528 48.7407 43.7872 48.9368C39.9825 48.966 36.0591 48.973 32.2541 48.9877C31.749 48.9229 30.2821 49.2029 29.9789 48.6238C21.3773 48.8188 12.701 48.7689 4.09806 48.9368L1.91856 48.9624C-0.663377 48.5353 2.51844 42.7893 5.81879 42.8611C5.67719 41.1553 5.22691 39.3555 5.60931 37.6573C1.75147 37.7417 1.35863 31.9385 7.48341 32.7849C7.16246 26.8973 9.92873 17.9403 14.2095 13.6623C13.5096 12.8233 13.3687 11.611 13.8806 10.6545C11.8849 10.9226 9.80827 10.9965 7.7757 10.9625C6.89591 10.8482 5.13475 11.4474 5.03942 10.159C6.30586 7.04393 10.3366 5.43011 13.6811 5.93179C12.6836 4.95742 11.5093 3.87253 10.4941 2.919C4.63055 -1.53899 18.1537 -1.13024 19.5185 5.81045C19.6278 5.88591 19.7727 5.81557 19.8937 5.79822C19.9547 0.696699 29.8194 -1.39343 29.9269 1.22703C28.6306 3.0726 26.6666 4.59373 25.0041 6.14991C29.1235 4.8143 36.1275 10.1035 33.0682 10.9142C30.1133 10.9736 27.0443 11.2312 24.1341 10.6553C25.7137 13.5481 21.4188 16.4649 19.148 13.9295C18.2314 16.8266 16.4238 19.3784 15.4568 22.2642C14.0216 25.6398 13.5884 29.3437 12.1617 32.7099C14.343 32.6992 16.8827 32.6716 19.0593 32.724C18.8654 31.9538 18.8997 31.1395 18.832 30.3469C18.729 29.2135 18.4868 27.9978 18.8613 26.8857C15.3315 27.1426 14.9696 22.3306 18.4318 21.9818C21.9399 22.0944 27.625 21.3379 30.6373 22.9194C30.7127 22.5593 30.8204 22.282 30.8685 21.8828C31.5531 30.3243 31.5069 38.8226 31.5697 47.29L35.4179 47.2864C35.0013 45.7738 34.9168 44.1885 34.9079 42.6399C34.8712 41.4512 34.5277 39.6871 36.3158 39.6475C38.9656 39.6404 41.6658 39.5132 44.3155 39.4616C46.2511 39.5015 46.1481 41.0025 46.0783 42.4068C46.0152 44.035 46.076 45.6911 45.5494 47.261C46.5992 47.1313 49.408 47.8283 49.126 46.075C49.0319 38.1263 49.2017 30.0775 49.2258 22.13C46.295 19.3238 43.2548 16.3804 40.3175 13.5762C37.199 16.3448 34.286 19.3471 31.0142 21.9411C31.1789 21.7072 31.4403 21.477 31.6411 21.2522C31.4101 21.4241 31.5036 21.357 31.5613 21.1789C31.4522 21.229 31.3246 21.3756 31.2078 21.4488C33.983 18.3624 37.0069 15.2435 39.9659 12.264C40.1773 12.0558 40.5241 12.0502 40.7427 12.2507C43.7291 15.0488 46.872 17.9822 49.846 20.7845C50.7983 21.5882 50.6838 21.5999 50.6833 22.7715C50.7128 30.5088 50.739 38.5853 50.8134 46.3154ZM44.4351 41.1455C44.439 41.1455 44.4438 41.147 44.4472 41.1455H44.4351ZM44.3267 41.0316C44.3265 41.0336 44.3271 41.0355 44.3275 41.0375L44.3274 41.0278L44.3267 41.0316ZM36.3208 41.0574L36.3209 41.071C36.3305 41.0603 36.3266 41.0387 36.321 41.0274L36.3208 41.0574ZM18.851 25.3655C22.6762 25.476 26.5184 25.4749 30.3239 25.7482C30.4132 24.8322 30.4052 23.8732 30.609 22.9877C26.8236 23.8876 22.6986 23.5042 18.7956 23.6445C17.243 23.517 17.3571 25.4805 18.851 25.3655ZM20.1791 26.8785C20.7433 28.6593 20.3652 30.6688 20.2887 32.5237C20.3174 32.5576 20.2559 32.5883 20.2276 32.617C20.2276 32.6554 20.2071 32.6929 20.2022 32.7315C23.4661 32.6884 26.7226 32.9608 29.9469 33.2943C29.9885 30.9294 30.1498 28.5815 30.289 26.2251C26.9695 26.9221 23.5567 26.8135 20.1791 26.8785ZM22.7269 11.7736C22.7587 11.3781 22.5099 11.0464 22.4628 10.6558C21.7314 11.3392 20.6285 11.5957 19.6381 11.4293C19.4022 13.5693 22.5579 14.0724 22.7269 11.7736ZM25.0236 7.33588C24.4637 7.43499 23.8543 7.45665 23.3598 7.75244C23.5288 8.41425 23.4428 9.13278 23.1365 9.74835C23.156 9.75779 23.1765 9.76536 23.1959 9.77467C25.7782 9.25692 28.4975 9.32877 31.1439 9.30222C29.5039 7.67849 27.3023 7.11928 25.0236 7.33588ZM20.4581 5.89138C20.4528 5.92539 20.4425 5.95753 20.4306 5.98897C21.1698 5.6105 22.0356 6.13163 22.6342 6.58801C23.9917 4.86682 25.5673 3.2849 27.1788 1.77414C24.3096 1.69052 21.7017 3.53667 20.4581 5.89138ZM19.4529 6.74488C17.7886 8.25005 19.1434 10.7628 21.1239 9.55178C22.4935 8.34543 21.1102 7.1732 20.3626 6.13885C20.3042 6.23749 20.2096 6.32786 20.1076 6.3862C20.0821 6.34986 20.0889 6.31679 20.0906 6.28395C19.8451 6.38981 19.6278 6.5575 19.4529 6.74488ZM13.907 3.7492C15.1403 4.94426 16.3739 6.22095 17.4427 7.51092C17.6894 6.79833 18.2652 6.2744 18.9863 6.00912C17.3418 3.60538 14.7278 1.44771 11.5618 1.6083C12.306 2.24077 13.1894 3.08704 13.907 3.7492ZM13.8047 9.60779C14.0529 9.64378 14.2916 9.72926 14.5323 9.79727C15.0989 9.29383 16.3488 9.03437 16.7566 9.80949C16.6289 9.95762 16.4355 10.0481 16.3215 10.2085C16.0249 10.3023 15.732 10.5373 15.6163 10.8013C14.0229 14.0953 19.6548 13.7105 17.9368 10.7996C17.8271 10.6067 17.6003 10.3917 17.3939 10.2929C17.3376 10.2676 17.239 10.3104 17.2266 10.2327C17.2247 10.2042 17.2125 10.1988 17.2 10.1933C17.0374 10.1295 16.844 10.1498 16.7566 9.96077C16.79 9.90743 16.836 9.91803 16.8824 9.89334C16.8371 9.86341 16.8875 9.82114 16.8951 9.78038C16.6987 9.59091 17.3342 9.59743 17.4653 9.57123C17.3769 9.32621 17.3026 9.0735 17.2744 8.81532C14.6803 6.43488 10.1211 6.78529 7.67491 9.27543C9.70675 9.30268 11.8179 9.17319 13.8047 9.60779ZM8.12604 32.7532L8.12167 32.7734C9.01882 32.7515 10.3329 32.728 11.2437 32.7206C11.47 26.241 14.2298 19.8936 17.9117 14.52C16.9575 14.9841 15.7553 14.8165 14.8761 14.2617C11.7755 20.1071 9.35204 26.3128 8.12604 32.7532ZM5.48496 36.1277C12.2844 36.2463 19.1251 36.244 25.892 36.5139C26.3231 35.6037 26.8725 34.7047 27.7021 34.0749C20.2819 34.5261 12.7104 34.3642 5.27245 34.4192C4.09551 34.5473 4.30037 36.2238 5.48496 36.1277ZM19.2098 39.0998C19.7043 38.3911 20.3865 37.811 21.18 37.4248C16.4774 37.6455 11.6826 37.6068 6.97095 37.6529C7.53332 39.226 7.13526 41.0663 7.06956 42.7236C7.10635 42.7632 7.00641 42.7839 7.00568 42.8261C10.7839 42.8766 14.6087 42.8118 18.3285 43.5184C18.0165 42.0189 18.347 40.3833 19.2098 39.0998ZM21.5536 47.3597C20.0736 46.7217 18.8913 45.4435 18.4364 43.9432C14.5987 44.3997 10.674 44.3967 6.79997 44.4865C5.01671 44.3734 3.28372 45.5847 2.88991 47.2661C9.08901 47.2277 15.3551 47.2573 21.5536 47.3597ZM29.6375 47.4786C29.6947 47.48 29.7519 47.4809 29.8091 47.4818C29.8374 43.0227 29.8624 38.5449 29.9347 34.0877C28.2811 34.8248 27.6651 36.5793 27.1272 38.1402C26.7168 39.3703 25.1919 38.3851 24.2739 38.4913C19.8203 37.9924 18.1024 44.0263 21.8493 46.0757C22.9261 46.6603 24.1872 46.9202 25.3078 47.3583C26.6258 47.5038 28.3249 47.3078 29.6375 47.4786ZM44.6997 47.2609C44.4846 45.2379 44.2662 43.1998 44.3282 41.1458C41.663 41.1728 38.9861 41.2305 36.3215 41.1148C36.3111 43.174 36.24 45.2784 36.0327 47.2857C38.8008 47.2919 41.9139 47.2589 44.6997 47.2609ZM36.2403 24.2136C36.3816 24.0363 36.5264 23.9184 36.7128 23.8052C36.747 23.6679 36.8569 23.703 36.906 23.6011C36.9208 23.5376 36.9615 23.5678 36.9868 23.5344C37.0024 23.4787 37.0317 23.4658 37.062 23.4404C36.6292 22.5963 35.262 23.0528 34.8415 23.727C34.2364 24.5711 34.4022 25.6893 34.3868 26.6631C34.3246 27.6652 34.6401 28.1581 35.7565 28.0014C36.7838 27.9337 37.8113 27.8879 38.8387 27.8547C40.1055 27.7571 39.343 25.6796 39.4456 24.8697C39.4063 23.8574 38.4556 23.0405 37.3949 23.2452C37.3034 23.2602 37.0478 23.2952 37.1917 23.4108C37.1844 23.4507 37.1361 23.4934 37.1777 23.5236C37.1343 23.5487 37.092 23.5385 37.0619 23.5915C37.1226 23.8028 37.3788 23.7319 37.4666 23.8675C38.3748 24.2822 38.0182 25.4825 38.0467 26.3111C37.41 26.277 36.777 26.3584 36.1428 26.3286C36.1296 25.8041 36.1509 25.2073 36.1243 24.6904C36.1837 24.613 36.1129 24.5123 36.1667 24.4392C36.157 24.4045 36.1691 24.3819 36.1885 24.3623C36.2149 24.3218 36.1884 24.2495 36.2403 24.2136ZM42.8395 24.2136C42.9931 24.026 43.1133 23.9265 43.312 23.8052C43.3462 23.6679 43.4561 23.703 43.5052 23.6011C43.52 23.5376 43.5607 23.5678 43.5861 23.5344C43.6016 23.4787 43.6309 23.4658 43.6612 23.4404C43.2284 22.5963 41.8612 23.0528 41.4406 23.727C40.8355 24.5711 41.0013 25.6893 40.9859 26.6631C40.9237 27.6652 41.2392 28.1582 42.3556 28.0014C43.3829 27.9337 44.4105 27.8879 45.4379 27.8547C46.7047 27.7571 45.9423 25.6797 46.0449 24.8697C46.0055 23.8574 45.0548 23.0405 43.9941 23.2452C43.9028 23.2602 43.647 23.2952 43.7909 23.4108C43.7836 23.4507 43.7353 23.4934 43.777 23.5236C43.7335 23.5487 43.6912 23.5385 43.6611 23.5915C43.7218 23.8028 43.9782 23.7319 44.0659 23.8675C44.9739 24.2822 44.6174 25.4825 44.6458 26.3111C44.0091 26.277 43.3761 26.3584 42.7419 26.3286C42.7287 25.8041 42.75 25.2073 42.7234 24.6904C42.7828 24.613 42.712 24.5123 42.7658 24.4392C42.7561 24.4045 42.7682 24.3819 42.7876 24.3623C42.8142 24.3218 42.7878 24.2495 42.8395 24.2136ZM34.3868 34.1353C34.325 35.1386 34.6398 35.6298 35.7565 35.4736C36.7893 35.4057 37.8222 35.3589 38.8552 35.3266C39.642 35.3096 39.5632 34.473 39.5383 33.9309C39.4558 33.1878 39.5615 32.4148 39.285 31.7089C39.0081 30.9102 37.9565 30.4755 37.1586 30.793C37.1032 30.8335 37.1782 30.8401 37.1918 30.883C37.1845 30.9229 37.1362 30.9655 37.1779 30.9958C37.1344 31.0209 37.0921 31.0107 37.062 31.0637C37.1227 31.275 37.3791 31.204 37.4667 31.3397C38.375 31.7544 38.0183 32.9547 38.0468 33.7833C37.4102 33.7492 36.7771 33.8306 36.1429 33.8007C36.2388 32.9447 35.7723 31.7521 36.7129 31.2773C36.7469 31.1406 36.8573 31.1747 36.9061 31.0731C36.9208 31.0099 36.9617 31.0396 36.987 31.0064C37.0025 30.9508 37.0318 30.9378 37.0621 30.9124C36.6292 30.0684 35.2622 30.5249 34.8416 31.199C34.2362 32.0433 34.4021 33.1615 34.3868 34.1353ZM40.986 34.1353C40.9242 35.1386 41.239 35.6298 42.3556 35.4736C43.3884 35.4057 44.4213 35.3589 45.4543 35.3266C46.2411 35.3096 46.1623 34.4732 46.1374 33.9309C46.0549 33.1878 46.1606 32.4148 45.8841 31.7089C45.6072 30.9102 44.5556 30.4754 43.7577 30.793C43.7023 30.8335 43.7773 30.8401 43.7909 30.883C43.7836 30.9229 43.7353 30.9655 43.777 30.9958C43.7335 31.0209 43.6912 31.0107 43.6611 31.0637C43.7218 31.275 43.9782 31.204 44.0659 31.3397C44.9741 31.7544 44.6174 32.9547 44.6458 33.7833C44.0091 33.7492 43.3761 33.8306 42.7419 33.8007C42.8378 32.9447 42.3712 31.7521 43.3119 31.2773C43.3459 31.1406 43.4563 31.1747 43.5051 31.0731C43.5198 31.0099 43.5606 31.0396 43.5859 31.0064C43.6015 30.9508 43.6308 30.9378 43.6611 30.9124C43.2282 30.0684 41.8612 30.5249 41.4404 31.199C40.8355 32.0433 41.0013 33.1615 40.986 34.1353Z" fill="#0D2937"/>
</svg>