<svg width="44" height="57" viewBox="0 0 44 57" fill="none" xmlns="http://www.w3.org/2000/svg">
<path d="M43.6028 52.6405C43.5759 40.0031 43.4031 27.3042 43.3674 14.6649C43.4763 14.1196 42.0716 13.2526 41.7958 12.9041C23.2755 -2.31545 29.208 -5.44494 12.8926 10.9789C9.34861 4.36515 0.0490957 11.7471 5.6889 16.572C3.05292 17.9927 2.51929 21.1413 1.40399 23.6673C0.944853 25.2758 -0.363514 26.6856 0.0965773 28.4587C1.22361 31.3989 0.900235 37.1788 5.30903 36.7724C3.91853 42.3772 2.82492 48.2062 1.81482 53.9125C1.53416 55.685 0.762973 57.2332 3.41436 56.9269C4.24231 56.8027 6.18433 57.3126 6.52735 56.3279C7.58165 53.9306 8.45176 51.468 9.20807 48.9749C9.82317 51.1536 10.4058 53.4037 10.9992 55.5915C11.2479 57.1326 11.923 56.9329 13.2178 56.9584C13.9865 56.8783 15.748 57.3631 16.0242 56.29C24.0039 56.9738 32.0346 56.9307 40.0386 56.9471C42.1607 56.7686 43.7863 54.7455 43.6028 52.6405ZM13.1066 10.9445C13.0512 11.1157 12.8772 11.2757 13.1632 11.0722C13.11 11.1258 13.0584 11.178 13.006 11.2308C12.9802 11.1737 12.9539 11.1167 12.9278 11.0595C12.9915 11.0084 13.0535 10.9617 13.1066 10.9445ZM5.96806 12.8981C7.47932 7.10441 14.8207 11.9796 10.4553 16.0665C9.48861 15.9966 8.39377 16.0216 7.42502 16.0613C6.53253 15.183 5.78754 14.2272 5.96806 12.8981ZM5.26046 34.8148C3.28024 35.3854 3.20083 32.6317 2.653 31.3756C1.70635 28.3846 1.14829 28.2011 2.06152 25.0308C3.64987 25.5173 5.25828 25.7905 6.90707 25.9864C5.60362 25.0697 4.15731 24.552 2.67129 23.9911C3.90775 22.022 4.34696 19.3721 6.54945 18.2016C8.49215 17.6911 11.6953 17.4877 12.438 19.8779C12.7326 23.2372 12.4848 27.6 12.6079 30.9938C11.009 31.0331 9.43348 31.0657 7.85236 31.2896C7.7035 29.7653 6.57101 28.3969 7.18419 26.8878C7.10874 26.6764 7.24123 26.4734 7.18569 26.2745C7.13398 26.2026 7.19647 26.1278 7.17955 26.0622C7.1318 26.0025 7.1393 25.9376 7.13343 25.8669C3.09986 27.8867 8.20603 34.017 5.26046 34.8148ZM16.5143 31.0099C16.3877 31.8245 15.5743 31.0907 15.1199 31.0323C14.9198 31.0255 14.7693 30.8681 14.5702 30.8287C14.5693 30.327 14.5682 29.2039 14.5601 28.7086C15.2119 29.4555 15.9722 30.2248 16.5143 31.0099ZM6.88279 36.2149C8.34274 35.1608 8.46172 33.536 7.97775 31.935C9.52476 32.2456 11.1138 32.3768 12.6825 32.5257C13.0154 40.0417 13.559 47.6319 14.1339 55.1336C13.6684 55.1322 13.1723 55.1655 12.7051 55.1573C10.8067 48.8711 9.20016 42.4258 6.61986 36.3781C6.71005 36.3285 6.79819 36.2744 6.88279 36.2149ZM8.61468 47.7163C6.98034 49.8851 6.07012 52.4879 4.95237 54.9409C4.63145 54.9465 3.91812 54.9525 3.59174 54.9544C4.33673 48.8855 6.00872 42.8605 6.02974 36.7249C6.88115 40.277 7.79546 43.9289 8.79178 47.4786C8.73216 47.5572 8.67348 47.6368 8.61468 47.7163ZM41.6082 53.0898C41.5871 54.4334 40.2431 55.1964 39.0106 54.9963C31.3575 55.0252 23.6903 55.1691 16.0457 55.5044C15.533 47.96 15.1266 40.322 14.6378 32.7739C16.4911 34.4756 19.2423 32.3589 18.1938 30.1193C17.9315 29.5309 17.2945 29.1975 16.8769 28.7272C16.1302 28.1036 15.4515 27.2671 14.5444 26.9037C14.2455 23.4469 15.8033 18.288 11.8541 16.4606C13.3524 15.353 13.738 13.1088 13.0823 11.4111C30.3328 -2.94692 21.9266 -1.40236 41.621 15.0823C41.4767 27.6938 41.6348 40.4749 41.6082 53.0898ZM7.00026 25.8089C6.40155 25.3907 6.45612 25.2342 6.52585 24.5682C6.59079 24.3472 6.46377 23.9807 6.72833 23.8343C7.13848 23.4604 8.25692 23.8923 8.39869 24.3687C8.38804 24.3797 8.42188 24.4057 8.45695 24.4349C8.46063 24.4734 8.46104 24.485 8.48396 24.5233C8.41274 25.0467 8.16864 25.422 7.82166 25.8291C7.82998 25.8407 7.82589 25.8468 7.76927 25.8314C7.70173 25.8305 7.67553 25.9058 7.58452 25.8991C7.55191 25.9031 7.58875 25.9381 7.59421 25.9555C7.61126 25.9692 7.51125 25.9338 7.5178 25.9419C7.43539 26.0458 7.2591 25.9115 7.15295 25.8664C7.10942 25.8384 7.03247 25.832 7.00026 25.8089ZM33.1436 50.3505C33.0529 46.1921 33.0868 41.7884 33.0028 37.6273C33.2354 34.8907 30.9545 35.2816 29.0201 35.3348C29.722 33.8436 29.5597 32.1408 29.6274 30.5321C29.4068 27.1985 25.8138 28.7728 23.6486 28.576C22.6874 28.5985 21.8564 29.4926 21.9439 30.4579C22.0202 32.2588 21.9869 34.0746 22.7109 35.768C21.9562 35.9028 21.065 35.8435 20.368 36.0743C20.4377 36.1083 20.5518 36.0855 20.6068 36.1333C20.5457 36.2134 20.3949 36.2285 20.5848 36.2662C20.4031 36.2974 20.2074 36.2832 20.0382 36.3527C23.62 36.9517 27.9051 36.4792 31.4232 36.9491C31.424 41.4183 31.256 45.9648 31.2553 50.437C27.576 50.4355 23.7213 50.4578 20.0375 50.469C20.0366 50.4672 20.0348 50.4713 20.0344 50.4688C20.0329 50.4684 20.0309 50.47 20.0296 50.468C20.0219 50.4687 20.0079 50.453 20.0062 50.4468C20.0045 50.4453 20.0058 50.4436 20.0038 50.4418C20.0038 50.4406 20.0053 50.4392 20.003 50.438C20.0807 46.0884 19.7809 41.7553 19.5993 37.4216C19.4216 36.956 19.4914 36.3277 20.0384 36.1753C17.5709 34.814 18.2777 45.6613 18.0607 47.142C18.1657 49.799 17.0961 52.7776 21.034 52.4494C21.0219 52.4937 21.0732 52.523 21.0637 52.5622C21.0515 52.5821 21.1035 52.6019 21.0697 52.6219C21.0717 52.8169 21.0857 53.0471 21.1257 53.2403C21.1647 53.2718 21.1647 53.276 21.184 53.314C21.2362 53.3295 21.2889 53.356 21.2901 53.373C21.3151 53.3947 21.3702 53.3896 21.377 53.4485C21.3915 53.4896 21.472 53.4868 21.4698 53.5511C22.3227 53.7566 23.4811 53.5587 22.9231 52.4376C24.5009 52.4323 26.702 52.378 28.2622 52.3478C28.2115 52.4215 28.2561 52.4932 28.2701 52.5622C28.2577 52.5821 28.3098 52.6019 28.2762 52.6219C28.3021 52.8277 28.2452 53.1243 28.3795 53.2812C28.3626 53.3303 28.4854 53.3275 28.4648 53.3526C28.5394 53.3998 28.5674 53.387 28.5836 53.4486C28.5981 53.4897 28.6787 53.487 28.6763 53.5512C29.5697 53.8189 30.7761 53.4152 30.0659 52.3337C31.4627 52.4582 33.2391 52.1198 33.1436 50.3505ZM27.5704 35.3587C26.1631 35.4018 24.664 35.5659 23.2657 35.7062C23.3416 34.5476 23.5675 33.3599 23.562 32.1544C23.649 31.8383 23.4596 30.3374 23.7147 30.3492C25.0099 30.4525 26.3118 30.3282 27.608 30.3658C27.6045 30.3431 27.6331 30.3422 27.6368 30.3632C27.6383 30.3634 27.6378 30.3641 27.6372 30.3649C27.5756 32.0448 27.776 33.7082 28.0602 35.352C27.897 35.3554 27.7332 35.3528 27.5704 35.3587ZM31.2553 50.4369C31.2563 50.4131 31.278 50.4243 31.2845 50.4353C31.2916 50.4365 31.2716 50.4366 31.2553 50.4369ZM27.6079 30.3658V30.366C27.6079 30.3659 27.6079 30.3659 27.6079 30.3658ZM34.442 15.9633C34.795 17.1967 33.8812 18.0956 32.9003 18.6555C30.7591 20.1548 28.6184 21.683 26.4972 23.2076C25.9648 23.615 25.1434 23.1768 25.1737 22.5154C25.175 22.4428 25.1934 21.1986 25.1946 21.1332C25.1661 20.8553 25.3242 20.3981 24.9864 20.2926C22.9588 20.0133 20.8224 20.3535 18.8559 19.8708C18.9948 19.8017 19.1571 19.8157 19.3087 19.7843C19.1485 19.7478 19.2818 19.727 19.3269 19.6513C19.2814 19.6036 19.1868 19.6265 19.1291 19.5925C20.9446 19.2115 22.9377 19.0527 24.8236 18.8893C26.1224 18.7566 26.8341 19.9455 26.6894 21.1249C28.5412 19.7007 30.7145 18.0737 32.607 16.6832C32.7149 16.6139 32.6933 16.4648 32.6308 16.3805C30.7499 15.0998 28.9141 13.6991 27.0286 12.421C27.0138 16.0056 20.9042 13.9171 18.7176 14.5108C18.6481 15.8201 18.4624 17.1312 18.246 18.4273C18.1457 18.8927 18.3732 19.5304 18.8559 19.6937C16.5081 19.9994 17.3896 16.3266 17.0963 14.8931C16.5862 11.1449 22.9509 13.0407 25.0496 12.4676C25.0496 12.4678 25.0475 10.7925 25.0475 10.7925C24.9476 10.1711 25.3083 9.50938 25.9913 9.50611C26.8093 9.57665 27.7076 10.6095 28.3996 11.0026C29.2455 11.6265 30.2594 12.3863 31.1044 12.9898C32.0845 13.8495 34.1063 14.6752 34.442 15.9633Z" fill="#0D2937"/>
</svg>
