<svg width="105" height="54" viewBox="0 0 105 54" fill="none" xmlns="http://www.w3.org/2000/svg">
<path d="M0 27V0H105V54H0V27ZM22.6296 38.7897C23.1164 38.6187 23.772 38.1894 24.1563 37.7893L24.4663 37.4672L24.3176 37.1086L24.1689 36.75L23.8211 37.0862C23.1466 37.7381 22.2428 38.0298 21.5124 37.8308C20.3343 37.5099 19.6934 36.0422 19.6934 33.666C19.6934 31.2842 20.3503 30.1649 21.7531 30.1573C22.5956 30.1531 22.9702 30.5387 23.2386 31.6881C23.3419 32.1318 23.3789 32.1838 23.5544 32.1364C23.6636 32.1068 23.848 32.0818 23.9635 32.0814C24.1693 32.0801 24.1735 32.0585 24.1735 30.9587V29.8372L23.4965 29.6781C22.4561 29.4334 21.2549 29.3932 20.5355 29.579C18.5716 30.0862 17.4586 31.7745 17.4548 34.2523C17.4514 36.3279 18.2389 37.8799 19.6514 38.5806C20.5661 39.0344 21.7043 39.114 22.6296 38.7897ZM32.104 38.7918C32.8087 38.5937 33.2653 38.3435 33.7638 37.8829C34.9373 36.7983 35.4635 35.0647 35.1582 33.2867C34.75 30.9053 33.0582 29.4461 30.7066 29.4461C28.0111 29.4461 26.3164 31.2969 26.3214 34.2354C26.3252 36.4516 27.2899 38.0383 29.0405 38.7063C29.9477 39.0526 31.0645 39.0839 32.104 38.7918ZM30.1001 38.0615C29.1199 37.4689 28.6196 35.9774 28.6133 33.6325C28.61 32.1106 28.7717 31.3803 29.2391 30.808C30.1606 29.6815 31.739 30.1594 32.4509 31.7817C32.8192 32.6212 32.9675 33.4433 32.9713 34.6672C32.9767 36.4689 32.5735 37.62 31.7768 38.0751C31.2665 38.3664 30.5949 38.3608 30.1001 38.0615ZM55.02 38.838C56.0099 38.6233 57.1082 37.8194 57.624 36.9321C58.1813 35.974 58.4317 34.5313 58.2439 33.3633C57.8735 31.0654 56.3262 29.5998 54.1334 29.4715C52.6226 29.383 51.4634 29.7903 50.597 30.7144C49.7864 31.578 49.3769 32.7782 49.3765 34.2908C49.3752 37.5904 51.7923 39.5377 55.02 38.838ZM53.2199 38.095C52.2194 37.5827 51.6747 35.9977 51.6701 33.5855C51.6659 31.8541 51.9393 30.9879 52.6596 30.4507C53.0389 30.167 53.8188 30.1289 54.2892 30.3711C55.3942 30.9392 56.012 32.4489 56.028 34.6202C56.0406 36.3538 55.6794 37.5002 54.9557 38.0196C54.524 38.3295 53.744 38.3634 53.2199 38.095ZM88.8506 38.7321C89.5243 38.4819 90.2559 37.7529 90.4701 37.1192C90.6469 36.5959 90.6759 35.7048 90.5281 35.3085C90.266 34.6041 89.6284 34.0046 87.8039 32.7448C87.4066 32.4704 86.9971 32.1085 86.8942 31.9404C86.6699 31.5746 86.6502 30.9803 86.8522 30.6894C87.1513 30.2593 87.8833 30.0366 88.4726 30.1967C88.9052 30.3139 89.0891 30.5451 89.3218 31.2643C89.4298 31.5975 89.5276 31.7486 89.6326 31.7427L90.1135 31.7194L90.4399 31.7038V30.8639C90.4399 30.2712 90.4021 29.9854 90.3097 29.8927C90.2383 29.8207 89.7763 29.6853 89.2832 29.5913C86.6414 29.0905 85.118 30.0506 85.121 32.2143C85.1227 33.4183 85.538 33.9983 87.2365 35.1697C88.6704 36.1586 89.1505 36.8554 88.8388 37.4968C88.6078 37.9722 88.2575 38.1479 87.5419 38.1479C86.9753 38.1479 86.8686 38.1191 86.659 37.9079C86.528 37.7754 86.3197 37.4155 86.1958 37.1077C85.958 36.5163 85.7787 36.4092 85.2487 36.5434C85.0345 36.5972 85.0265 36.6311 85.0265 37.4799C85.0265 38.073 85.0647 38.3901 85.1432 38.451C85.2075 38.501 85.533 38.6178 85.8665 38.7101C87.1613 39.0691 87.9295 39.0746 88.8506 38.7321ZM97.6815 38.6504C98.1889 38.4481 98.2359 38.4049 98.2636 38.1119C98.2897 37.8376 98.2703 37.8025 98.125 37.8588C98.0318 37.8947 97.7029 37.9455 97.3942 37.9718C96.676 38.0328 96.2564 37.8321 95.9935 37.3012C95.8205 36.9528 95.8045 36.7022 95.7764 33.8912L95.7461 30.8571H97.7899L97.8436 30.5861C97.8734 30.4367 97.9251 30.2039 97.9591 30.0684L98.0204 29.8224H95.76V27.3764H94.8431L94.7818 27.7425C94.6886 28.2975 94.2358 29.1883 93.9036 29.4698C93.6046 29.7238 93.0892 29.9147 92.7032 29.916C92.5138 29.916 92.4932 29.9617 92.4932 30.3867V30.8571H93.5957L93.6356 33.8912C93.6789 37.17 93.7238 37.5002 94.2094 38.1424C94.3408 38.316 94.6697 38.5717 94.9406 38.711C95.3967 38.9446 95.4967 38.9603 96.2816 38.9171C96.8629 38.8854 97.3039 38.8011 97.6815 38.6504ZM14.474 38.796L14.8079 38.7402L14.9717 37.4562C15.0616 36.75 15.1582 36.0562 15.1859 35.9139C15.2355 35.6616 15.2258 35.6553 14.805 35.6553C14.3934 35.6553 14.3732 35.668 14.3732 35.9207C14.3732 36.3915 14.0897 37.0502 13.7613 37.3406C13.327 37.725 12.9184 37.8177 11.6537 37.8181C10.0174 37.819 10.1333 38.0328 10.0976 34.9453L10.0682 32.4315L11.311 32.4751C13.0032 32.5344 13.2195 32.6622 13.3904 33.7028C13.4434 34.025 13.4744 34.0559 13.7474 34.0559H14.0465L14.0566 31.9857L14.0666 29.9164H13.7634C13.4644 29.9164 13.4585 29.9253 13.3577 30.5006C13.3006 30.8287 13.1796 31.1615 13.0822 31.2597C12.7688 31.5755 11.7537 31.6919 10.5701 31.5488L10.08 31.4896V26.7172L11.2232 26.7248C11.852 26.7286 12.5336 26.7828 12.7378 26.8446C13.2023 26.9856 13.4933 27.3988 13.5807 28.0406L13.6454 28.5147L13.986 28.4864L14.3266 28.458V25.7295H5.97366V25.9666C5.97366 26.1825 6.0249 26.2139 6.53814 26.3121C7.70154 26.5352 7.65324 26.2782 7.65324 32.2681C7.65324 37.7174 7.64904 37.7665 7.12404 38.0353C6.97872 38.1094 6.66036 38.1996 6.41676 38.2355C6.02742 38.2923 5.97324 38.3283 5.97324 38.5285V38.7567L8.89014 38.7829C10.4945 38.7973 12.3316 38.8185 12.9734 38.8299C13.6151 38.8418 14.2901 38.8265 14.474 38.796ZM41.9987 38.6419C41.9962 38.4404 41.8732 38.3312 41.4863 38.1864C40.9248 37.9765 40.8912 37.7953 40.8853 34.9131C40.8794 32.1572 40.9156 31.9154 41.4259 31.3147C41.8165 30.855 42.2113 30.6687 42.7951 30.6687C44.0992 30.6687 44.3932 31.6068 44.3104 35.4982C44.2588 37.9197 44.2184 38.0654 43.5544 38.2351C43.2844 38.3041 43.2134 38.368 43.2134 38.5408V38.7596H47.893L47.8632 38.5501C47.8393 38.3833 47.7498 38.3261 47.4247 38.2707C46.8581 38.1733 46.5931 37.9743 46.5217 37.5916C46.489 37.4138 46.4537 36.0274 46.4436 34.5097C46.4281 32.2177 46.3987 31.6712 46.2689 31.2796C46.0459 30.606 45.6313 30.0874 45.0614 29.7691C44.6116 29.518 44.4864 29.4931 43.68 29.4931C42.5855 29.4931 42.1474 29.6713 41.344 30.4439L40.7866 30.9799L40.7858 30.5184C40.7858 30.2648 40.7597 29.9046 40.7291 29.7183L40.6736 29.3792L40.0806 29.5041C39.6157 29.6027 37.7698 29.8216 37.4035 29.822C37.3649 29.822 37.3334 29.9278 37.3334 30.0574C37.3334 30.2564 37.3771 30.2928 37.6165 30.2928C38.149 30.2928 38.5241 30.5239 38.6329 30.9202C38.7765 31.4396 38.7576 37.2936 38.6119 37.722C38.4825 38.1009 38.1793 38.2859 37.6837 38.2876C37.3729 38.2889 37.3334 38.3155 37.3334 38.5243V38.7596H39.6669C41.4721 38.7596 42 38.733 41.9987 38.6419ZM65.0366 38.5552C65.0152 38.4091 64.8934 38.313 64.609 38.2178C64.3902 38.1445 64.1592 37.993 64.0958 37.8812C64.0135 37.7364 63.9715 36.9139 63.95 35.0287C63.9215 32.4776 63.9282 32.3625 64.1248 31.9015C64.5053 31.0099 65.2126 30.5773 66.095 30.6966C66.5939 30.7644 66.8913 31.0649 67.0862 31.6995C67.2223 32.1419 67.2466 32.6351 67.2466 34.9495C67.2466 36.946 67.2155 37.7322 67.1311 37.8812C67.0673 37.993 66.8363 38.1445 66.6179 38.2178C66.3335 38.313 66.2113 38.4091 66.1903 38.5552L66.1605 38.7596H70.4668V38.5285C70.4668 38.3401 70.408 38.2863 70.1463 38.2368C69.4882 38.1123 69.4898 38.1208 69.4592 35.0194L69.4319 32.2397L69.6784 31.7317C69.9922 31.0853 70.4726 30.7466 71.1568 30.6894C71.8309 30.6331 72.1967 30.8342 72.458 31.4049C72.6516 31.8265 72.66 31.9688 72.66 34.8217C72.66 37.6073 72.6487 37.8113 72.4836 37.9951C72.387 38.103 72.1665 38.2182 71.9939 38.2508C71.7419 38.2982 71.6801 38.3541 71.6801 38.5344V38.7596H76.3207L76.2783 38.5353C76.2443 38.3562 76.1624 38.3016 75.8675 38.2618C75.3518 38.1919 75.0653 37.9726 74.9519 37.5607C74.8948 37.3533 74.8541 36.0964 74.8537 34.5194C74.8537 31.5852 74.8117 31.2715 74.3131 30.4807C74.1346 30.1971 73.8788 29.9643 73.5399 29.775C73.0821 29.5202 72.9519 29.4931 72.1934 29.4931C71.4601 29.4931 71.2849 29.5269 70.8158 29.7594C70.5197 29.9058 70.0321 30.2657 69.7322 30.5586L69.1862 31.092L68.8552 30.5603C68.6297 30.1979 68.3806 29.9435 68.0723 29.7606C67.6607 29.5172 67.5398 29.4931 66.7334 29.4931C65.6624 29.4931 65.2365 29.6683 64.3923 30.4562L63.84 30.9714L63.8387 30.3732C63.8379 30.0443 63.8135 29.6857 63.7846 29.5765C63.7333 29.3834 63.7148 29.3817 63.1365 29.5037C62.6695 29.6023 60.8236 29.8216 60.4569 29.822C60.4183 29.822 60.3868 29.9278 60.3868 30.0574C60.3868 30.2534 60.4313 30.2928 60.6526 30.2928C61.1495 30.2928 61.5187 30.4867 61.6564 30.8198C61.8505 31.2868 61.8454 37.3063 61.6514 37.7754C61.5027 38.1331 61.2163 38.2889 60.7072 38.2889C60.4275 38.2889 60.3868 38.3189 60.3868 38.5243V38.7596H65.0664L65.0366 38.5552ZM82.937 38.6106C82.9055 38.5289 82.8799 38.4286 82.8799 38.3875C82.8799 38.3469 82.6867 38.2914 82.4494 38.2647C81.7912 38.1898 81.6514 37.9896 81.5653 37.0015C81.5258 36.5455 81.4901 34.6435 81.4867 32.7757L81.48 29.3788L80.8034 29.4973C80.4313 29.5625 79.645 29.6645 79.0562 29.7238C78.4682 29.7831 77.9705 29.8474 77.9516 29.8669C77.8415 29.977 78.065 30.2928 78.2523 30.2928C78.6421 30.2928 79.0574 30.4981 79.1902 30.7563C79.364 31.0958 79.4682 34.6545 79.3573 36.4808C79.2641 38.0234 79.1923 38.1699 78.4837 38.2631C78.078 38.3168 77.9377 38.4133 77.9348 38.6419C77.9335 38.733 78.5009 38.7596 80.4632 38.7596C82.732 38.7596 82.9874 38.744 82.937 38.6106ZM80.929 27.5127C81.863 27.0258 81.7517 25.5657 80.7538 25.2152C79.3834 24.7343 78.4917 26.7104 79.7345 27.4741C79.9137 27.5831 80.1176 27.6439 80.3267 27.6506C80.5359 27.6573 80.7432 27.6099 80.929 27.5127ZM64.4465 22.6552C64.937 22.5341 65.5511 22.1697 66.0568 21.6997C66.5906 21.2036 66.6679 21.0495 66.5326 20.7502L66.4243 20.5106L65.9707 20.9377C64.8652 21.98 63.4746 22.121 62.5947 21.2798C62.0605 20.7692 61.6056 19.4789 61.6018 18.4624L61.6001 18.0628H66.7523L66.6847 17.3829C66.5994 16.529 66.444 16.0769 66.0211 15.4546C65.3873 14.5215 64.4923 14.1435 63.1096 14.2239C61.3733 14.3255 60.0907 15.5354 59.6879 17.4528C59.5123 18.2884 59.5123 19.0797 59.6879 19.8294C59.8739 20.6253 60.1301 21.1037 60.69 21.7006C61.6148 22.6866 62.9483 23.0257 64.4465 22.6552ZM61.5539 16.9723C61.7051 16.0646 61.9004 15.574 62.2507 15.2209C62.5741 14.8949 62.6485 14.864 63.1151 14.864C63.4885 14.864 63.7111 14.9212 63.9425 15.0757C64.302 15.3153 64.7279 16.1086 64.8194 16.7089L64.8782 17.0955L64.5225 17.1564C64.3268 17.1903 63.5649 17.2453 62.8299 17.2792L61.4926 17.3401L61.5539 16.9723ZM46.4801 22.3665C46.4801 22.1307 46.4491 22.1078 46.1299 22.1066C45.6477 22.1045 45.3428 21.9288 45.15 21.5423C45.0013 21.243 44.987 20.7972 44.9866 16.4321V11.6496L46.0366 11.7165C46.6141 11.7533 47.2408 11.8452 47.4293 11.9197C47.8355 12.0814 48.0665 12.4979 48.0665 13.0669C48.0665 13.4454 48.0732 13.453 48.3932 13.453H48.72V10.8317L43.8199 10.8308L38.9201 10.83L38.9193 11.5061C38.9189 11.8786 38.8916 12.4713 38.8584 12.8239L38.7983 13.4657L39.1625 13.4357C39.5254 13.406 39.5266 13.4039 39.5766 12.9353C39.6043 12.6766 39.6766 12.3748 39.7375 12.2643C39.9118 11.9476 40.4683 11.7876 41.6497 11.7143L42.7463 11.6466V16.5053C42.7463 21.9525 42.7606 21.831 42.1163 22.0088C41.9236 22.0617 41.6615 22.1163 41.533 22.1299C41.362 22.1481 41.2927 22.2175 41.2726 22.3898L41.2453 22.6252H46.4797L46.4801 22.3665ZM53.2001 22.4114C53.2001 22.2484 53.1329 22.1836 52.9171 22.1404C52.7617 22.1091 52.5517 21.9775 52.4509 21.8479C52.2787 21.6273 52.2665 21.4572 52.2665 19.1758C52.2665 17.1899 52.2934 16.6751 52.411 16.391C52.7024 15.6883 53.2426 15.3128 53.9629 15.3128C54.8331 15.3128 55.1086 15.6993 55.2649 17.1403C55.3867 18.2643 55.3266 21.3716 55.1758 21.7505C55.1027 21.9338 54.97 22.0329 54.6974 22.107C54.4009 22.1874 54.3199 22.2539 54.3199 22.4173V22.6252H58.5199V22.4135C58.5199 22.2751 58.4636 22.2018 58.3565 22.2018C58.267 22.2014 58.0423 22.1586 57.8584 22.107C57.3031 21.9516 57.2788 21.8251 57.22 18.7211C57.1687 16.0583 57.1578 15.9279 56.9486 15.4995C56.6866 14.9635 56.1351 14.4644 55.6399 14.3145C55.4408 14.2548 55.0099 14.2057 54.6823 14.2057C53.9809 14.2057 53.1854 14.5444 52.6168 15.0863L52.2665 15.419V10.4388L52.0565 10.4854C51.4584 10.617 50.7251 10.7169 49.9086 10.7775C49.342 10.8194 49.0006 10.8842 49.0014 10.9494C49.0043 11.1581 49.1471 11.2614 49.5134 11.3189C49.967 11.3901 50.1841 11.6364 50.2601 12.1635C50.2916 12.3811 50.3042 14.5935 50.2887 17.0789C50.2559 22.2293 50.2853 22.0333 49.5268 22.1481C49.148 22.2052 48.9304 22.3894 49.0375 22.5629C49.0585 22.5972 50.0035 22.6252 51.1375 22.6252H53.1997L53.2001 22.4114Z" fill="#0D2937"/>
</svg>
