<svg width="63" height="30" viewBox="0 0 63 30" fill="none" xmlns="http://www.w3.org/2000/svg">
<path d="M26.7865 0.000582201C24.0365 -0.0416698 21.5958 2.21979 21.5958 5.49258V20.2301C21.5986 20.7606 21.2091 21.2312 20.642 21.2312H16.113C6.31253 21.2431 7.18827 8.48717 15.5303 8.4752C19.2387 8.46984 20.5349 8.4752 20.5349 8.4752V4.90123H15.3524C12.1049 4.90657 9.64628 6.1645 7.99253 8.03991C6.33875 9.91537 5.49208 12.413 5.4934 14.8951C5.49469 17.2846 6.29594 19.7646 7.96965 21.6442C9.64335 23.5237 12.1882 24.8091 15.7054 24.8091H24.2539C24.7481 24.8091 25.167 24.3833 25.167 23.8868V5.88144C25.1616 4.93988 25.6417 4.18292 26.4137 3.93236H26.4138C27.1627 3.69 27.9851 4.00565 28.4809 4.72288L28.4831 4.72608L28.485 4.72941C29.6863 6.73173 32.6882 11.6437 35.3996 16.0715C36.7553 18.2854 38.0385 20.3784 38.9879 21.9266C39.4627 22.7007 39.854 23.3386 40.1292 23.7872C40.4023 24.2324 40.5541 24.4797 40.571 24.5077C40.771 24.7951 41.0226 24.9031 41.2323 24.8359H41.2324L41.2327 24.8358C41.3516 24.7982 41.4451 24.713 41.5152 24.5727C41.5852 24.4324 41.6267 24.2376 41.6267 24.0036V5.88403C41.6238 4.94546 42.1009 4.18691 42.8755 3.93778C43.6198 3.69505 44.4447 4.01073 44.9356 4.72867L44.9375 4.7315L44.9392 4.73446C46.1432 6.7355 49.1464 11.6475 51.8584 16.0753C54.5689 20.5006 56.9923 24.4485 57.0303 24.51C57.0304 24.5101 57.0305 24.5102 57.0305 24.5104C57.2265 24.796 57.4941 24.91 57.7176 24.8384C57.8386 24.7995 57.9353 24.7125 58.0074 24.5721C58.0795 24.4317 58.1226 24.2383 58.1226 24.0064V0.112176V0.110944H54.5774V14.0643C54.5774 14.0643 52.3821 10.2777 48.6397 3.74218C44.9782 -2.66031 38.0684 -0.0140517 38.0656 5.49517V14.0617C38.0656 14.0617 35.9229 10.2724 32.1829 3.73689C30.6945 1.13692 28.6681 0.0294914 26.7865 0.000582201ZM15.9928 0.110944C-4.37889 0.108365 -4.18563 29.63 16.2672 29.6434H24.2589C27.6982 29.646 29.9067 27.5711 29.904 23.7471V16.2694C29.904 16.2694 34.3861 23.8283 36.145 26.7871C39.1375 31.8179 46.3791 30.8287 46.3609 24.5446V16.2747C46.3609 16.2747 50.8429 23.8308 52.6042 26.7936C55.5967 31.8229 62.8387 30.8327 62.8203 24.5471V0.110944H59.2806V24.0061V24.0064C59.2831 25.1355 58.6608 25.7666 58.0678 25.9573L58.0675 25.9574C57.3442 26.1919 56.5574 25.8781 56.0682 25.1653L56.0665 25.1628L56.0649 25.1604C55.9638 24.996 46.3711 9.37088 43.9726 5.3789C43.7737 5.09148 43.4822 4.9734 43.2236 5.05655C42.955 5.14405 42.7843 5.43314 42.7843 5.88353V24.0007V24.0009C42.7872 25.1347 42.1754 25.7639 41.585 25.9573L41.5847 25.9574L41.5843 25.9575C40.8717 26.1853 40.0974 25.8721 39.6112 25.1599L39.61 25.1581L39.6089 25.1564C39.5895 25.1258 39.4347 24.8739 39.158 24.4233C38.8811 23.9727 38.4885 23.3332 38.0126 22.5577C37.0609 21.0068 35.7764 18.912 34.4202 16.6976C31.709 12.2709 28.7134 7.36919 27.5159 5.3736C27.3171 5.08664 27.023 4.97065 26.7639 5.05409V5.05397C26.4924 5.14161 26.32 5.43066 26.3225 5.8775V5.87787V23.8866C26.3225 25.0424 25.391 25.9841 24.2539 25.9841H15.7052C11.8158 25.9841 8.96776 24.548 7.09935 22.4414C5.23093 20.3349 4.3407 17.5642 4.33805 14.8951C4.33539 12.1256 5.27832 9.3379 7.12914 7.23818C8.97995 5.13846 11.741 3.73142 15.3497 3.72605H15.3498H20.5349V0.110944H15.9928Z" fill="#0D2937"/>
</svg>
