<svg xmlns="http://www.w3.org/2000/svg" width="56" height="49" viewBox="0 0 56 49" fill="none">
<path d="M55.8179 28.839C55.2024 16.2965 49.0228 10.1407 39.3842 3.15937C39.5796 2.32314 40.2758 1.39476 39.561 0.611431C39.4997 0.628232 39.4403 0.552498 39.3828 0.550267C39.3766 0.44395 39.0943 0.402998 39.0995 0.525459C39.0736 0.596075 38.999 0.544491 38.9749 0.567986C39.0131 0.716567 38.8052 0.726149 38.7643 0.848479C38.7259 0.859767 38.7337 0.902294 38.6924 0.896125C38.6342 0.886412 38.6255 0.900982 38.6286 0.921721C38.3819 1.44609 37.9185 1.87201 37.703 2.40425C33.7276 1.67381 29.9327 0.04047 25.7958 0.0126438C16.9273 -0.257086 7.96843 3.80593 2.36862 10.5586C1.76745 12.3448 5.05872 12.4639 6.19751 12.4024C8.2281 12.3232 9.92132 10.7106 11.9715 10.9284C18.2007 11.5291 14.6347 20.6808 23.3812 20.2457C25.708 20.0702 27.6668 18.1451 30.0534 18.9203C26.4452 26.02 22.409 33.1699 19.96 40.755C14.5823 40.9156 3.16591 43.8008 0 48.0124C0.0142849 49.107 1.23397 49.0096 2.02645 48.9882C18.676 48.9638 35.4229 48.7733 52.0751 48.7118C52.7446 48.7549 53.0917 47.8035 52.4962 47.4378C45.2133 42.4163 35.931 40.4101 27.1653 41.0447C27.296 41.0796 27.5114 41.0611 27.6138 41.1088C27.457 41.1934 27.2476 41.1916 27.5701 41.236C27.233 41.2605 26.8671 41.2399 26.5445 41.3021C34.3697 41.8485 42.3524 43.1719 49.2145 47.1608C34.2588 46.9846 19.1877 47.0495 4.22699 47.0826C11.0249 43.19 18.8327 41.9021 26.5445 41.1315C24.6474 40.6389 22.7697 40.6387 20.82 40.6977C25.4718 34.313 27.7972 26.4937 31.2691 19.455C33.0347 20.5835 33.2953 22.1053 33.8624 23.9157C35.4132 28.2963 40.6564 29.0472 44.3657 26.8526C46.787 26.0417 49.4742 27.2912 50.3927 29.6205C50.8529 30.7628 50.9992 32.0125 51.7224 33.0562C56.3321 39.0398 55.7169 32.4531 55.8179 28.839ZM18.0405 14.1385C17.2724 10.7832 13.6868 8.32572 10.2096 9.15656C8.44117 9.50662 6.86796 10.8096 4.98529 10.4775C11.9677 3.2036 22.9936 -0.297119 32.9149 2.22732C26.4742 3.66417 21.2561 8.63404 18.0405 14.1385ZM31.8656 14.6547C31.421 15.5037 31.2959 16.4247 30.9718 17.3128C28.7209 16.4311 26.4221 17.2695 24.3519 18.181C21.7521 19.121 18.9033 17.4959 18.2454 14.9016C22.2635 9.95368 29.9586 2.1252 37.0672 4.12213C37.0896 4.15507 37.0794 4.17331 37.0745 4.19208C37.1141 4.2413 37.0475 4.24131 37.0985 4.29092C37.133 4.3534 37.0681 4.41666 37.0776 4.48321C35.0658 7.68952 33.4895 11.214 31.8656 14.6547ZM43.0226 16.6725C43.0864 19.7812 42.6744 22.839 42.2113 25.9007C39.8189 27.0644 36.7618 26.0952 35.732 23.6157C34.9199 21.1766 34.52 19.1985 32.0253 17.7878C33.8117 15.8872 34.5393 13.2496 35.6339 10.9353C36.3683 8.97451 37.5048 7.13287 38.0084 5.09762C38.2297 5.05601 38.494 5.02188 38.6279 4.82815C42.3894 7.42137 43.0464 12.4653 43.0226 16.6725ZM54.2891 30.1328C54.268 31.1835 54.1859 32.3027 54.0445 33.3453C52.8833 32.408 52.4851 30.9625 52.1382 29.5856C51.1017 25.865 46.6268 23.8673 43.0878 25.5094C45.415 19.935 45.805 12.432 42.9924 6.96552C50.1777 12.3704 54.4943 21.2288 54.2891 30.1328Z" fill="#0D2937"/>
</svg>